{
	"patcher" : 	{
		"fileversion" : 1,
		"appversion" : 		{
			"major" : 6,
			"minor" : 0,
			"revision" : 8
		}
,
		"rect" : [ 222.0, 135.0, 1458.0, 727.0 ],
		"bgcolor" : [ 1.0, 1.0, 1.0, 0.0 ],
		"bglocked" : 0,
		"openinpresentation" : 1,
		"default_fontsize" : 11.0,
		"default_fontface" : 0,
		"default_fontname" : "Calibri",
		"gridonopen" : 2,
		"gridsize" : [ 15.0, 15.0 ],
		"gridsnaponopen" : 2,
		"statusbarvisible" : 2,
		"toolbarvisible" : 1,
		"boxanimatetime" : 200,
		"imprint" : 1,
		"enablehscroll" : 1,
		"enablevscroll" : 1,
		"devicewidth" : 0.0,
		"description" : "",
		"digest" : "",
		"tags" : "",
		"title" : "Tabet data - internal",
		"boxes" : [ 			{
				"box" : 				{
					"background" : 0,
					"bgcolor" : [ 1.0, 1.0, 1.0, 1.0 ],
					"color" : [ 0.952941, 0.388235, 0.090196, 1.0 ],
					"fontface" : 0,
					"fontname" : "Calibri",
					"fontsize" : 18.0,
					"hidden" : 0,
					"id" : "obj-187",
					"ignoreclick" : 0,
					"maxclass" : "newobj",
					"numinlets" : 1,
					"numoutlets" : 0,
					"patching_rect" : [ 2085.0, 30.0, 65.0, 28.0 ],
					"presentation" : 0,
					"presentation_rect" : [ 0.0, 0.0, 0.0, 0.0 ],
					"text" : "License",
					"textcolor" : [ 0.0, 0.0, 0.0, 1.0 ]
				}

			}
, 			{
				"box" : 				{
					"background" : 0,
					"bgcolor" : [ 1.0, 1.0, 1.0, 1.0 ],
					"color" : [ 0.8, 0.84, 0.71, 1.0 ],
					"fontface" : 0,
					"fontname" : "Arial",
					"fontsize" : 10.0,
					"hidden" : 0,
					"id" : "obj-19",
					"ignoreclick" : 0,
					"maxclass" : "newobj",
					"numinlets" : 2,
					"numoutlets" : 1,
					"outlettype" : [ "" ],
					"patching_rect" : [ 759.708374, 319.615234, 63.0, 18.0 ],
					"presentation" : 0,
					"presentation_rect" : [ 0.0, 0.0, 0.0, 0.0 ],
					"text" : "pack 0. 0.",
					"textcolor" : [ 0.0, 0.0, 0.0, 1.0 ]
				}

			}
, 			{
				"box" : 				{
					"background" : 0,
					"bgcolor" : [ 1.0, 1.0, 1.0, 1.0 ],
					"color" : [ 0.8, 0.84, 0.71, 1.0 ],
					"fontface" : 0,
					"fontname" : "Arial",
					"fontsize" : 10.0,
					"hidden" : 0,
					"id" : "obj-17",
					"ignoreclick" : 0,
					"maxclass" : "newobj",
					"numinlets" : 2,
					"numoutlets" : 1,
					"outlettype" : [ "" ],
					"patching_rect" : [ 71.874115, 319.615234, 62.167633, 18.0 ],
					"presentation" : 0,
					"presentation_rect" : [ 0.0, 0.0, 0.0, 0.0 ],
					"text" : "pack 0. 0.",
					"textcolor" : [ 0.0, 0.0, 0.0, 1.0 ]
				}

			}
, 			{
				"box" : 				{
					"background" : 0,
					"bgcolor" : [ 1.0, 1.0, 1.0, 1.0 ],
					"color" : [ 0.960784, 0.498039, 0.270588, 1.0 ],
					"fontface" : 1,
					"fontname" : "Calibri",
					"fontsize" : 11.0,
					"hidden" : 0,
					"id" : "obj-13",
					"ignoreclick" : 0,
					"maxclass" : "newobj",
					"numinlets" : 3,
					"numoutlets" : 2,
					"outlettype" : [ "", "" ],
					"patching_rect" : [ 461.250031, 398.0, 144.041595, 20.0 ],
					"presentation" : 0,
					"presentation_rect" : [ 0.0, 0.0, 0.0, 0.0 ],
					"text" : "recordData",
					"textcolor" : [ 0.0, 0.0, 0.0, 1.0 ]
				}

			}
, 			{
				"box" : 				{
					"background" : 0,
					"bgcolor" : [ 1.0, 1.0, 1.0, 1.0 ],
					"color" : [ 0.8, 0.84, 0.71, 1.0 ],
					"fontface" : 0,
					"fontname" : "Arial",
					"fontsize" : 10.0,
					"hidden" : 0,
					"id" : "obj-10",
					"ignoreclick" : 0,
					"maxclass" : "newobj",
					"numinlets" : 1,
					"numoutlets" : 2,
					"outlettype" : [ "float", "float" ],
					"patching_rect" : [ 540.291626, 424.0, 65.0, 18.0 ],
					"presentation" : 0,
					"presentation_rect" : [ 0.0, 0.0, 0.0, 0.0 ],
					"text" : "unpack 0. 0.",
					"textcolor" : [ 0.0, 0.0, 0.0, 1.0 ]
				}

			}
, 			{
				"box" : 				{
					"background" : 0,
					"bgcolor" : [ 1.0, 1.0, 1.0, 1.0 ],
					"color" : [ 0.8, 0.84, 0.71, 1.0 ],
					"fontface" : 0,
					"fontname" : "Arial",
					"fontsize" : 10.0,
					"hidden" : 0,
					"id" : "obj-8",
					"ignoreclick" : 0,
					"maxclass" : "newobj",
					"numinlets" : 1,
					"numoutlets" : 3,
					"outlettype" : [ "float", "float", "float" ],
					"patching_rect" : [ 461.250031, 424.0, 76.0, 18.0 ],
					"presentation" : 0,
					"presentation_rect" : [ 0.0, 0.0, 0.0, 0.0 ],
					"text" : "unpack 0. 0. 0.",
					"textcolor" : [ 0.0, 0.0, 0.0, 1.0 ]
				}

			}
, 			{
				"box" : 				{
					"background" : 0,
					"comment" : "bool: On/Off",
					"hidden" : 0,
					"id" : "obj-12",
					"ignoreclick" : 0,
					"maxclass" : "inlet",
					"numinlets" : 0,
					"numoutlets" : 1,
					"outlettype" : [ "" ],
					"patching_rect" : [ 53.0, 75.0, 25.0, 25.0 ],
					"presentation" : 0,
					"presentation_rect" : [ 0.0, 0.0, 0.0, 0.0 ]
				}

			}
, 			{
				"box" : 				{
					"background" : 0,
					"bgcolor" : [ 1.0, 1.0, 1.0, 1.0 ],
					"color" : [ 0.8, 0.84, 0.71, 1.0 ],
					"fontface" : 0,
					"fontname" : "Arial",
					"fontsize" : 10.0,
					"hidden" : 0,
					"id" : "obj-2",
					"ignoreclick" : 0,
					"maxclass" : "newobj",
					"numinlets" : 1,
					"numoutlets" : 2,
					"outlettype" : [ "", "" ],
					"patching_rect" : [ 53.0, 106.0, 59.0, 18.0 ],
					"presentation" : 0,
					"presentation_rect" : [ 0.0, 0.0, 0.0, 0.0 ],
					"save" : [ "#N", "thispatcher", ";", "#Q", "end", ";" ],
					"text" : "thispatcher",
					"textcolor" : [ 0.0, 0.0, 0.0, 1.0 ]
				}

			}
, 			{
				"box" : 				{
					"background" : 0,
					"bgcolor" : [ 1.0, 1.0, 1.0, 1.0 ],
					"color" : [ 0.8, 0.84, 0.71, 1.0 ],
					"fontface" : 0,
					"fontname" : "Calibri",
					"fontsize" : 11.0,
					"hidden" : 0,
					"id" : "obj-16",
					"ignoreclick" : 0,
					"maxclass" : "newobj",
					"numinlets" : 1,
					"numoutlets" : 1,
					"outlettype" : [ "" ],
					"patching_rect" : [ 1292.600098, 207.921204, 61.0, 20.0 ],
					"presentation" : 0,
					"presentation_rect" : [ 0.0, 0.0, 0.0, 0.0 ],
					"text" : "loadmess 0",
					"textcolor" : [ 0.0, 0.0, 0.0, 1.0 ]
				}

			}
, 			{
				"box" : 				{
					"background" : 0,
					"bgcolor" : [ 1.0, 1.0, 1.0, 1.0 ],
					"color" : [ 0.8, 0.84, 0.71, 1.0 ],
					"fontface" : 0,
					"fontname" : "Calibri",
					"fontsize" : 11.0,
					"hidden" : 0,
					"id" : "obj-15",
					"ignoreclick" : 0,
					"maxclass" : "newobj",
					"numinlets" : 1,
					"numoutlets" : 1,
					"outlettype" : [ "" ],
					"patching_rect" : [ 1976.25, 207.921204, 61.0, 20.0 ],
					"presentation" : 0,
					"presentation_rect" : [ 0.0, 0.0, 0.0, 0.0 ],
					"text" : "loadmess 0",
					"textcolor" : [ 0.0, 0.0, 0.0, 1.0 ]
				}

			}
, 			{
				"box" : 				{
					"background" : 0,
					"bgcolor" : [ 1.0, 1.0, 1.0, 1.0 ],
					"color" : [ 0.8, 0.84, 0.71, 1.0 ],
					"fontface" : 0,
					"fontname" : "Arial",
					"fontsize" : 10.0,
					"hidden" : 0,
					"id" : "obj-11",
					"ignoreclick" : 0,
					"maxclass" : "newobj",
					"numinlets" : 2,
					"numoutlets" : 2,
					"outlettype" : [ "bang", "" ],
					"patching_rect" : [ 259.600037, 182.0, 32.5, 18.0 ],
					"presentation" : 0,
					"presentation_rect" : [ 0.0, 0.0, 0.0, 0.0 ],
					"text" : "sel 1",
					"textcolor" : [ 0.0, 0.0, 0.0, 1.0 ]
				}

			}
, 			{
				"box" : 				{
					"active" : 1,
					"align" : 1,
					"background" : 0,
					"bgcolor" : [ 0.901961, 0.901961, 0.901961, 1.0 ],
					"bgoncolor" : [ 0.678431, 0.917647, 0.352941, 1.0 ],
					"bgovercolor" : [ 0.959213, 0.498012, 0.272024, 1.0 ],
					"bgoveroncolor" : [ 0.960784, 0.498039, 0.270588, 1.0 ],
					"blinktime" : 150,
					"border" : 0,
					"bordercolor" : [ 0.6, 0.6, 0.6, 1.0 ],
					"borderoncolor" : [ 0.364178, 0.899081, 0.0, 1.0 ],
					"fontface" : 0,
					"fontlink" : 0,
					"fontname" : "Calibri",
					"fontsize" : 12.0,
					"hidden" : 0,
					"id" : "obj-3",
					"ignoreclick" : 0,
					"maxclass" : "textbutton",
					"mode" : 1,
					"numinlets" : 1,
					"numoutlets" : 3,
					"outlettype" : [ "", "", "int" ],
					"outputmode" : 1,
					"parameter_enable" : 0,
					"patching_rect" : [ 259.600037, 114.331238, 46.608307, 20.668762 ],
					"presentation" : 0,
					"presentation_rect" : [ 0.0, 0.0, 0.0, 0.0 ],
					"rounded" : 10.0,
					"spacing_x" : 4.0,
					"spacing_y" : 4.0,
					"text" : "Off",
					"textcolor" : [ 0.15, 0.15, 0.15, 1.0 ],
					"texton" : "On",
					"textoncolor" : [ 0.0, 0.0, 0.0, 1.0 ],
					"textovercolor" : [ 0.1, 0.1, 0.1, 1.0 ],
					"textoveroncolor" : [ 0.9, 0.9, 0.9, 1.0 ],
					"tosymbol" : 1,
					"truncate" : 0,
					"underline" : 0,
					"varname" : "trajectoryCorrection_button"
				}

			}
, 			{
				"box" : 				{
					"background" : 0,
					"comment" : "bool: On/Off",
					"hidden" : 0,
					"id" : "obj-1",
					"ignoreclick" : 0,
					"maxclass" : "inlet",
					"numinlets" : 0,
					"numoutlets" : 1,
					"outlettype" : [ "" ],
					"patching_rect" : [ 259.600037, 75.0, 25.0, 25.0 ],
					"presentation" : 0,
					"presentation_rect" : [ 0.0, 0.0, 0.0, 0.0 ]
				}

			}
, 			{
				"box" : 				{
					"align" : 0,
					"arrow" : 1,
					"arrowbgcolor" : [ 0.86, 0.86, 0.86, 1.0 ],
					"arrowcolor" : [ 0.22, 0.22, 0.22, 1.0 ],
					"arrowframe" : 1,
					"arrowlink" : 1,
					"autopopulate" : 0,
					"background" : 0,
					"bgcolor" : [ 0.901961, 0.901961, 0.901961, 1.0 ],
					"bgcolor2" : [ 1.0, 1.0, 1.0, 1.0 ],
					"depth" : 0,
					"discolor" : [ 0.43, 0.43, 0.43, 1.0 ],
					"fontface" : 0,
					"fontname" : "Calibri",
					"fontsize" : 16.0,
					"framecolor" : [ 0.5, 0.5, 0.5, 1.0 ],
					"hidden" : 0,
					"hltcolor" : [ 0.92, 0.92, 0.92, 1.0 ],
					"id" : "obj-106",
					"ignoreclick" : 0,
					"items" : [ "All tablets and tools", ",", "<separator>", ",", "(0: Intuos3 9x12 / all tools)", ",", "<separator>", ",", "(1: Intuos5 touch / all tools)", ",", "(1: Intuos5 touch / 1: Grip Pen)", ",", "<separator>", ",", "(2: Intuos4 M / all tools)", ",", "(2: Intuos4 M / 1: Grip Pen)", ",", "<separator>", ",", "(3: Intuos5 touch / all tools)", ",", "(3: Intuos5 touch / 1: Grip Pen)" ],
					"labelclick" : 1,
					"maxclass" : "umenu",
					"menumode" : 0,
					"numinlets" : 1,
					"numoutlets" : 3,
					"outlettype" : [ "int", "", "" ],
					"parameter_enable" : 0,
					"patching_rect" : [ 1292.600098, 255.921204, 169.359619, 26.0 ],
					"pattrmode" : 0,
					"prefix" : "",
					"prefix_mode" : 0,
					"presentation" : 1,
					"presentation_rect" : [ 194.0, 79.0, 250.0, 26.0 ],
					"rounded" : 8,
					"showdotfiles" : 0,
					"textcolor" : [ 0.15, 0.15, 0.15, 1.0 ],
					"textcolor2" : [ 0.15, 0.15, 0.15, 1.0 ],
					"togcolor" : [ 0.55, 0.55, 0.55, 1.0 ],
					"truncate" : 1,
					"underline" : 0,
					"varname" : "menuTouchNP[1]"
				}

			}
, 			{
				"box" : 				{
					"background" : 0,
					"bgcolor" : [ 1.0, 1.0, 1.0, 1.0 ],
					"bordercolor" : [ 0.5, 0.5, 0.5, 1.0 ],
					"cantchange" : 0,
					"fontface" : 0,
					"fontname" : "Calibri",
					"fontsize" : 11.0,
					"hbgcolor" : [ 0.0, 0.0, 0.0, 1.0 ],
					"hidden" : 0,
					"htextcolor" : [ 1.0, 1.0, 1.0, 1.0 ],
					"htricolor" : [ 0.87, 0.82, 0.24, 1.0 ],
					"id" : "obj-100",
					"ignoreclick" : 1,
					"maxclass" : "flonum",
					"maximum" : "<none>",
					"minimum" : "<none>",
					"mouseup" : 0,
					"numdecimalplaces" : 0,
					"numinlets" : 1,
					"numoutlets" : 2,
					"outlettype" : [ "float", "bang" ],
					"outputonclick" : 0,
					"parameter_enable" : 0,
					"patching_rect" : [ 1301.208374, 454.224548, 38.0, 20.0 ],
					"presentation" : 0,
					"presentation_rect" : [ 0.0, 0.0, 0.0, 0.0 ],
					"textcolor" : [ 0.0, 0.0, 0.0, 1.0 ],
					"triangle" : 1,
					"tricolor" : [ 0.75, 0.75, 0.75, 1.0 ],
					"triscale" : 1.0
				}

			}
, 			{
				"box" : 				{
					"background" : 0,
					"bgcolor" : [ 1.0, 1.0, 1.0, 1.0 ],
					"bordercolor" : [ 0.5, 0.5, 0.5, 1.0 ],
					"cantchange" : 0,
					"fontface" : 0,
					"fontname" : "Calibri",
					"fontsize" : 11.0,
					"hbgcolor" : [ 0.0, 0.0, 0.0, 1.0 ],
					"hidden" : 0,
					"htextcolor" : [ 1.0, 1.0, 1.0, 1.0 ],
					"htricolor" : [ 0.87, 0.82, 0.24, 1.0 ],
					"id" : "obj-101",
					"ignoreclick" : 1,
					"maxclass" : "flonum",
					"maximum" : "<none>",
					"minimum" : "<none>",
					"mouseup" : 0,
					"numdecimalplaces" : 0,
					"numinlets" : 1,
					"numoutlets" : 2,
					"outlettype" : [ "float", "bang" ],
					"outputonclick" : 0,
					"parameter_enable" : 0,
					"patching_rect" : [ 1258.166626, 454.224548, 38.0, 20.0 ],
					"presentation" : 0,
					"presentation_rect" : [ 0.0, 0.0, 0.0, 0.0 ],
					"textcolor" : [ 0.0, 0.0, 0.0, 1.0 ],
					"triangle" : 1,
					"tricolor" : [ 0.75, 0.75, 0.75, 1.0 ],
					"triscale" : 1.0
				}

			}
, 			{
				"box" : 				{
					"background" : 0,
					"bgcolor" : [ 1.0, 1.0, 1.0, 0.0 ],
					"bubble" : 0,
					"bubblepoint" : 0.5,
					"bubbleside" : 1,
					"bubbletextmargin" : 5,
					"fontface" : 0,
					"fontname" : "Calibri",
					"fontsize" : 11.0,
					"frgb" : 0.0,
					"hidden" : 0,
					"id" : "obj-102",
					"ignoreclick" : 1,
					"maxclass" : "comment",
					"numinlets" : 1,
					"numoutlets" : 0,
					"patching_rect" : [ 1305.208374, 504.224548, 34.0, 20.0 ],
					"presentation" : 0,
					"presentation_rect" : [ 0.0, 0.0, 0.0, 0.0 ],
					"text" : "Yf5",
					"textcolor" : [ 1.0, 0.568627, 0.376471, 1.0 ],
					"underline" : 0
				}

			}
, 			{
				"box" : 				{
					"background" : 0,
					"bgcolor" : [ 1.0, 1.0, 1.0, 0.0 ],
					"bubble" : 0,
					"bubblepoint" : 0.5,
					"bubbleside" : 1,
					"bubbletextmargin" : 5,
					"fontface" : 0,
					"fontname" : "Calibri",
					"fontsize" : 11.0,
					"frgb" : 0.0,
					"hidden" : 0,
					"id" : "obj-103",
					"ignoreclick" : 1,
					"maxclass" : "comment",
					"numinlets" : 1,
					"numoutlets" : 0,
					"patching_rect" : [ 1259.166626, 504.224548, 33.0, 20.0 ],
					"presentation" : 0,
					"presentation_rect" : [ 0.0, 0.0, 0.0, 0.0 ],
					"text" : "Xf5",
					"textcolor" : [ 1.0, 0.568627, 0.376471, 1.0 ],
					"underline" : 0
				}

			}
, 			{
				"box" : 				{
					"background" : 0,
					"comment" : "float: Yf5",
					"hidden" : 0,
					"id" : "obj-104",
					"ignoreclick" : 0,
					"maxclass" : "outlet",
					"numinlets" : 1,
					"numoutlets" : 0,
					"patching_rect" : [ 1305.208374, 477.224548, 25.0, 25.0 ],
					"presentation" : 0,
					"presentation_rect" : [ 0.0, 0.0, 0.0, 0.0 ]
				}

			}
, 			{
				"box" : 				{
					"background" : 0,
					"comment" : "float: Xf5",
					"hidden" : 0,
					"id" : "obj-105",
					"ignoreclick" : 0,
					"maxclass" : "outlet",
					"numinlets" : 1,
					"numoutlets" : 0,
					"patching_rect" : [ 1259.166626, 477.224548, 25.0, 25.0 ],
					"presentation" : 0,
					"presentation_rect" : [ 0.0, 0.0, 0.0, 0.0 ]
				}

			}
, 			{
				"box" : 				{
					"background" : 0,
					"bgcolor" : [ 1.0, 1.0, 1.0, 1.0 ],
					"bordercolor" : [ 0.5, 0.5, 0.5, 1.0 ],
					"cantchange" : 0,
					"fontface" : 0,
					"fontname" : "Calibri",
					"fontsize" : 11.0,
					"hbgcolor" : [ 0.0, 0.0, 0.0, 1.0 ],
					"hidden" : 0,
					"htextcolor" : [ 1.0, 1.0, 1.0, 1.0 ],
					"htricolor" : [ 0.87, 0.82, 0.24, 1.0 ],
					"id" : "obj-91",
					"ignoreclick" : 1,
					"maxclass" : "flonum",
					"maximum" : "<none>",
					"minimum" : "<none>",
					"mouseup" : 0,
					"numdecimalplaces" : 0,
					"numinlets" : 1,
					"numoutlets" : 2,
					"outlettype" : [ "float", "bang" ],
					"outputonclick" : 0,
					"parameter_enable" : 0,
					"patching_rect" : [ 1172.083374, 454.224548, 38.0, 20.0 ],
					"presentation" : 0,
					"presentation_rect" : [ 0.0, 0.0, 0.0, 0.0 ],
					"textcolor" : [ 0.0, 0.0, 0.0, 1.0 ],
					"triangle" : 1,
					"tricolor" : [ 0.75, 0.75, 0.75, 1.0 ],
					"triscale" : 1.0
				}

			}
, 			{
				"box" : 				{
					"background" : 0,
					"bgcolor" : [ 1.0, 1.0, 1.0, 1.0 ],
					"bordercolor" : [ 0.5, 0.5, 0.5, 1.0 ],
					"cantchange" : 0,
					"fontface" : 0,
					"fontname" : "Calibri",
					"fontsize" : 11.0,
					"hbgcolor" : [ 0.0, 0.0, 0.0, 1.0 ],
					"hidden" : 0,
					"htextcolor" : [ 1.0, 1.0, 1.0, 1.0 ],
					"htricolor" : [ 0.87, 0.82, 0.24, 1.0 ],
					"id" : "obj-92",
					"ignoreclick" : 1,
					"maxclass" : "flonum",
					"maximum" : "<none>",
					"minimum" : "<none>",
					"mouseup" : 0,
					"numdecimalplaces" : 0,
					"numinlets" : 1,
					"numoutlets" : 2,
					"outlettype" : [ "float", "bang" ],
					"outputonclick" : 0,
					"parameter_enable" : 0,
					"patching_rect" : [ 1129.041626, 454.224548, 38.0, 20.0 ],
					"presentation" : 0,
					"presentation_rect" : [ 0.0, 0.0, 0.0, 0.0 ],
					"textcolor" : [ 0.0, 0.0, 0.0, 1.0 ],
					"triangle" : 1,
					"tricolor" : [ 0.75, 0.75, 0.75, 1.0 ],
					"triscale" : 1.0
				}

			}
, 			{
				"box" : 				{
					"background" : 0,
					"bgcolor" : [ 1.0, 1.0, 1.0, 0.0 ],
					"bubble" : 0,
					"bubblepoint" : 0.5,
					"bubbleside" : 1,
					"bubbletextmargin" : 5,
					"fontface" : 0,
					"fontname" : "Calibri",
					"fontsize" : 11.0,
					"frgb" : 0.0,
					"hidden" : 0,
					"id" : "obj-93",
					"ignoreclick" : 1,
					"maxclass" : "comment",
					"numinlets" : 1,
					"numoutlets" : 0,
					"patching_rect" : [ 1176.083374, 504.224548, 34.0, 20.0 ],
					"presentation" : 0,
					"presentation_rect" : [ 0.0, 0.0, 0.0, 0.0 ],
					"text" : "Yf4",
					"textcolor" : [ 1.0, 0.568627, 0.376471, 1.0 ],
					"underline" : 0
				}

			}
, 			{
				"box" : 				{
					"background" : 0,
					"bgcolor" : [ 1.0, 1.0, 1.0, 0.0 ],
					"bubble" : 0,
					"bubblepoint" : 0.5,
					"bubbleside" : 1,
					"bubbletextmargin" : 5,
					"fontface" : 0,
					"fontname" : "Calibri",
					"fontsize" : 11.0,
					"frgb" : 0.0,
					"hidden" : 0,
					"id" : "obj-94",
					"ignoreclick" : 1,
					"maxclass" : "comment",
					"numinlets" : 1,
					"numoutlets" : 0,
					"patching_rect" : [ 1130.041626, 504.224548, 33.0, 20.0 ],
					"presentation" : 0,
					"presentation_rect" : [ 0.0, 0.0, 0.0, 0.0 ],
					"text" : "Xf4",
					"textcolor" : [ 1.0, 0.568627, 0.376471, 1.0 ],
					"underline" : 0
				}

			}
, 			{
				"box" : 				{
					"background" : 0,
					"comment" : "float: Yf4",
					"hidden" : 0,
					"id" : "obj-95",
					"ignoreclick" : 0,
					"maxclass" : "outlet",
					"numinlets" : 1,
					"numoutlets" : 0,
					"patching_rect" : [ 1176.083374, 477.224548, 25.0, 25.0 ],
					"presentation" : 0,
					"presentation_rect" : [ 0.0, 0.0, 0.0, 0.0 ]
				}

			}
, 			{
				"box" : 				{
					"background" : 0,
					"comment" : "float: Xf4",
					"hidden" : 0,
					"id" : "obj-98",
					"ignoreclick" : 0,
					"maxclass" : "outlet",
					"numinlets" : 1,
					"numoutlets" : 0,
					"patching_rect" : [ 1130.041626, 477.224548, 25.0, 25.0 ],
					"presentation" : 0,
					"presentation_rect" : [ 0.0, 0.0, 0.0, 0.0 ]
				}

			}
, 			{
				"box" : 				{
					"background" : 0,
					"bgcolor" : [ 1.0, 1.0, 1.0, 1.0 ],
					"bordercolor" : [ 0.5, 0.5, 0.5, 1.0 ],
					"cantchange" : 0,
					"fontface" : 0,
					"fontname" : "Calibri",
					"fontsize" : 11.0,
					"hbgcolor" : [ 0.0, 0.0, 0.0, 1.0 ],
					"hidden" : 0,
					"htextcolor" : [ 1.0, 1.0, 1.0, 1.0 ],
					"htricolor" : [ 0.87, 0.82, 0.24, 1.0 ],
					"id" : "obj-83",
					"ignoreclick" : 1,
					"maxclass" : "flonum",
					"maximum" : "<none>",
					"minimum" : "<none>",
					"mouseup" : 0,
					"numdecimalplaces" : 0,
					"numinlets" : 1,
					"numoutlets" : 2,
					"outlettype" : [ "float", "bang" ],
					"outputonclick" : 0,
					"parameter_enable" : 0,
					"patching_rect" : [ 1042.958374, 454.224548, 38.0, 20.0 ],
					"presentation" : 0,
					"presentation_rect" : [ 0.0, 0.0, 0.0, 0.0 ],
					"textcolor" : [ 0.0, 0.0, 0.0, 1.0 ],
					"triangle" : 1,
					"tricolor" : [ 0.75, 0.75, 0.75, 1.0 ],
					"triscale" : 1.0
				}

			}
, 			{
				"box" : 				{
					"background" : 0,
					"bgcolor" : [ 1.0, 1.0, 1.0, 1.0 ],
					"bordercolor" : [ 0.5, 0.5, 0.5, 1.0 ],
					"cantchange" : 0,
					"fontface" : 0,
					"fontname" : "Calibri",
					"fontsize" : 11.0,
					"hbgcolor" : [ 0.0, 0.0, 0.0, 1.0 ],
					"hidden" : 0,
					"htextcolor" : [ 1.0, 1.0, 1.0, 1.0 ],
					"htricolor" : [ 0.87, 0.82, 0.24, 1.0 ],
					"id" : "obj-84",
					"ignoreclick" : 1,
					"maxclass" : "flonum",
					"maximum" : "<none>",
					"minimum" : "<none>",
					"mouseup" : 0,
					"numdecimalplaces" : 0,
					"numinlets" : 1,
					"numoutlets" : 2,
					"outlettype" : [ "float", "bang" ],
					"outputonclick" : 0,
					"parameter_enable" : 0,
					"patching_rect" : [ 999.916748, 454.224548, 38.0, 20.0 ],
					"presentation" : 0,
					"presentation_rect" : [ 0.0, 0.0, 0.0, 0.0 ],
					"textcolor" : [ 0.0, 0.0, 0.0, 1.0 ],
					"triangle" : 1,
					"tricolor" : [ 0.75, 0.75, 0.75, 1.0 ],
					"triscale" : 1.0
				}

			}
, 			{
				"box" : 				{
					"background" : 0,
					"bgcolor" : [ 1.0, 1.0, 1.0, 0.0 ],
					"bubble" : 0,
					"bubblepoint" : 0.5,
					"bubbleside" : 1,
					"bubbletextmargin" : 5,
					"fontface" : 0,
					"fontname" : "Calibri",
					"fontsize" : 11.0,
					"frgb" : 0.0,
					"hidden" : 0,
					"id" : "obj-85",
					"ignoreclick" : 1,
					"maxclass" : "comment",
					"numinlets" : 1,
					"numoutlets" : 0,
					"patching_rect" : [ 1046.958374, 504.224548, 34.0, 20.0 ],
					"presentation" : 0,
					"presentation_rect" : [ 0.0, 0.0, 0.0, 0.0 ],
					"text" : "Yf3",
					"textcolor" : [ 1.0, 0.568627, 0.376471, 1.0 ],
					"underline" : 0
				}

			}
, 			{
				"box" : 				{
					"background" : 0,
					"bgcolor" : [ 1.0, 1.0, 1.0, 0.0 ],
					"bubble" : 0,
					"bubblepoint" : 0.5,
					"bubbleside" : 1,
					"bubbletextmargin" : 5,
					"fontface" : 0,
					"fontname" : "Calibri",
					"fontsize" : 11.0,
					"frgb" : 0.0,
					"hidden" : 0,
					"id" : "obj-86",
					"ignoreclick" : 1,
					"maxclass" : "comment",
					"numinlets" : 1,
					"numoutlets" : 0,
					"patching_rect" : [ 1000.916748, 504.224548, 33.0, 20.0 ],
					"presentation" : 0,
					"presentation_rect" : [ 0.0, 0.0, 0.0, 0.0 ],
					"text" : "Xf3",
					"textcolor" : [ 1.0, 0.568627, 0.376471, 1.0 ],
					"underline" : 0
				}

			}
, 			{
				"box" : 				{
					"background" : 0,
					"comment" : "float: Yf3",
					"hidden" : 0,
					"id" : "obj-87",
					"ignoreclick" : 0,
					"maxclass" : "outlet",
					"numinlets" : 1,
					"numoutlets" : 0,
					"patching_rect" : [ 1046.958374, 477.224548, 25.0, 25.0 ],
					"presentation" : 0,
					"presentation_rect" : [ 0.0, 0.0, 0.0, 0.0 ]
				}

			}
, 			{
				"box" : 				{
					"background" : 0,
					"comment" : "float: Xf3",
					"hidden" : 0,
					"id" : "obj-88",
					"ignoreclick" : 0,
					"maxclass" : "outlet",
					"numinlets" : 1,
					"numoutlets" : 0,
					"patching_rect" : [ 1000.916748, 477.224548, 25.0, 25.0 ],
					"presentation" : 0,
					"presentation_rect" : [ 0.0, 0.0, 0.0, 0.0 ]
				}

			}
, 			{
				"box" : 				{
					"background" : 0,
					"bgcolor" : [ 1.0, 1.0, 1.0, 1.0 ],
					"bordercolor" : [ 0.5, 0.5, 0.5, 1.0 ],
					"cantchange" : 0,
					"fontface" : 0,
					"fontname" : "Calibri",
					"fontsize" : 11.0,
					"hbgcolor" : [ 0.0, 0.0, 0.0, 1.0 ],
					"hidden" : 0,
					"htextcolor" : [ 1.0, 1.0, 1.0, 1.0 ],
					"htricolor" : [ 0.87, 0.82, 0.24, 1.0 ],
					"id" : "obj-76",
					"ignoreclick" : 1,
					"maxclass" : "flonum",
					"maximum" : "<none>",
					"minimum" : "<none>",
					"mouseup" : 0,
					"numdecimalplaces" : 0,
					"numinlets" : 1,
					"numoutlets" : 2,
					"outlettype" : [ "float", "bang" ],
					"outputonclick" : 0,
					"parameter_enable" : 0,
					"patching_rect" : [ 913.833374, 454.224548, 38.0, 20.0 ],
					"presentation" : 0,
					"presentation_rect" : [ 0.0, 0.0, 0.0, 0.0 ],
					"textcolor" : [ 0.0, 0.0, 0.0, 1.0 ],
					"triangle" : 1,
					"tricolor" : [ 0.75, 0.75, 0.75, 1.0 ],
					"triscale" : 1.0
				}

			}
, 			{
				"box" : 				{
					"background" : 0,
					"bgcolor" : [ 1.0, 1.0, 1.0, 1.0 ],
					"bordercolor" : [ 0.5, 0.5, 0.5, 1.0 ],
					"cantchange" : 0,
					"fontface" : 0,
					"fontname" : "Calibri",
					"fontsize" : 11.0,
					"hbgcolor" : [ 0.0, 0.0, 0.0, 1.0 ],
					"hidden" : 0,
					"htextcolor" : [ 1.0, 1.0, 1.0, 1.0 ],
					"htricolor" : [ 0.87, 0.82, 0.24, 1.0 ],
					"id" : "obj-77",
					"ignoreclick" : 1,
					"maxclass" : "flonum",
					"maximum" : "<none>",
					"minimum" : "<none>",
					"mouseup" : 0,
					"numdecimalplaces" : 0,
					"numinlets" : 1,
					"numoutlets" : 2,
					"outlettype" : [ "float", "bang" ],
					"outputonclick" : 0,
					"parameter_enable" : 0,
					"patching_rect" : [ 870.791748, 454.224548, 38.0, 20.0 ],
					"presentation" : 0,
					"presentation_rect" : [ 0.0, 0.0, 0.0, 0.0 ],
					"textcolor" : [ 0.0, 0.0, 0.0, 1.0 ],
					"triangle" : 1,
					"tricolor" : [ 0.75, 0.75, 0.75, 1.0 ],
					"triscale" : 1.0
				}

			}
, 			{
				"box" : 				{
					"background" : 0,
					"bgcolor" : [ 1.0, 1.0, 1.0, 0.0 ],
					"bubble" : 0,
					"bubblepoint" : 0.5,
					"bubbleside" : 1,
					"bubbletextmargin" : 5,
					"fontface" : 0,
					"fontname" : "Calibri",
					"fontsize" : 11.0,
					"frgb" : 0.0,
					"hidden" : 0,
					"id" : "obj-79",
					"ignoreclick" : 1,
					"maxclass" : "comment",
					"numinlets" : 1,
					"numoutlets" : 0,
					"patching_rect" : [ 917.833374, 504.224548, 34.0, 20.0 ],
					"presentation" : 0,
					"presentation_rect" : [ 0.0, 0.0, 0.0, 0.0 ],
					"text" : "Yf2",
					"textcolor" : [ 1.0, 0.568627, 0.376471, 1.0 ],
					"underline" : 0
				}

			}
, 			{
				"box" : 				{
					"background" : 0,
					"bgcolor" : [ 1.0, 1.0, 1.0, 0.0 ],
					"bubble" : 0,
					"bubblepoint" : 0.5,
					"bubbleside" : 1,
					"bubbletextmargin" : 5,
					"fontface" : 0,
					"fontname" : "Calibri",
					"fontsize" : 11.0,
					"frgb" : 0.0,
					"hidden" : 0,
					"id" : "obj-80",
					"ignoreclick" : 1,
					"maxclass" : "comment",
					"numinlets" : 1,
					"numoutlets" : 0,
					"patching_rect" : [ 871.791748, 504.224548, 33.0, 20.0 ],
					"presentation" : 0,
					"presentation_rect" : [ 0.0, 0.0, 0.0, 0.0 ],
					"text" : "Xf2",
					"textcolor" : [ 1.0, 0.568627, 0.376471, 1.0 ],
					"underline" : 0
				}

			}
, 			{
				"box" : 				{
					"background" : 0,
					"comment" : "float: Yf2",
					"hidden" : 0,
					"id" : "obj-81",
					"ignoreclick" : 0,
					"maxclass" : "outlet",
					"numinlets" : 1,
					"numoutlets" : 0,
					"patching_rect" : [ 917.833374, 477.224548, 25.0, 25.0 ],
					"presentation" : 0,
					"presentation_rect" : [ 0.0, 0.0, 0.0, 0.0 ]
				}

			}
, 			{
				"box" : 				{
					"background" : 0,
					"comment" : "float: Xf2",
					"hidden" : 0,
					"id" : "obj-82",
					"ignoreclick" : 0,
					"maxclass" : "outlet",
					"numinlets" : 1,
					"numoutlets" : 0,
					"patching_rect" : [ 871.791748, 477.224548, 25.0, 25.0 ],
					"presentation" : 0,
					"presentation_rect" : [ 0.0, 0.0, 0.0, 0.0 ]
				}

			}
, 			{
				"box" : 				{
					"background" : 0,
					"bgcolor" : [ 1.0, 1.0, 1.0, 1.0 ],
					"bordercolor" : [ 0.5, 0.5, 0.5, 1.0 ],
					"checkedcolor" : [ 0.0, 0.0, 0.0, 1.0 ],
					"hidden" : 0,
					"id" : "obj-9",
					"ignoreclick" : 0,
					"maxclass" : "toggle",
					"numinlets" : 1,
					"numoutlets" : 1,
					"outlettype" : [ "int" ],
					"parameter_enable" : 0,
					"patching_rect" : [ 612.541748, 454.224548, 20.0, 20.0 ],
					"presentation" : 0,
					"presentation_rect" : [ 0.0, 0.0, 0.0, 0.0 ]
				}

			}
, 			{
				"box" : 				{
					"background" : 0,
					"bgcolor" : [ 1.0, 1.0, 1.0, 0.0 ],
					"bubble" : 0,
					"bubblepoint" : 0.5,
					"bubbleside" : 1,
					"bubbletextmargin" : 5,
					"fontface" : 0,
					"fontname" : "Calibri",
					"fontsize" : 11.0,
					"frgb" : 0.0,
					"hidden" : 0,
					"id" : "obj-22",
					"ignoreclick" : 1,
					"maxclass" : "comment",
					"numinlets" : 1,
					"numoutlets" : 0,
					"patching_rect" : [ 584.583374, 504.224548, 52.958374, 20.0 ],
					"presentation" : 0,
					"presentation_rect" : [ 0.0, 0.0, 0.0, 0.0 ],
					"text" : "Proximity",
					"textcolor" : [ 1.0, 0.568627, 0.376471, 1.0 ],
					"underline" : 0
				}

			}
, 			{
				"box" : 				{
					"background" : 0,
					"comment" : "int 0/1: Proximity",
					"hidden" : 0,
					"id" : "obj-24",
					"ignoreclick" : 0,
					"maxclass" : "outlet",
					"numinlets" : 1,
					"numoutlets" : 0,
					"patching_rect" : [ 612.541748, 475.724548, 25.0, 25.0 ],
					"presentation" : 0,
					"presentation_rect" : [ 0.0, 0.0, 0.0, 0.0 ]
				}

			}
, 			{
				"box" : 				{
					"background" : 0,
					"bgcolor" : [ 1.0, 1.0, 1.0, 1.0 ],
					"bordercolor" : [ 0.5, 0.5, 0.5, 1.0 ],
					"cantchange" : 0,
					"fontface" : 0,
					"fontname" : "Calibri",
					"fontsize" : 11.0,
					"hbgcolor" : [ 0.0, 0.0, 0.0, 1.0 ],
					"hidden" : 0,
					"htextcolor" : [ 1.0, 1.0, 1.0, 1.0 ],
					"htricolor" : [ 0.87, 0.82, 0.24, 1.0 ],
					"id" : "obj-18",
					"ignoreclick" : 0,
					"maxclass" : "flonum",
					"maximum" : "<none>",
					"minimum" : "<none>",
					"mouseup" : 0,
					"numdecimalplaces" : 0,
					"numinlets" : 1,
					"numoutlets" : 2,
					"outlettype" : [ "float", "bang" ],
					"outputonclick" : 0,
					"parameter_enable" : 0,
					"patching_rect" : [ 182.125076, 454.224548, 37.0, 20.0 ],
					"presentation" : 0,
					"presentation_rect" : [ 0.0, 0.0, 0.0, 0.0 ],
					"textcolor" : [ 0.0, 0.0, 0.0, 1.0 ],
					"triangle" : 1,
					"tricolor" : [ 0.75, 0.75, 0.75, 1.0 ],
					"triscale" : 1.0
				}

			}
, 			{
				"box" : 				{
					"background" : 0,
					"bgcolor" : [ 1.0, 1.0, 1.0, 1.0 ],
					"bordercolor" : [ 0.5, 0.5, 0.5, 1.0 ],
					"cantchange" : 0,
					"fontface" : 0,
					"fontname" : "Calibri",
					"fontsize" : 11.0,
					"hbgcolor" : [ 0.0, 0.0, 0.0, 1.0 ],
					"hidden" : 0,
					"htextcolor" : [ 1.0, 1.0, 1.0, 1.0 ],
					"htricolor" : [ 0.87, 0.82, 0.24, 1.0 ],
					"id" : "obj-185",
					"ignoreclick" : 0,
					"maxclass" : "flonum",
					"maximum" : "<none>",
					"minimum" : "<none>",
					"mouseup" : 0,
					"numdecimalplaces" : 0,
					"numinlets" : 1,
					"numoutlets" : 2,
					"outlettype" : [ "float", "bang" ],
					"outputonclick" : 0,
					"parameter_enable" : 0,
					"patching_rect" : [ 139.083405, 454.224548, 37.0, 20.0 ],
					"presentation" : 0,
					"presentation_rect" : [ 0.0, 0.0, 0.0, 0.0 ],
					"textcolor" : [ 0.0, 0.0, 0.0, 1.0 ],
					"triangle" : 1,
					"tricolor" : [ 0.75, 0.75, 0.75, 1.0 ],
					"triscale" : 1.0
				}

			}
, 			{
				"box" : 				{
					"background" : 0,
					"bgcolor" : [ 1.0, 1.0, 1.0, 1.0 ],
					"bordercolor" : [ 0.5, 0.5, 0.5, 1.0 ],
					"cantchange" : 0,
					"fontface" : 0,
					"fontname" : "Calibri",
					"fontsize" : 11.0,
					"hbgcolor" : [ 0.0, 0.0, 0.0, 1.0 ],
					"hidden" : 0,
					"htextcolor" : [ 1.0, 1.0, 1.0, 1.0 ],
					"htricolor" : [ 0.87, 0.82, 0.24, 1.0 ],
					"id" : "obj-89",
					"ignoreclick" : 1,
					"maxclass" : "flonum",
					"maximum" : "<none>",
					"minimum" : "<none>",
					"mouseup" : 0,
					"numdecimalplaces" : 0,
					"numinlets" : 1,
					"numoutlets" : 2,
					"outlettype" : [ "float", "bang" ],
					"outputonclick" : 0,
					"parameter_enable" : 0,
					"patching_rect" : [ 784.708374, 454.224548, 38.0, 20.0 ],
					"presentation" : 0,
					"presentation_rect" : [ 0.0, 0.0, 0.0, 0.0 ],
					"textcolor" : [ 0.0, 0.0, 0.0, 1.0 ],
					"triangle" : 1,
					"tricolor" : [ 0.75, 0.75, 0.75, 1.0 ],
					"triscale" : 1.0
				}

			}
, 			{
				"box" : 				{
					"background" : 0,
					"bgcolor" : [ 1.0, 1.0, 1.0, 1.0 ],
					"bordercolor" : [ 0.5, 0.5, 0.5, 1.0 ],
					"cantchange" : 0,
					"fontface" : 0,
					"fontname" : "Calibri",
					"fontsize" : 11.0,
					"hbgcolor" : [ 0.0, 0.0, 0.0, 1.0 ],
					"hidden" : 0,
					"htextcolor" : [ 1.0, 1.0, 1.0, 1.0 ],
					"htricolor" : [ 0.87, 0.82, 0.24, 1.0 ],
					"id" : "obj-90",
					"ignoreclick" : 1,
					"maxclass" : "flonum",
					"maximum" : "<none>",
					"minimum" : "<none>",
					"mouseup" : 0,
					"numdecimalplaces" : 0,
					"numinlets" : 1,
					"numoutlets" : 2,
					"outlettype" : [ "float", "bang" ],
					"outputonclick" : 0,
					"parameter_enable" : 0,
					"patching_rect" : [ 741.666748, 454.224548, 38.0, 20.0 ],
					"presentation" : 0,
					"presentation_rect" : [ 0.0, 0.0, 0.0, 0.0 ],
					"textcolor" : [ 0.0, 0.0, 0.0, 1.0 ],
					"triangle" : 1,
					"tricolor" : [ 0.75, 0.75, 0.75, 1.0 ],
					"triscale" : 1.0
				}

			}
, 			{
				"box" : 				{
					"background" : 0,
					"bgcolor" : [ 1.0, 1.0, 1.0, 0.0 ],
					"bubble" : 0,
					"bubblepoint" : 0.5,
					"bubbleside" : 1,
					"bubbletextmargin" : 5,
					"fontface" : 0,
					"fontname" : "Calibri",
					"fontsize" : 11.0,
					"frgb" : 0.0,
					"hidden" : 0,
					"id" : "obj-25",
					"ignoreclick" : 1,
					"maxclass" : "comment",
					"numinlets" : 1,
					"numoutlets" : 0,
					"patching_rect" : [ 788.708374, 504.224548, 34.0, 20.0 ],
					"presentation" : 0,
					"presentation_rect" : [ 0.0, 0.0, 0.0, 0.0 ],
					"text" : "Yf1",
					"textcolor" : [ 1.0, 0.568627, 0.376471, 1.0 ],
					"underline" : 0
				}

			}
, 			{
				"box" : 				{
					"background" : 0,
					"bgcolor" : [ 1.0, 1.0, 1.0, 0.0 ],
					"bubble" : 0,
					"bubblepoint" : 0.5,
					"bubbleside" : 1,
					"bubbletextmargin" : 5,
					"fontface" : 0,
					"fontname" : "Calibri",
					"fontsize" : 11.0,
					"frgb" : 0.0,
					"hidden" : 0,
					"id" : "obj-99",
					"ignoreclick" : 1,
					"maxclass" : "comment",
					"numinlets" : 1,
					"numoutlets" : 0,
					"patching_rect" : [ 742.666748, 504.224548, 33.0, 20.0 ],
					"presentation" : 0,
					"presentation_rect" : [ 0.0, 0.0, 0.0, 0.0 ],
					"text" : "Xf1",
					"textcolor" : [ 1.0, 0.568627, 0.376471, 1.0 ],
					"underline" : 0
				}

			}
, 			{
				"box" : 				{
					"background" : 0,
					"comment" : "float: Yf1",
					"hidden" : 0,
					"id" : "obj-26",
					"ignoreclick" : 0,
					"maxclass" : "outlet",
					"numinlets" : 1,
					"numoutlets" : 0,
					"patching_rect" : [ 788.708374, 477.224548, 25.0, 25.0 ],
					"presentation" : 0,
					"presentation_rect" : [ 0.0, 0.0, 0.0, 0.0 ]
				}

			}
, 			{
				"box" : 				{
					"background" : 0,
					"comment" : "float: Xf1",
					"hidden" : 0,
					"id" : "obj-27",
					"ignoreclick" : 0,
					"maxclass" : "outlet",
					"numinlets" : 1,
					"numoutlets" : 0,
					"patching_rect" : [ 742.666748, 477.224548, 25.0, 25.0 ],
					"presentation" : 0,
					"presentation_rect" : [ 0.0, 0.0, 0.0, 0.0 ]
				}

			}
, 			{
				"box" : 				{
					"background" : 0,
					"bgcolor" : [ 1.0, 1.0, 1.0, 0.0 ],
					"bubble" : 0,
					"bubblepoint" : 0.5,
					"bubbleside" : 1,
					"bubbletextmargin" : 5,
					"fontface" : 0,
					"fontname" : "Calibri",
					"fontsize" : 11.0,
					"frgb" : 0.0,
					"hidden" : 0,
					"id" : "obj-28",
					"ignoreclick" : 1,
					"maxclass" : "comment",
					"numinlets" : 1,
					"numoutlets" : 0,
					"patching_rect" : [ 2032.91687, 504.224548, 70.0, 20.0 ],
					"presentation" : 0,
					"presentation_rect" : [ 0.0, 0.0, 0.0, 0.0 ],
					"text" : "Finger count",
					"textcolor" : [ 1.0, 0.568627, 0.376471, 1.0 ],
					"underline" : 0
				}

			}
, 			{
				"box" : 				{
					"background" : 0,
					"bgcolor" : [ 1.0, 1.0, 1.0, 1.0 ],
					"bordercolor" : [ 0.5, 0.5, 0.5, 1.0 ],
					"cantchange" : 0,
					"fontface" : 0,
					"fontname" : "Calibri",
					"fontsize" : 11.0,
					"format" : 0,
					"hbgcolor" : [ 0.0, 0.0, 0.0, 1.0 ],
					"hidden" : 0,
					"htextcolor" : [ 1.0, 1.0, 1.0, 1.0 ],
					"htricolor" : [ 0.87, 0.82, 0.24, 1.0 ],
					"id" : "obj-78",
					"ignoreclick" : 1,
					"maxclass" : "number",
					"maximum" : "<none>",
					"minimum" : "<none>",
					"mouseup" : 0,
					"numinlets" : 1,
					"numoutlets" : 2,
					"outlettype" : [ "int", "bang" ],
					"outputonclick" : 0,
					"parameter_enable" : 0,
					"patching_rect" : [ 2032.91687, 454.224548, 44.0, 20.0 ],
					"presentation" : 0,
					"presentation_rect" : [ 0.0, 0.0, 0.0, 0.0 ],
					"textcolor" : [ 0.0, 0.0, 0.0, 1.0 ],
					"triangle" : 1,
					"tricolor" : [ 0.75, 0.75, 0.75, 1.0 ],
					"triscale" : 1.0
				}

			}
, 			{
				"box" : 				{
					"background" : 0,
					"comment" : "int: finger count",
					"hidden" : 0,
					"id" : "obj-30",
					"ignoreclick" : 0,
					"maxclass" : "outlet",
					"numinlets" : 1,
					"numoutlets" : 0,
					"patching_rect" : [ 2032.91687, 475.724548, 25.0, 25.0 ],
					"presentation" : 0,
					"presentation_rect" : [ 0.0, 0.0, 0.0, 0.0 ]
				}

			}
, 			{
				"box" : 				{
					"background" : 0,
					"bgcolor" : [ 1.0, 1.0, 1.0, 0.0 ],
					"bubble" : 0,
					"bubblepoint" : 0.5,
					"bubbleside" : 1,
					"bubbletextmargin" : 5,
					"fontface" : 0,
					"fontname" : "Calibri",
					"fontsize" : 11.0,
					"frgb" : 0.0,
					"hidden" : 0,
					"id" : "obj-31",
					"ignoreclick" : 1,
					"maxclass" : "comment",
					"numinlets" : 1,
					"numoutlets" : 0,
					"patching_rect" : [ 655.583374, 504.224548, 53.416687, 20.0 ],
					"presentation" : 0,
					"presentation_rect" : [ 0.0, 0.0, 0.0, 0.0 ],
					"text" : "Finger ID",
					"textcolor" : [ 1.0, 0.568627, 0.376471, 1.0 ],
					"underline" : 0
				}

			}
, 			{
				"box" : 				{
					"background" : 0,
					"bgcolor" : [ 1.0, 1.0, 1.0, 1.0 ],
					"bordercolor" : [ 0.5, 0.5, 0.5, 1.0 ],
					"cantchange" : 0,
					"fontface" : 0,
					"fontname" : "Calibri",
					"fontsize" : 11.0,
					"format" : 0,
					"hbgcolor" : [ 0.0, 0.0, 0.0, 1.0 ],
					"hidden" : 0,
					"htextcolor" : [ 1.0, 1.0, 1.0, 1.0 ],
					"htricolor" : [ 0.87, 0.82, 0.24, 1.0 ],
					"id" : "obj-55",
					"ignoreclick" : 1,
					"maxclass" : "number",
					"maximum" : "<none>",
					"minimum" : "<none>",
					"mouseup" : 0,
					"numinlets" : 1,
					"numoutlets" : 2,
					"outlettype" : [ "int", "bang" ],
					"outputonclick" : 0,
					"parameter_enable" : 0,
					"patching_rect" : [ 655.583374, 454.224548, 44.0, 20.0 ],
					"presentation" : 0,
					"presentation_rect" : [ 0.0, 0.0, 0.0, 0.0 ],
					"textcolor" : [ 0.0, 0.0, 0.0, 1.0 ],
					"triangle" : 1,
					"tricolor" : [ 0.75, 0.75, 0.75, 1.0 ],
					"triscale" : 1.0
				}

			}
, 			{
				"box" : 				{
					"background" : 0,
					"comment" : "int: finger ID",
					"hidden" : 0,
					"id" : "obj-32",
					"ignoreclick" : 0,
					"maxclass" : "outlet",
					"numinlets" : 1,
					"numoutlets" : 0,
					"patching_rect" : [ 655.583374, 475.724548, 25.0, 25.0 ],
					"presentation" : 0,
					"presentation_rect" : [ 0.0, 0.0, 0.0, 0.0 ]
				}

			}
, 			{
				"box" : 				{
					"background" : 0,
					"bgcolor" : [ 1.0, 1.0, 1.0, 0.0 ],
					"bubble" : 0,
					"bubblepoint" : 0.5,
					"bubbleside" : 1,
					"bubbletextmargin" : 5,
					"fontface" : 0,
					"fontname" : "Calibri",
					"fontsize" : 11.0,
					"frgb" : 0.0,
					"hidden" : 0,
					"id" : "obj-33",
					"ignoreclick" : 1,
					"maxclass" : "comment",
					"numinlets" : 1,
					"numoutlets" : 0,
					"patching_rect" : [ 401.333405, 504.224548, 28.0, 20.0 ],
					"presentation" : 0,
					"presentation_rect" : [ 0.0, 0.0, 0.0, 0.0 ],
					"text" : "Ttilt",
					"textcolor" : [ 1.0, 0.568627, 0.376471, 1.0 ],
					"underline" : 0
				}

			}
, 			{
				"box" : 				{
					"background" : 0,
					"bgcolor" : [ 1.0, 1.0, 1.0, 1.0 ],
					"bordercolor" : [ 0.5, 0.5, 0.5, 1.0 ],
					"cantchange" : 0,
					"fontface" : 0,
					"fontname" : "Calibri",
					"fontsize" : 11.0,
					"hbgcolor" : [ 0.0, 0.0, 0.0, 1.0 ],
					"hidden" : 0,
					"htextcolor" : [ 1.0, 1.0, 1.0, 1.0 ],
					"htricolor" : [ 0.87, 0.82, 0.24, 1.0 ],
					"id" : "obj-46",
					"ignoreclick" : 1,
					"maxclass" : "flonum",
					"maximum" : "<none>",
					"minimum" : "<none>",
					"mouseup" : 0,
					"numdecimalplaces" : 0,
					"numinlets" : 1,
					"numoutlets" : 2,
					"outlettype" : [ "float", "bang" ],
					"outputonclick" : 0,
					"parameter_enable" : 0,
					"patching_rect" : [ 397.333405, 454.224548, 38.0, 20.0 ],
					"presentation" : 0,
					"presentation_rect" : [ 0.0, 0.0, 0.0, 0.0 ],
					"textcolor" : [ 0.0, 0.0, 0.0, 1.0 ],
					"triangle" : 1,
					"tricolor" : [ 0.75, 0.75, 0.75, 1.0 ],
					"triscale" : 1.0
				}

			}
, 			{
				"box" : 				{
					"background" : 0,
					"bgcolor" : [ 1.0, 1.0, 1.0, 1.0 ],
					"bordercolor" : [ 0.5, 0.5, 0.5, 1.0 ],
					"cantchange" : 0,
					"fontface" : 0,
					"fontname" : "Calibri",
					"fontsize" : 11.0,
					"hbgcolor" : [ 0.0, 0.0, 0.0, 1.0 ],
					"hidden" : 0,
					"htextcolor" : [ 1.0, 1.0, 1.0, 1.0 ],
					"htricolor" : [ 0.87, 0.82, 0.24, 1.0 ],
					"id" : "obj-48",
					"ignoreclick" : 1,
					"maxclass" : "flonum",
					"maximum" : "<none>",
					"minimum" : "<none>",
					"mouseup" : 0,
					"numdecimalplaces" : 0,
					"numinlets" : 1,
					"numoutlets" : 2,
					"outlettype" : [ "float", "bang" ],
					"outputonclick" : 0,
					"parameter_enable" : 0,
					"patching_rect" : [ 354.291718, 454.224548, 38.0, 20.0 ],
					"presentation" : 0,
					"presentation_rect" : [ 0.0, 0.0, 0.0, 0.0 ],
					"textcolor" : [ 0.0, 0.0, 0.0, 1.0 ],
					"triangle" : 1,
					"tricolor" : [ 0.75, 0.75, 0.75, 1.0 ],
					"triscale" : 1.0
				}

			}
, 			{
				"box" : 				{
					"background" : 0,
					"comment" : "float: Ttilt stylus",
					"hidden" : 0,
					"id" : "obj-34",
					"ignoreclick" : 0,
					"maxclass" : "outlet",
					"numinlets" : 1,
					"numoutlets" : 0,
					"patching_rect" : [ 401.333405, 477.224548, 25.0, 25.0 ],
					"presentation" : 0,
					"presentation_rect" : [ 0.0, 0.0, 0.0, 0.0 ]
				}

			}
, 			{
				"box" : 				{
					"background" : 0,
					"bgcolor" : [ 1.0, 1.0, 1.0, 0.0 ],
					"bubble" : 0,
					"bubblepoint" : 0.5,
					"bubbleside" : 1,
					"bubbletextmargin" : 5,
					"fontface" : 0,
					"fontname" : "Calibri",
					"fontsize" : 11.0,
					"frgb" : 0.0,
					"hidden" : 0,
					"id" : "obj-39",
					"ignoreclick" : 1,
					"maxclass" : "comment",
					"numinlets" : 1,
					"numoutlets" : 0,
					"patching_rect" : [ 354.291718, 504.224548, 28.0, 20.0 ],
					"presentation" : 0,
					"presentation_rect" : [ 0.0, 0.0, 0.0, 0.0 ],
					"text" : "Rtilt",
					"textcolor" : [ 1.0, 0.568627, 0.376471, 1.0 ],
					"underline" : 0
				}

			}
, 			{
				"box" : 				{
					"background" : 0,
					"comment" : "float: Rtilt stylus",
					"hidden" : 0,
					"id" : "obj-40",
					"ignoreclick" : 0,
					"maxclass" : "outlet",
					"numinlets" : 1,
					"numoutlets" : 0,
					"patching_rect" : [ 354.291718, 477.224548, 25.0, 25.0 ],
					"presentation" : 0,
					"presentation_rect" : [ 0.0, 0.0, 0.0, 0.0 ]
				}

			}
, 			{
				"box" : 				{
					"background" : 0,
					"bgcolor" : [ 1.0, 1.0, 1.0, 0.0 ],
					"bubble" : 0,
					"bubblepoint" : 0.5,
					"bubbleside" : 1,
					"bubbletextmargin" : 5,
					"fontface" : 0,
					"fontname" : "Calibri",
					"fontsize" : 11.0,
					"frgb" : 0.0,
					"hidden" : 0,
					"id" : "obj-41",
					"ignoreclick" : 1,
					"maxclass" : "comment",
					"numinlets" : 1,
					"numoutlets" : 0,
					"patching_rect" : [ 315.250092, 504.224548, 28.0, 20.0 ],
					"presentation" : 0,
					"presentation_rect" : [ 0.0, 0.0, 0.0, 0.0 ],
					"text" : "Ytilt",
					"textcolor" : [ 1.0, 0.568627, 0.376471, 1.0 ],
					"underline" : 0
				}

			}
, 			{
				"box" : 				{
					"background" : 0,
					"bgcolor" : [ 1.0, 1.0, 1.0, 1.0 ],
					"bordercolor" : [ 0.5, 0.5, 0.5, 1.0 ],
					"cantchange" : 0,
					"fontface" : 0,
					"fontname" : "Calibri",
					"fontsize" : 11.0,
					"hbgcolor" : [ 0.0, 0.0, 0.0, 1.0 ],
					"hidden" : 0,
					"htextcolor" : [ 1.0, 1.0, 1.0, 1.0 ],
					"htricolor" : [ 0.87, 0.82, 0.24, 1.0 ],
					"id" : "obj-42",
					"ignoreclick" : 1,
					"maxclass" : "flonum",
					"maximum" : "<none>",
					"minimum" : "<none>",
					"mouseup" : 0,
					"numdecimalplaces" : 0,
					"numinlets" : 1,
					"numoutlets" : 2,
					"outlettype" : [ "float", "bang" ],
					"outputonclick" : 0,
					"parameter_enable" : 0,
					"patching_rect" : [ 311.250092, 454.224548, 38.0, 20.0 ],
					"presentation" : 0,
					"presentation_rect" : [ 0.0, 0.0, 0.0, 0.0 ],
					"textcolor" : [ 0.0, 0.0, 0.0, 1.0 ],
					"triangle" : 1,
					"tricolor" : [ 0.75, 0.75, 0.75, 1.0 ],
					"triscale" : 1.0
				}

			}
, 			{
				"box" : 				{
					"background" : 0,
					"bgcolor" : [ 1.0, 1.0, 1.0, 1.0 ],
					"bordercolor" : [ 0.5, 0.5, 0.5, 1.0 ],
					"cantchange" : 0,
					"fontface" : 0,
					"fontname" : "Calibri",
					"fontsize" : 11.0,
					"hbgcolor" : [ 0.0, 0.0, 0.0, 1.0 ],
					"hidden" : 0,
					"htextcolor" : [ 1.0, 1.0, 1.0, 1.0 ],
					"htricolor" : [ 0.87, 0.82, 0.24, 1.0 ],
					"id" : "obj-43",
					"ignoreclick" : 1,
					"maxclass" : "flonum",
					"maximum" : "<none>",
					"minimum" : "<none>",
					"mouseup" : 0,
					"numdecimalplaces" : 0,
					"numinlets" : 1,
					"numoutlets" : 2,
					"outlettype" : [ "float", "bang" ],
					"outputonclick" : 0,
					"parameter_enable" : 0,
					"patching_rect" : [ 268.208405, 454.224548, 38.0, 20.0 ],
					"presentation" : 0,
					"presentation_rect" : [ 0.0, 0.0, 0.0, 0.0 ],
					"textcolor" : [ 0.0, 0.0, 0.0, 1.0 ],
					"triangle" : 1,
					"tricolor" : [ 0.75, 0.75, 0.75, 1.0 ],
					"triscale" : 1.0
				}

			}
, 			{
				"box" : 				{
					"background" : 0,
					"comment" : "float: Ytilt stylus",
					"hidden" : 0,
					"id" : "obj-49",
					"ignoreclick" : 0,
					"maxclass" : "outlet",
					"numinlets" : 1,
					"numoutlets" : 0,
					"patching_rect" : [ 315.250092, 477.224548, 25.0, 25.0 ],
					"presentation" : 0,
					"presentation_rect" : [ 0.0, 0.0, 0.0, 0.0 ]
				}

			}
, 			{
				"box" : 				{
					"background" : 0,
					"bgcolor" : [ 1.0, 1.0, 1.0, 0.0 ],
					"bubble" : 0,
					"bubblepoint" : 0.5,
					"bubbleside" : 1,
					"bubbletextmargin" : 5,
					"fontface" : 0,
					"fontname" : "Calibri",
					"fontsize" : 11.0,
					"frgb" : 0.0,
					"hidden" : 0,
					"id" : "obj-50",
					"ignoreclick" : 1,
					"maxclass" : "comment",
					"numinlets" : 1,
					"numoutlets" : 0,
					"patching_rect" : [ 182.125076, 504.224548, 42.0, 20.0 ],
					"presentation" : 0,
					"presentation_rect" : [ 0.0, 0.0, 0.0, 0.0 ],
					"text" : "Yspeed",
					"textcolor" : [ 1.0, 0.568627, 0.376471, 1.0 ],
					"underline" : 0
				}

			}
, 			{
				"box" : 				{
					"background" : 0,
					"bgcolor" : [ 1.0, 1.0, 1.0, 0.0 ],
					"bubble" : 0,
					"bubblepoint" : 0.5,
					"bubbleside" : 1,
					"bubbletextmargin" : 5,
					"fontface" : 0,
					"fontname" : "Calibri",
					"fontsize" : 11.0,
					"frgb" : 0.0,
					"hidden" : 0,
					"id" : "obj-57",
					"ignoreclick" : 1,
					"maxclass" : "comment",
					"numinlets" : 1,
					"numoutlets" : 0,
					"patching_rect" : [ 139.083405, 504.224548, 43.0, 20.0 ],
					"presentation" : 0,
					"presentation_rect" : [ 0.0, 0.0, 0.0, 0.0 ],
					"text" : "Xspeed",
					"textcolor" : [ 1.0, 0.568627, 0.376471, 1.0 ],
					"underline" : 0
				}

			}
, 			{
				"box" : 				{
					"background" : 0,
					"comment" : "float: dYs",
					"hidden" : 0,
					"id" : "obj-58",
					"ignoreclick" : 0,
					"maxclass" : "outlet",
					"numinlets" : 1,
					"numoutlets" : 0,
					"patching_rect" : [ 182.125076, 477.224548, 25.0, 25.0 ],
					"presentation" : 0,
					"presentation_rect" : [ 0.0, 0.0, 0.0, 0.0 ]
				}

			}
, 			{
				"box" : 				{
					"background" : 0,
					"comment" : "float: dXs",
					"hidden" : 0,
					"id" : "obj-59",
					"ignoreclick" : 0,
					"maxclass" : "outlet",
					"numinlets" : 1,
					"numoutlets" : 0,
					"patching_rect" : [ 139.083405, 477.224548, 25.0, 25.0 ],
					"presentation" : 0,
					"presentation_rect" : [ 0.0, 0.0, 0.0, 0.0 ]
				}

			}
, 			{
				"box" : 				{
					"background" : 0,
					"bgcolor" : [ 1.0, 1.0, 1.0, 1.0 ],
					"bordercolor" : [ 0.5, 0.5, 0.5, 1.0 ],
					"cantchange" : 0,
					"fontface" : 0,
					"fontname" : "Calibri",
					"fontsize" : 11.0,
					"hbgcolor" : [ 0.0, 0.0, 0.0, 1.0 ],
					"hidden" : 0,
					"htextcolor" : [ 1.0, 1.0, 1.0, 1.0 ],
					"htricolor" : [ 0.87, 0.82, 0.24, 1.0 ],
					"id" : "obj-60",
					"ignoreclick" : 1,
					"maxclass" : "flonum",
					"maximum" : "<none>",
					"minimum" : "<none>",
					"mouseup" : 0,
					"numdecimalplaces" : 0,
					"numinlets" : 1,
					"numoutlets" : 2,
					"outlettype" : [ "float", "bang" ],
					"outputonclick" : 0,
					"parameter_enable" : 0,
					"patching_rect" : [ 225.166763, 454.224548, 35.0, 20.0 ],
					"presentation" : 0,
					"presentation_rect" : [ 0.0, 0.0, 0.0, 0.0 ],
					"textcolor" : [ 0.0, 0.0, 0.0, 1.0 ],
					"triangle" : 1,
					"tricolor" : [ 0.75, 0.75, 0.75, 1.0 ],
					"triscale" : 1.0
				}

			}
, 			{
				"box" : 				{
					"background" : 0,
					"bgcolor" : [ 1.0, 1.0, 1.0, 0.0 ],
					"bubble" : 0,
					"bubblepoint" : 0.5,
					"bubbleside" : 1,
					"bubbletextmargin" : 5,
					"fontface" : 0,
					"fontname" : "Calibri",
					"fontsize" : 11.0,
					"frgb" : 0.0,
					"hidden" : 0,
					"id" : "obj-61",
					"ignoreclick" : 1,
					"maxclass" : "comment",
					"numinlets" : 1,
					"numoutlets" : 0,
					"patching_rect" : [ 440.375092, 504.224548, 71.0, 20.0 ],
					"presentation" : 0,
					"presentation_rect" : [ 0.0, 0.0, 0.0, 0.0 ],
					"text" : "Button flags",
					"textcolor" : [ 1.0, 0.568627, 0.376471, 1.0 ],
					"underline" : 0
				}

			}
, 			{
				"box" : 				{
					"background" : 0,
					"bgcolor" : [ 1.0, 1.0, 1.0, 1.0 ],
					"bordercolor" : [ 0.5, 0.5, 0.5, 1.0 ],
					"cantchange" : 0,
					"fontface" : 0,
					"fontname" : "Calibri",
					"fontsize" : 11.0,
					"format" : 0,
					"hbgcolor" : [ 0.0, 0.0, 0.0, 1.0 ],
					"hidden" : 0,
					"htextcolor" : [ 1.0, 1.0, 1.0, 1.0 ],
					"htricolor" : [ 0.87, 0.82, 0.24, 1.0 ],
					"id" : "obj-62",
					"ignoreclick" : 1,
					"maxclass" : "number",
					"maximum" : "<none>",
					"minimum" : "<none>",
					"mouseup" : 0,
					"numinlets" : 1,
					"numoutlets" : 2,
					"outlettype" : [ "int", "bang" ],
					"outputonclick" : 0,
					"parameter_enable" : 0,
					"patching_rect" : [ 440.375092, 454.224548, 38.0, 20.0 ],
					"presentation" : 0,
					"presentation_rect" : [ 0.0, 0.0, 0.0, 0.0 ],
					"textcolor" : [ 0.0, 0.0, 0.0, 1.0 ],
					"triangle" : 1,
					"tricolor" : [ 0.75, 0.75, 0.75, 1.0 ],
					"triscale" : 1.0
				}

			}
, 			{
				"box" : 				{
					"background" : 0,
					"bgcolor" : [ 1.0, 1.0, 1.0, 1.0 ],
					"bordercolor" : [ 0.5, 0.5, 0.5, 1.0 ],
					"cantchange" : 0,
					"fontface" : 0,
					"fontname" : "Calibri",
					"fontsize" : 11.0,
					"hbgcolor" : [ 0.0, 0.0, 0.0, 1.0 ],
					"hidden" : 0,
					"htextcolor" : [ 1.0, 1.0, 1.0, 1.0 ],
					"htricolor" : [ 0.87, 0.82, 0.24, 1.0 ],
					"id" : "obj-64",
					"ignoreclick" : 1,
					"maxclass" : "flonum",
					"maximum" : "<none>",
					"minimum" : "<none>",
					"mouseup" : 0,
					"numdecimalplaces" : 0,
					"numinlets" : 1,
					"numoutlets" : 2,
					"outlettype" : [ "float", "bang" ],
					"outputonclick" : 0,
					"parameter_enable" : 0,
					"patching_rect" : [ 96.041748, 454.224548, 38.0, 20.0 ],
					"presentation" : 0,
					"presentation_rect" : [ 0.0, 0.0, 0.0, 0.0 ],
					"textcolor" : [ 0.0, 0.0, 0.0, 1.0 ],
					"triangle" : 1,
					"tricolor" : [ 0.75, 0.75, 0.75, 1.0 ],
					"triscale" : 1.0
				}

			}
, 			{
				"box" : 				{
					"background" : 0,
					"bgcolor" : [ 1.0, 1.0, 1.0, 1.0 ],
					"bordercolor" : [ 0.5, 0.5, 0.5, 1.0 ],
					"cantchange" : 0,
					"fontface" : 0,
					"fontname" : "Calibri",
					"fontsize" : 11.0,
					"hbgcolor" : [ 0.0, 0.0, 0.0, 1.0 ],
					"hidden" : 0,
					"htextcolor" : [ 1.0, 1.0, 1.0, 1.0 ],
					"htricolor" : [ 0.87, 0.82, 0.24, 1.0 ],
					"id" : "obj-65",
					"ignoreclick" : 1,
					"maxclass" : "flonum",
					"maximum" : "<none>",
					"minimum" : "<none>",
					"mouseup" : 0,
					"numdecimalplaces" : 0,
					"numinlets" : 1,
					"numoutlets" : 2,
					"outlettype" : [ "float", "bang" ],
					"outputonclick" : 0,
					"parameter_enable" : 0,
					"patching_rect" : [ 53.000076, 454.224548, 38.0, 20.0 ],
					"presentation" : 0,
					"presentation_rect" : [ 0.0, 0.0, 0.0, 0.0 ],
					"textcolor" : [ 0.0, 0.0, 0.0, 1.0 ],
					"triangle" : 1,
					"tricolor" : [ 0.75, 0.75, 0.75, 1.0 ],
					"triscale" : 1.0
				}

			}
, 			{
				"box" : 				{
					"background" : 0,
					"bgcolor" : [ 1.0, 1.0, 1.0, 0.0 ],
					"bubble" : 0,
					"bubblepoint" : 0.5,
					"bubbleside" : 1,
					"bubbletextmargin" : 5,
					"fontface" : 0,
					"fontname" : "Calibri",
					"fontsize" : 11.0,
					"frgb" : 0.0,
					"hidden" : 0,
					"id" : "obj-66",
					"ignoreclick" : 1,
					"maxclass" : "comment",
					"numinlets" : 1,
					"numoutlets" : 0,
					"patching_rect" : [ 268.208405, 504.224548, 29.0, 20.0 ],
					"presentation" : 0,
					"presentation_rect" : [ 0.0, 0.0, 0.0, 0.0 ],
					"text" : "Xtilt",
					"textcolor" : [ 1.0, 0.568627, 0.376471, 1.0 ],
					"underline" : 0
				}

			}
, 			{
				"box" : 				{
					"background" : 0,
					"comment" : "float: Xtilt stylus",
					"hidden" : 0,
					"id" : "obj-67",
					"ignoreclick" : 0,
					"maxclass" : "outlet",
					"numinlets" : 1,
					"numoutlets" : 0,
					"patching_rect" : [ 268.208405, 477.224548, 25.0, 25.0 ],
					"presentation" : 0,
					"presentation_rect" : [ 0.0, 0.0, 0.0, 0.0 ]
				}

			}
, 			{
				"box" : 				{
					"background" : 0,
					"bgcolor" : [ 1.0, 1.0, 1.0, 0.0 ],
					"bubble" : 0,
					"bubblepoint" : 0.5,
					"bubbleside" : 1,
					"bubbletextmargin" : 5,
					"fontface" : 0,
					"fontname" : "Calibri",
					"fontsize" : 11.0,
					"frgb" : 0.0,
					"hidden" : 0,
					"id" : "obj-68",
					"ignoreclick" : 1,
					"maxclass" : "comment",
					"numinlets" : 1,
					"numoutlets" : 0,
					"patching_rect" : [ 100.041748, 504.224548, 34.0, 20.0 ],
					"presentation" : 0,
					"presentation_rect" : [ 0.0, 0.0, 0.0, 0.0 ],
					"text" : "Ys",
					"textcolor" : [ 1.0, 0.568627, 0.376471, 1.0 ],
					"underline" : 0
				}

			}
, 			{
				"box" : 				{
					"background" : 0,
					"comment" : "float: P stylus",
					"hidden" : 0,
					"id" : "obj-69",
					"ignoreclick" : 0,
					"maxclass" : "outlet",
					"numinlets" : 1,
					"numoutlets" : 0,
					"patching_rect" : [ 225.166763, 477.224548, 25.0, 25.0 ],
					"presentation" : 0,
					"presentation_rect" : [ 0.0, 0.0, 0.0, 0.0 ]
				}

			}
, 			{
				"box" : 				{
					"background" : 0,
					"bgcolor" : [ 1.0, 1.0, 1.0, 0.0 ],
					"bubble" : 0,
					"bubblepoint" : 0.5,
					"bubbleside" : 1,
					"bubbletextmargin" : 5,
					"fontface" : 0,
					"fontname" : "Calibri",
					"fontsize" : 11.0,
					"frgb" : 0.0,
					"hidden" : 0,
					"id" : "obj-70",
					"ignoreclick" : 1,
					"maxclass" : "comment",
					"numinlets" : 1,
					"numoutlets" : 0,
					"patching_rect" : [ 225.166763, 504.224548, 49.0, 20.0 ],
					"presentation" : 0,
					"presentation_rect" : [ 0.0, 0.0, 0.0, 0.0 ],
					"text" : "pressure",
					"textcolor" : [ 1.0, 0.568627, 0.376471, 1.0 ],
					"underline" : 0
				}

			}
, 			{
				"box" : 				{
					"background" : 0,
					"bgcolor" : [ 1.0, 1.0, 1.0, 0.0 ],
					"bubble" : 0,
					"bubblepoint" : 0.5,
					"bubbleside" : 1,
					"bubbletextmargin" : 5,
					"fontface" : 0,
					"fontname" : "Calibri",
					"fontsize" : 11.0,
					"frgb" : 0.0,
					"hidden" : 0,
					"id" : "obj-71",
					"ignoreclick" : 1,
					"maxclass" : "comment",
					"numinlets" : 1,
					"numoutlets" : 0,
					"patching_rect" : [ 54.000076, 504.224548, 34.0, 20.0 ],
					"presentation" : 0,
					"presentation_rect" : [ 0.0, 0.0, 0.0, 0.0 ],
					"text" : "Xs",
					"textcolor" : [ 1.0, 0.568627, 0.376471, 1.0 ],
					"underline" : 0
				}

			}
, 			{
				"box" : 				{
					"background" : 0,
					"comment" : "int: buttons stylus",
					"hidden" : 0,
					"id" : "obj-72",
					"ignoreclick" : 0,
					"maxclass" : "outlet",
					"numinlets" : 1,
					"numoutlets" : 0,
					"patching_rect" : [ 440.375092, 475.724548, 25.0, 25.0 ],
					"presentation" : 0,
					"presentation_rect" : [ 0.0, 0.0, 0.0, 0.0 ]
				}

			}
, 			{
				"box" : 				{
					"background" : 0,
					"comment" : "float: Ys",
					"hidden" : 0,
					"id" : "obj-73",
					"ignoreclick" : 0,
					"maxclass" : "outlet",
					"numinlets" : 1,
					"numoutlets" : 0,
					"patching_rect" : [ 96.041748, 477.224548, 25.0, 25.0 ],
					"presentation" : 0,
					"presentation_rect" : [ 0.0, 0.0, 0.0, 0.0 ]
				}

			}
, 			{
				"box" : 				{
					"background" : 0,
					"comment" : "float: Xs",
					"hidden" : 0,
					"id" : "obj-74",
					"ignoreclick" : 0,
					"maxclass" : "outlet",
					"numinlets" : 1,
					"numoutlets" : 0,
					"patching_rect" : [ 54.000076, 477.224548, 25.0, 25.0 ],
					"presentation" : 0,
					"presentation_rect" : [ 0.0, 0.0, 0.0, 0.0 ]
				}

			}
, 			{
				"box" : 				{
					"active" : 1,
					"align" : 1,
					"background" : 0,
					"bgcolor" : [ 0.901961, 0.901961, 0.901961, 1.0 ],
					"bgoncolor" : [ 0.962611, 0.546596, 0.264572, 1.0 ],
					"bgovercolor" : [ 1.0, 1.0, 1.0, 0.7 ],
					"bgoveroncolor" : [ 0.5, 0.5, 0.5, 1.0 ],
					"blinktime" : 150,
					"border" : 2,
					"bordercolor" : [ 0.846105, 0.425224, 0.173175, 1.0 ],
					"borderoncolor" : [ 0.847059, 0.423529, 0.172549, 1.0 ],
					"fontface" : 1,
					"fontlink" : 0,
					"fontname" : "Calibri",
					"fontsize" : 16.0,
					"hidden" : 0,
					"id" : "obj-227",
					"ignoreclick" : 0,
					"maxclass" : "textbutton",
					"mode" : 0,
					"numinlets" : 1,
					"numoutlets" : 3,
					"outlettype" : [ "", "", "int" ],
					"outputmode" : 1,
					"parameter_enable" : 0,
					"patching_rect" : [ 461.250031, 319.615234, 136.0, 19.110107 ],
					"presentation" : 1,
					"presentation_rect" : [ 194.0, 117.0, 144.0, 30.0 ],
					"rounded" : 14.0,
					"spacing_x" : 4.0,
					"spacing_y" : 4.0,
					"text" : "Record/Play Data",
					"textcolor" : [ 0.15, 0.15, 0.15, 1.0 ],
					"texton" : "Button On",
					"textoncolor" : [ 1.0, 1.0, 1.0, 1.0 ],
					"textovercolor" : [ 0.1, 0.1, 0.1, 1.0 ],
					"textoveroncolor" : [ 0.9, 0.9, 0.9, 1.0 ],
					"tosymbol" : 1,
					"truncate" : 1,
					"underline" : 0
				}

			}
, 			{
				"box" : 				{
					"background" : 0,
					"bgcolor" : [ 0.867, 0.867, 0.867, 1.0 ],
					"bgcolor2" : [ 0.867, 0.867, 0.867, 1.0 ],
					"fontface" : 0,
					"fontname" : "Calibri",
					"fontsize" : 11.0,
					"gradient" : 0,
					"hidden" : 0,
					"id" : "obj-228",
					"ignoreclick" : 0,
					"maxclass" : "message",
					"numinlets" : 2,
					"numoutlets" : 1,
					"outlettype" : [ "" ],
					"patching_rect" : [ 461.250031, 343.798279, 34.0, 18.0 ],
					"presentation" : 0,
					"presentation_rect" : [ 0.0, 0.0, 0.0, 0.0 ],
					"text" : "open",
					"textcolor" : [ 0.0, 0.0, 0.0, 1.0 ]
				}

			}
, 			{
				"box" : 				{
					"background" : 0,
					"bgcolor" : [ 1.0, 1.0, 1.0, 1.0 ],
					"color" : [ 0.8, 0.84, 0.71, 1.0 ],
					"fontface" : 0,
					"fontname" : "Calibri",
					"fontsize" : 11.0,
					"hidden" : 0,
					"id" : "obj-229",
					"ignoreclick" : 0,
					"maxclass" : "newobj",
					"numinlets" : 1,
					"numoutlets" : 1,
					"outlettype" : [ "" ],
					"patching_rect" : [ 461.250031, 364.489075, 49.0, 20.0 ],
					"presentation" : 0,
					"presentation_rect" : [ 0.0, 0.0, 0.0, 0.0 ],
					"text" : "pcontrol",
					"textcolor" : [ 0.0, 0.0, 0.0, 1.0 ]
				}

			}
, 			{
				"box" : 				{
					"active" : 1,
					"align" : 1,
					"background" : 0,
					"bgcolor" : [ 0.901961, 0.901961, 0.901961, 1.0 ],
					"bgoncolor" : [ 0.55, 0.55, 0.55, 1.0 ],
					"bgovercolor" : [ 1.0, 1.0, 1.0, 1.0 ],
					"bgoveroncolor" : [ 0.5, 0.5, 0.5, 1.0 ],
					"blinktime" : 150,
					"border" : 2,
					"bordercolor" : [ 0.776861, 0.377081, 0.162285, 1.0 ],
					"borderoncolor" : [ 0.4, 0.4, 0.4, 1.0 ],
					"fontface" : 1,
					"fontlink" : 0,
					"fontname" : "Calibri",
					"fontsize" : 16.0,
					"hidden" : 0,
					"id" : "obj-209",
					"ignoreclick" : 0,
					"maxclass" : "textbutton",
					"mode" : 0,
					"numinlets" : 1,
					"numoutlets" : 3,
					"outlettype" : [ "", "", "int" ],
					"outputmode" : 1,
					"parameter_enable" : 0,
					"patching_rect" : [ 53.0, 182.0, 111.083405, 28.0 ],
					"presentation" : 1,
					"presentation_rect" : [ 29.0, 117.0, 144.0, 30.0 ],
					"rounded" : 14.0,
					"spacing_x" : 4.0,
					"spacing_y" : 4.0,
					"text" : "Display values",
					"textcolor" : [ 0.15, 0.15, 0.15, 1.0 ],
					"texton" : "Button On",
					"textoncolor" : [ 1.0, 1.0, 1.0, 1.0 ],
					"textovercolor" : [ 0.1, 0.1, 0.1, 1.0 ],
					"textoveroncolor" : [ 0.9, 0.9, 0.9, 1.0 ],
					"tosymbol" : 1,
					"truncate" : 1,
					"underline" : 0
				}

			}
, 			{
				"box" : 				{
					"background" : 0,
					"bgcolor" : [ 0.867, 0.867, 0.867, 1.0 ],
					"bgcolor2" : [ 0.867, 0.867, 0.867, 1.0 ],
					"fontface" : 0,
					"fontname" : "Calibri",
					"fontsize" : 11.0,
					"gradient" : 0,
					"hidden" : 0,
					"id" : "obj-208",
					"ignoreclick" : 0,
					"maxclass" : "message",
					"numinlets" : 2,
					"numoutlets" : 1,
					"outlettype" : [ "" ],
					"patching_rect" : [ 53.0, 215.224548, 34.0, 18.0 ],
					"presentation" : 0,
					"presentation_rect" : [ 0.0, 0.0, 0.0, 0.0 ],
					"text" : "open",
					"textcolor" : [ 0.0, 0.0, 0.0, 1.0 ]
				}

			}
, 			{
				"box" : 				{
					"background" : 0,
					"bgcolor" : [ 1.0, 1.0, 1.0, 1.0 ],
					"color" : [ 0.8, 0.84, 0.71, 1.0 ],
					"fontface" : 0,
					"fontname" : "Calibri",
					"fontsize" : 11.0,
					"hidden" : 0,
					"id" : "obj-178",
					"ignoreclick" : 0,
					"maxclass" : "newobj",
					"numinlets" : 1,
					"numoutlets" : 1,
					"outlettype" : [ "" ],
					"patching_rect" : [ 53.0, 241.921204, 49.0, 20.0 ],
					"presentation" : 0,
					"presentation_rect" : [ 0.0, 0.0, 0.0, 0.0 ],
					"text" : "pcontrol",
					"textcolor" : [ 0.0, 0.0, 0.0, 1.0 ]
				}

			}
, 			{
				"box" : 				{
					"align" : 0,
					"arrow" : 1,
					"arrowbgcolor" : [ 0.86, 0.86, 0.86, 1.0 ],
					"arrowcolor" : [ 0.22, 0.22, 0.22, 1.0 ],
					"arrowframe" : 1,
					"arrowlink" : 1,
					"autopopulate" : 0,
					"background" : 0,
					"bgcolor" : [ 0.901961, 0.901961, 0.901961, 1.0 ],
					"bgcolor2" : [ 1.0, 1.0, 1.0, 1.0 ],
					"depth" : 0,
					"discolor" : [ 0.43, 0.43, 0.43, 1.0 ],
					"fontface" : 0,
					"fontname" : "Calibri",
					"fontsize" : 16.0,
					"framecolor" : [ 0.5, 0.5, 0.5, 1.0 ],
					"hidden" : 0,
					"hltcolor" : [ 0.92, 0.92, 0.92, 1.0 ],
					"id" : "obj-153",
					"ignoreclick" : 0,
					"items" : "All tablets",
					"labelclick" : 1,
					"maxclass" : "umenu",
					"menumode" : 0,
					"numinlets" : 1,
					"numoutlets" : 3,
					"outlettype" : [ "int", "", "" ],
					"parameter_enable" : 0,
					"patching_rect" : [ 1976.25, 255.921204, 153.359619, 26.0 ],
					"pattrmode" : 0,
					"prefix" : "",
					"prefix_mode" : 0,
					"presentation" : 1,
					"presentation_rect" : [ 29.0, 79.0, 150.0, 26.0 ],
					"rounded" : 8,
					"showdotfiles" : 0,
					"textcolor" : [ 0.15, 0.15, 0.15, 1.0 ],
					"textcolor2" : [ 0.15, 0.15, 0.15, 1.0 ],
					"togcolor" : [ 0.55, 0.55, 0.55, 1.0 ],
					"truncate" : 1,
					"underline" : 0,
					"varname" : "menuTouchNP"
				}

			}
, 			{
				"box" : 				{
					"background" : 0,
					"bgcolor" : [ 0.880435, 0.469611, 0.268448, 1.0 ],
					"bgcolor2" : [ 0.867, 0.867, 0.867, 1.0 ],
					"fontface" : 0,
					"fontname" : "Calibri",
					"fontsize" : 14.0,
					"gradient" : 0,
					"hidden" : 0,
					"hint" : "press menu to update the list of tablets and tools",
					"id" : "obj-346",
					"ignoreclick" : 0,
					"maxclass" : "message",
					"numinlets" : 2,
					"numoutlets" : 1,
					"outlettype" : [ "" ],
					"patching_rect" : [ 1086.000122, 255.921204, 125.0, 22.0 ],
					"presentation" : 1,
					"presentation_rect" : [ 459.0, 81.0, 127.0, 22.0 ],
					"text" : "Update tablet menu",
					"textcolor" : [ 0.0, 0.0, 0.0, 1.0 ]
				}

			}
, 			{
				"box" : 				{
					"background" : 0,
					"bgcolor" : [ 1.0, 1.0, 1.0, 0.0 ],
					"bubble" : 0,
					"bubblepoint" : 0.5,
					"bubbleside" : 1,
					"bubbletextmargin" : 5,
					"fontface" : 0,
					"fontname" : "Calibri",
					"fontsize" : 36.0,
					"frgb" : 0.0,
					"hidden" : 0,
					"id" : "obj-207",
					"ignoreclick" : 1,
					"maxclass" : "comment",
					"numinlets" : 1,
					"numoutlets" : 0,
					"patching_rect" : [ 30.0, 17.5, 293.0, 50.0 ],
					"presentation" : 1,
					"presentation_rect" : [ 30.0, 17.5, 293.0, 50.0 ],
					"text" : "Control with tablet",
					"textcolor" : [ 0.952941, 0.388235, 0.090196, 1.0 ],
					"underline" : 0
				}

			}
, 			{
				"box" : 				{
					"background" : 0,
					"bgcolor" : [ 1.0, 1.0, 1.0, 1.0 ],
					"color" : [ 0.8, 0.84, 0.71, 1.0 ],
					"fontface" : 0,
					"fontname" : "Calibri",
					"fontsize" : 11.0,
					"hidden" : 0,
					"id" : "obj-323",
					"ignoreclick" : 0,
					"maxclass" : "newobj",
					"numinlets" : 1,
					"numoutlets" : 1,
					"outlettype" : [ "" ],
					"patching_rect" : [ 1912.400269, 207.921204, 62.0, 20.0 ],
					"presentation" : 0,
					"presentation_rect" : [ 0.0, 0.0, 0.0, 0.0 ],
					"text" : "loadmess 1",
					"textcolor" : [ 0.0, 0.0, 0.0, 1.0 ]
				}

			}
, 			{
				"box" : 				{
					"background" : 0,
					"bgcolor" : [ 1.0, 1.0, 1.0, 1.0 ],
					"color" : [ 0.8, 0.84, 0.71, 1.0 ],
					"fontface" : 0,
					"fontname" : "Calibri",
					"fontsize" : 11.0,
					"hidden" : 0,
					"id" : "obj-321",
					"ignoreclick" : 0,
					"maxclass" : "newobj",
					"numinlets" : 1,
					"numoutlets" : 1,
					"outlettype" : [ "" ],
					"patching_rect" : [ 1705.800171, 207.921204, 62.0, 20.0 ],
					"presentation" : 0,
					"presentation_rect" : [ 0.0, 0.0, 0.0, 0.0 ],
					"text" : "loadmess 0",
					"textcolor" : [ 0.0, 0.0, 0.0, 1.0 ]
				}

			}
, 			{
				"box" : 				{
					"background" : 0,
					"bgcolor" : [ 1.0, 1.0, 1.0, 1.0 ],
					"color" : [ 0.8, 0.84, 0.71, 1.0 ],
					"fontface" : 0,
					"fontname" : "Calibri",
					"fontsize" : 11.0,
					"hidden" : 0,
					"id" : "obj-318",
					"ignoreclick" : 0,
					"maxclass" : "newobj",
					"numinlets" : 1,
					"numoutlets" : 1,
					"outlettype" : [ "" ],
					"patching_rect" : [ 259.600037, 207.921204, 62.0, 20.0 ],
					"presentation" : 0,
					"presentation_rect" : [ 0.0, 0.0, 0.0, 0.0 ],
					"text" : "loadmess 1",
					"textcolor" : [ 0.0, 0.0, 0.0, 1.0 ]
				}

			}
, 			{
				"box" : 				{
					"background" : 0,
					"bgcolor" : [ 1.0, 1.0, 1.0, 1.0 ],
					"color" : [ 0.8, 0.84, 0.71, 1.0 ],
					"fontface" : 0,
					"fontname" : "Calibri Bold",
					"fontsize" : 11.0,
					"hidden" : 0,
					"id" : "obj-314",
					"ignoreclick" : 0,
					"maxclass" : "newobj",
					"numinlets" : 11,
					"numoutlets" : 49,
					"outlettype" : [ "float", "float", "float", "float", "float", "float", "float", "float", "float", "int", "int", "int", "int", "int", "int", "int", "float", "float", "float", "float", "float", "float", "float", "float", "float", "float", "float", "float", "float", "float", "float", "float", "float", "float", "float", "float", "float", "float", "float", "float", "float", "float", "float", "float", "float", "float", "int", "", "list" ],
					"patching_rect" : [ 53.0, 290.921204, 2085.000244, 20.0 ],
					"presentation" : 0,
					"presentation_rect" : [ 0.0, 0.0, 0.0, 0.0 ],
					"text" : "WacomOP_v4",
					"textcolor" : [ 0.0, 0.0, 0.0, 1.0 ]
				}

			}
, 			{
				"box" : 				{
					"background" : 0,
					"bgcolor" : [ 1.0, 1.0, 1.0, 1.0 ],
					"color" : [ 0.8, 0.84, 0.71, 1.0 ],
					"fontface" : 0,
					"fontname" : "Calibri",
					"fontsize" : 11.0,
					"hidden" : 0,
					"id" : "obj-343",
					"ignoreclick" : 0,
					"maxclass" : "newobj",
					"numinlets" : 1,
					"numoutlets" : 1,
					"outlettype" : [ "bang" ],
					"patching_rect" : [ 1086.000122, 207.921204, 54.0, 20.0 ],
					"presentation" : 0,
					"presentation_rect" : [ 0.0, 0.0, 0.0, 0.0 ],
					"text" : "loadbang",
					"textcolor" : [ 0.0, 0.0, 0.0, 1.0 ]
				}

			}
, 			{
				"box" : 				{
					"angle" : 0.0,
					"arrow_orientation" : 0,
					"background" : 1,
					"bgcolor" : [ 1.0, 0.968627, 0.968627, 0.25 ],
					"border" : 1,
					"bordercolor" : [ 0.952929, 0.387438, 0.091084, 1.0 ],
					"drag_window" : 0,
					"grad1" : [ 0.154423, 0.154423, 0.154423, 1.0 ],
					"grad2" : [ 0.66, 0.66, 0.72, 1.0 ],
					"hidden" : 0,
					"horizontal_direction" : 0,
					"id" : "obj-107",
					"ignoreclick" : 1,
					"maxclass" : "panel",
					"mode" : 0,
					"numinlets" : 1,
					"numoutlets" : 0,
					"patching_rect" : [ 15.0, 15.0, 2145.0, 525.0 ],
					"presentation" : 1,
					"presentation_rect" : [ 15.0, 15.0, 585.0, 150.0 ],
					"rounded" : 16,
					"shadow" : 0,
					"shape" : 0,
					"vertical_direction" : 0
				}

			}
 ],
		"lines" : [ 			{
				"patchline" : 				{
					"color" : [ 0.8, 0.8, 0.8, 0.9 ],
					"destination" : [ "obj-3", 0 ],
					"disabled" : 0,
					"hidden" : 0,
					"source" : [ "obj-1", 0 ]
				}

			}
, 			{
				"patchline" : 				{
					"color" : [ 1.0, 0.568627, 0.376471, 0.7 ],
					"destination" : [ "obj-89", 0 ],
					"disabled" : 0,
					"hidden" : 0,
					"midpoints" : [ 595.791626, 446.112274, 794.208374, 446.112274 ],
					"source" : [ "obj-10", 1 ]
				}

			}
, 			{
				"patchline" : 				{
					"color" : [ 1.0, 0.568627, 0.376471, 0.7 ],
					"destination" : [ "obj-90", 0 ],
					"disabled" : 0,
					"hidden" : 0,
					"midpoints" : [ 549.791626, 450.112274, 751.166748, 450.112274 ],
					"source" : [ "obj-10", 0 ]
				}

			}
, 			{
				"patchline" : 				{
					"color" : [ 0.8, 0.8, 0.8, 0.9 ],
					"destination" : [ "obj-104", 0 ],
					"disabled" : 0,
					"hidden" : 0,
					"source" : [ "obj-100", 0 ]
				}

			}
, 			{
				"patchline" : 				{
					"color" : [ 0.8, 0.8, 0.8, 0.9 ],
					"destination" : [ "obj-105", 0 ],
					"disabled" : 0,
					"hidden" : 0,
					"source" : [ "obj-101", 0 ]
				}

			}
, 			{
				"patchline" : 				{
					"color" : [ 0.8, 0.8, 0.8, 0.9 ],
					"destination" : [ "obj-314", 6 ],
					"disabled" : 0,
					"hidden" : 0,
					"source" : [ "obj-106", 0 ]
				}

			}
, 			{
				"patchline" : 				{
					"color" : [ 0.8, 0.8, 0.8, 0.9 ],
					"destination" : [ "obj-15", 0 ],
					"disabled" : 0,
					"hidden" : 0,
					"midpoints" : [ 269.100037, 203.460602, 1985.75, 203.460602 ],
					"source" : [ "obj-11", 0 ]
				}

			}
, 			{
				"patchline" : 				{
					"color" : [ 0.8, 0.8, 0.8, 0.9 ],
					"destination" : [ "obj-16", 0 ],
					"disabled" : 0,
					"hidden" : 0,
					"midpoints" : [ 269.100037, 203.460602, 1302.100098, 203.460602 ],
					"source" : [ "obj-11", 0 ]
				}

			}
, 			{
				"patchline" : 				{
					"color" : [ 0.8, 0.8, 0.8, 0.9 ],
					"destination" : [ "obj-318", 0 ],
					"disabled" : 0,
					"hidden" : 0,
					"source" : [ "obj-11", 0 ]
				}

			}
, 			{
				"patchline" : 				{
					"color" : [ 0.8, 0.8, 0.8, 0.9 ],
					"destination" : [ "obj-321", 0 ],
					"disabled" : 0,
					"hidden" : 0,
					"midpoints" : [ 269.100037, 203.460602, 1715.300171, 203.460602 ],
					"source" : [ "obj-11", 0 ]
				}

			}
, 			{
				"patchline" : 				{
					"color" : [ 0.8, 0.8, 0.8, 0.9 ],
					"destination" : [ "obj-323", 0 ],
					"disabled" : 0,
					"hidden" : 0,
					"midpoints" : [ 269.100037, 203.460602, 1921.900269, 203.460602 ],
					"source" : [ "obj-11", 0 ]
				}

			}
, 			{
				"patchline" : 				{
					"color" : [ 0.8, 0.8, 0.8, 0.9 ],
					"destination" : [ "obj-343", 0 ],
					"disabled" : 0,
					"hidden" : 0,
					"midpoints" : [ 269.100037, 203.460602, 1095.500122, 203.460602 ],
					"source" : [ "obj-11", 0 ]
				}

			}
, 			{
				"patchline" : 				{
					"color" : [ 0.8, 0.8, 0.8, 0.9 ],
					"destination" : [ "obj-2", 0 ],
					"disabled" : 0,
					"hidden" : 0,
					"source" : [ "obj-12", 0 ]
				}

			}
, 			{
				"patchline" : 				{
					"color" : [ 0.8, 0.8, 0.8, 0.9 ],
					"destination" : [ "obj-10", 0 ],
					"disabled" : 0,
					"hidden" : 0,
					"midpoints" : [ 595.791626, 420.5, 549.791626, 420.5 ],
					"source" : [ "obj-13", 1 ]
				}

			}
, 			{
				"patchline" : 				{
					"color" : [ 0.8, 0.8, 0.8, 0.9 ],
					"destination" : [ "obj-8", 0 ],
					"disabled" : 0,
					"hidden" : 0,
					"source" : [ "obj-13", 0 ]
				}

			}
, 			{
				"patchline" : 				{
					"color" : [ 0.8, 0.8, 0.8, 0.9 ],
					"destination" : [ "obj-153", 0 ],
					"disabled" : 0,
					"hidden" : 0,
					"source" : [ "obj-15", 0 ]
				}

			}
, 			{
				"patchline" : 				{
					"color" : [ 0.8, 0.8, 0.8, 0.9 ],
					"destination" : [ "obj-314", 10 ],
					"disabled" : 0,
					"hidden" : 0,
					"midpoints" : [ 1985.75, 285.421204, 2128.500244, 285.421204 ],
					"source" : [ "obj-153", 0 ]
				}

			}
, 			{
				"patchline" : 				{
					"color" : [ 0.8, 0.8, 0.8, 0.9 ],
					"destination" : [ "obj-106", 0 ],
					"disabled" : 0,
					"hidden" : 0,
					"source" : [ "obj-16", 0 ]
				}

			}
, 			{
				"patchline" : 				{
					"color" : [ 1.0, 0.568627, 0.376471, 0.7 ],
					"destination" : [ "obj-13", 1 ],
					"disabled" : 0,
					"hidden" : 0,
					"midpoints" : [ 81.374115, 390.960602, 533.270813, 390.960602 ],
					"source" : [ "obj-17", 0 ]
				}

			}
, 			{
				"patchline" : 				{
					"color" : [ 0.8, 0.8, 0.8, 0.9 ],
					"destination" : [ "obj-314", 0 ],
					"disabled" : 0,
					"hidden" : 0,
					"source" : [ "obj-178", 0 ]
				}

			}
, 			{
				"patchline" : 				{
					"color" : [ 0.8, 0.8, 0.8, 0.9 ],
					"destination" : [ "obj-58", 0 ],
					"disabled" : 0,
					"hidden" : 0,
					"source" : [ "obj-18", 0 ]
				}

			}
, 			{
				"patchline" : 				{
					"color" : [ 0.8, 0.8, 0.8, 0.9 ],
					"destination" : [ "obj-59", 0 ],
					"disabled" : 0,
					"hidden" : 0,
					"source" : [ "obj-185", 0 ]
				}

			}
, 			{
				"patchline" : 				{
					"color" : [ 1.0, 0.568627, 0.376471, 0.7 ],
					"destination" : [ "obj-13", 2 ],
					"disabled" : 0,
					"hidden" : 0,
					"midpoints" : [ 769.208374, 390.0, 595.791626, 390.0 ],
					"source" : [ "obj-19", 0 ]
				}

			}
, 			{
				"patchline" : 				{
					"color" : [ 0.8, 0.8, 0.8, 0.9 ],
					"destination" : [ "obj-178", 0 ],
					"disabled" : 0,
					"hidden" : 0,
					"source" : [ "obj-208", 0 ]
				}

			}
, 			{
				"patchline" : 				{
					"color" : [ 0.8, 0.8, 0.8, 0.9 ],
					"destination" : [ "obj-208", 0 ],
					"disabled" : 0,
					"hidden" : 0,
					"source" : [ "obj-209", 0 ]
				}

			}
, 			{
				"patchline" : 				{
					"color" : [ 0.8, 0.8, 0.8, 0.9 ],
					"destination" : [ "obj-228", 0 ],
					"disabled" : 0,
					"hidden" : 0,
					"source" : [ "obj-227", 0 ]
				}

			}
, 			{
				"patchline" : 				{
					"color" : [ 0.8, 0.8, 0.8, 0.9 ],
					"destination" : [ "obj-229", 0 ],
					"disabled" : 0,
					"hidden" : 0,
					"source" : [ "obj-228", 0 ]
				}

			}
, 			{
				"patchline" : 				{
					"color" : [ 0.8, 0.8, 0.8, 0.9 ],
					"destination" : [ "obj-13", 0 ],
					"disabled" : 0,
					"hidden" : 0,
					"source" : [ "obj-229", 0 ]
				}

			}
, 			{
				"patchline" : 				{
					"color" : [ 0.8, 0.8, 0.8, 0.9 ],
					"destination" : [ "obj-11", 0 ],
					"disabled" : 0,
					"hidden" : 0,
					"source" : [ "obj-3", 0 ]
				}

			}
, 			{
				"patchline" : 				{
					"color" : [ 0.720407, 0.370901, 0.109387, 0.8 ],
					"destination" : [ "obj-314", 7 ],
					"disabled" : 0,
					"hidden" : 0,
					"midpoints" : [ 269.100037, 173.907257, 1508.700195, 173.907257 ],
					"source" : [ "obj-3", 0 ]
				}

			}
, 			{
				"patchline" : 				{
					"color" : [ 0.720407, 0.370901, 0.109387, 0.8 ],
					"destination" : [ "obj-314", 0 ],
					"disabled" : 0,
					"hidden" : 0,
					"midpoints" : [ 269.100037, 173.0, 246.0, 173.0, 246.0, 276.0, 62.5, 276.0 ],
					"source" : [ "obj-3", 0 ]
				}

			}
, 			{
				"patchline" : 				{
					"color" : [ 0.8, 0.8, 0.8, 0.9 ],
					"destination" : [ "obj-100", 0 ],
					"disabled" : 0,
					"hidden" : 0,
					"source" : [ "obj-314", 29 ]
				}

			}
, 			{
				"patchline" : 				{
					"color" : [ 0.8, 0.8, 0.8, 0.9 ],
					"destination" : [ "obj-101", 0 ],
					"disabled" : 0,
					"hidden" : 0,
					"source" : [ "obj-314", 28 ]
				}

			}
, 			{
				"patchline" : 				{
					"color" : [ 0.344472, 0.344472, 0.344472, 0.9 ],
					"destination" : [ "obj-106", 0 ],
					"disabled" : 0,
					"hidden" : 0,
					"midpoints" : [ 2085.458496, 320.224548, 2147.0, 320.224548, 2147.0, 240.224548, 1302.100098, 240.224548 ],
					"source" : [ "obj-314", 47 ]
				}

			}
, 			{
				"patchline" : 				{
					"color" : [ 1.0, 0.568627, 0.376471, 0.7 ],
					"destination" : [ "obj-13", 0 ],
					"disabled" : 0,
					"hidden" : 0,
					"midpoints" : [ 234.666687, 394.307617, 470.750031, 394.307617 ],
					"source" : [ "obj-314", 4 ]
				}

			}
, 			{
				"patchline" : 				{
					"color" : [ 0.344472, 0.344472, 0.344472, 0.9 ],
					"destination" : [ "obj-153", 0 ],
					"disabled" : 0,
					"hidden" : 0,
					"midpoints" : [ 2128.500244, 310.224548, 2140.0, 310.224548, 2140.0, 246.224548, 1985.75, 246.224548 ],
					"source" : [ "obj-314", 48 ]
				}

			}
, 			{
				"patchline" : 				{
					"color" : [ 0.8, 0.8, 0.8, 0.9 ],
					"destination" : [ "obj-17", 1 ],
					"disabled" : 0,
					"hidden" : 0,
					"midpoints" : [ 105.541672, 314.768219, 124.541748, 314.768219 ],
					"source" : [ "obj-314", 1 ]
				}

			}
, 			{
				"patchline" : 				{
					"color" : [ 0.8, 0.8, 0.8, 0.9 ],
					"destination" : [ "obj-17", 0 ],
					"disabled" : 0,
					"hidden" : 0,
					"midpoints" : [ 62.5, 314.768219, 81.374115, 314.768219 ],
					"source" : [ "obj-314", 0 ]
				}

			}
, 			{
				"patchline" : 				{
					"color" : [ 0.8, 0.8, 0.8, 0.9 ],
					"destination" : [ "obj-18", 0 ],
					"disabled" : 0,
					"hidden" : 0,
					"source" : [ "obj-314", 3 ]
				}

			}
, 			{
				"patchline" : 				{
					"color" : [ 0.8, 0.8, 0.8, 0.9 ],
					"destination" : [ "obj-185", 0 ],
					"disabled" : 0,
					"hidden" : 0,
					"source" : [ "obj-314", 2 ]
				}

			}
, 			{
				"patchline" : 				{
					"color" : [ 0.8, 0.8, 0.8, 0.9 ],
					"destination" : [ "obj-19", 1 ],
					"disabled" : 0,
					"hidden" : 0,
					"midpoints" : [ 794.208435, 314.768219, 813.208374, 314.768219 ],
					"source" : [ "obj-314", 17 ]
				}

			}
, 			{
				"patchline" : 				{
					"color" : [ 0.8, 0.8, 0.8, 0.9 ],
					"destination" : [ "obj-19", 0 ],
					"disabled" : 0,
					"hidden" : 0,
					"midpoints" : [ 751.166748, 314.768219, 769.208374, 314.768219 ],
					"source" : [ "obj-314", 16 ]
				}

			}
, 			{
				"patchline" : 				{
					"color" : [ 0.8, 0.8, 0.8, 0.9 ],
					"destination" : [ "obj-42", 0 ],
					"disabled" : 0,
					"hidden" : 0,
					"source" : [ "obj-314", 6 ]
				}

			}
, 			{
				"patchline" : 				{
					"color" : [ 0.8, 0.8, 0.8, 0.9 ],
					"destination" : [ "obj-43", 0 ],
					"disabled" : 0,
					"hidden" : 0,
					"source" : [ "obj-314", 5 ]
				}

			}
, 			{
				"patchline" : 				{
					"color" : [ 0.8, 0.8, 0.8, 0.9 ],
					"destination" : [ "obj-46", 0 ],
					"disabled" : 0,
					"hidden" : 0,
					"source" : [ "obj-314", 8 ]
				}

			}
, 			{
				"patchline" : 				{
					"color" : [ 0.8, 0.8, 0.8, 0.9 ],
					"destination" : [ "obj-48", 0 ],
					"disabled" : 0,
					"hidden" : 0,
					"source" : [ "obj-314", 7 ]
				}

			}
, 			{
				"patchline" : 				{
					"color" : [ 0.8, 0.8, 0.8, 0.9 ],
					"destination" : [ "obj-55", 0 ],
					"disabled" : 0,
					"hidden" : 0,
					"source" : [ "obj-314", 14 ]
				}

			}
, 			{
				"patchline" : 				{
					"color" : [ 0.8, 0.8, 0.8, 0.9 ],
					"destination" : [ "obj-60", 0 ],
					"disabled" : 0,
					"hidden" : 0,
					"source" : [ "obj-314", 4 ]
				}

			}
, 			{
				"patchline" : 				{
					"color" : [ 0.8, 0.8, 0.8, 0.9 ],
					"destination" : [ "obj-62", 0 ],
					"disabled" : 0,
					"hidden" : 0,
					"source" : [ "obj-314", 9 ]
				}

			}
, 			{
				"patchline" : 				{
					"color" : [ 0.8, 0.8, 0.8, 0.9 ],
					"destination" : [ "obj-64", 0 ],
					"disabled" : 0,
					"hidden" : 0,
					"source" : [ "obj-314", 1 ]
				}

			}
, 			{
				"patchline" : 				{
					"color" : [ 0.8, 0.8, 0.8, 0.9 ],
					"destination" : [ "obj-65", 0 ],
					"disabled" : 0,
					"hidden" : 0,
					"source" : [ "obj-314", 0 ]
				}

			}
, 			{
				"patchline" : 				{
					"color" : [ 0.8, 0.8, 0.8, 0.9 ],
					"destination" : [ "obj-76", 0 ],
					"disabled" : 0,
					"hidden" : 0,
					"source" : [ "obj-314", 20 ]
				}

			}
, 			{
				"patchline" : 				{
					"color" : [ 0.8, 0.8, 0.8, 0.9 ],
					"destination" : [ "obj-77", 0 ],
					"disabled" : 0,
					"hidden" : 0,
					"source" : [ "obj-314", 19 ]
				}

			}
, 			{
				"patchline" : 				{
					"color" : [ 0.8, 0.8, 0.8, 0.9 ],
					"destination" : [ "obj-78", 0 ],
					"disabled" : 0,
					"hidden" : 0,
					"source" : [ "obj-314", 46 ]
				}

			}
, 			{
				"patchline" : 				{
					"color" : [ 0.8, 0.8, 0.8, 0.9 ],
					"destination" : [ "obj-83", 0 ],
					"disabled" : 0,
					"hidden" : 0,
					"source" : [ "obj-314", 23 ]
				}

			}
, 			{
				"patchline" : 				{
					"color" : [ 0.8, 0.8, 0.8, 0.9 ],
					"destination" : [ "obj-84", 0 ],
					"disabled" : 0,
					"hidden" : 0,
					"source" : [ "obj-314", 22 ]
				}

			}
, 			{
				"patchline" : 				{
					"color" : [ 0.8, 0.8, 0.8, 0.9 ],
					"destination" : [ "obj-89", 0 ],
					"disabled" : 0,
					"hidden" : 0,
					"source" : [ "obj-314", 17 ]
				}

			}
, 			{
				"patchline" : 				{
					"color" : [ 0.8, 0.8, 0.8, 0.9 ],
					"destination" : [ "obj-9", 0 ],
					"disabled" : 0,
					"hidden" : 0,
					"source" : [ "obj-314", 13 ]
				}

			}
, 			{
				"patchline" : 				{
					"color" : [ 0.8, 0.8, 0.8, 0.9 ],
					"destination" : [ "obj-90", 0 ],
					"disabled" : 0,
					"hidden" : 0,
					"source" : [ "obj-314", 16 ]
				}

			}
, 			{
				"patchline" : 				{
					"color" : [ 0.8, 0.8, 0.8, 0.9 ],
					"destination" : [ "obj-91", 0 ],
					"disabled" : 0,
					"hidden" : 0,
					"source" : [ "obj-314", 26 ]
				}

			}
, 			{
				"patchline" : 				{
					"color" : [ 0.8, 0.8, 0.8, 0.9 ],
					"destination" : [ "obj-92", 0 ],
					"disabled" : 0,
					"hidden" : 0,
					"source" : [ "obj-314", 25 ]
				}

			}
, 			{
				"patchline" : 				{
					"color" : [ 0.8, 0.8, 0.8, 0.9 ],
					"destination" : [ "obj-314", 4 ],
					"disabled" : 0,
					"hidden" : 0,
					"midpoints" : [ 269.100037, 281.421204, 888.900085, 281.421204 ],
					"source" : [ "obj-318", 0 ]
				}

			}
, 			{
				"patchline" : 				{
					"color" : [ 0.8, 0.8, 0.8, 0.9 ],
					"destination" : [ "obj-314", 3 ],
					"disabled" : 0,
					"hidden" : 0,
					"midpoints" : [ 269.100037, 280.421204, 682.300049, 280.421204 ],
					"source" : [ "obj-318", 0 ]
				}

			}
, 			{
				"patchline" : 				{
					"color" : [ 0.8, 0.8, 0.8, 0.9 ],
					"destination" : [ "obj-314", 2 ],
					"disabled" : 0,
					"hidden" : 0,
					"midpoints" : [ 269.100037, 281.421204, 475.700043, 281.421204 ],
					"source" : [ "obj-318", 0 ]
				}

			}
, 			{
				"patchline" : 				{
					"color" : [ 0.8, 0.8, 0.8, 0.9 ],
					"destination" : [ "obj-314", 1 ],
					"disabled" : 0,
					"hidden" : 0,
					"source" : [ "obj-318", 0 ]
				}

			}
, 			{
				"patchline" : 				{
					"color" : [ 0.8, 0.8, 0.8, 0.9 ],
					"destination" : [ "obj-314", 8 ],
					"disabled" : 0,
					"hidden" : 0,
					"source" : [ "obj-321", 0 ]
				}

			}
, 			{
				"patchline" : 				{
					"color" : [ 0.8, 0.8, 0.8, 0.9 ],
					"destination" : [ "obj-314", 9 ],
					"disabled" : 0,
					"hidden" : 0,
					"source" : [ "obj-323", 0 ]
				}

			}
, 			{
				"patchline" : 				{
					"color" : [ 0.8, 0.8, 0.8, 0.9 ],
					"destination" : [ "obj-346", 0 ],
					"disabled" : 0,
					"hidden" : 0,
					"source" : [ "obj-343", 0 ]
				}

			}
, 			{
				"patchline" : 				{
					"color" : [ 0.8, 0.8, 0.8, 0.9 ],
					"destination" : [ "obj-314", 5 ],
					"disabled" : 0,
					"hidden" : 0,
					"source" : [ "obj-346", 0 ]
				}

			}
, 			{
				"patchline" : 				{
					"color" : [ 0.8, 0.8, 0.8, 0.9 ],
					"destination" : [ "obj-49", 0 ],
					"disabled" : 0,
					"hidden" : 0,
					"source" : [ "obj-42", 0 ]
				}

			}
, 			{
				"patchline" : 				{
					"color" : [ 0.8, 0.8, 0.8, 0.9 ],
					"destination" : [ "obj-67", 0 ],
					"disabled" : 0,
					"hidden" : 0,
					"source" : [ "obj-43", 0 ]
				}

			}
, 			{
				"patchline" : 				{
					"color" : [ 0.8, 0.8, 0.8, 0.9 ],
					"destination" : [ "obj-34", 0 ],
					"disabled" : 0,
					"hidden" : 0,
					"source" : [ "obj-46", 0 ]
				}

			}
, 			{
				"patchline" : 				{
					"color" : [ 0.8, 0.8, 0.8, 0.9 ],
					"destination" : [ "obj-40", 0 ],
					"disabled" : 0,
					"hidden" : 0,
					"source" : [ "obj-48", 0 ]
				}

			}
, 			{
				"patchline" : 				{
					"color" : [ 0.8, 0.8, 0.8, 0.9 ],
					"destination" : [ "obj-32", 0 ],
					"disabled" : 0,
					"hidden" : 0,
					"source" : [ "obj-55", 0 ]
				}

			}
, 			{
				"patchline" : 				{
					"color" : [ 0.8, 0.8, 0.8, 0.9 ],
					"destination" : [ "obj-69", 0 ],
					"disabled" : 0,
					"hidden" : 0,
					"source" : [ "obj-60", 0 ]
				}

			}
, 			{
				"patchline" : 				{
					"color" : [ 0.8, 0.8, 0.8, 0.9 ],
					"destination" : [ "obj-72", 0 ],
					"disabled" : 0,
					"hidden" : 0,
					"source" : [ "obj-62", 0 ]
				}

			}
, 			{
				"patchline" : 				{
					"color" : [ 0.8, 0.8, 0.8, 0.9 ],
					"destination" : [ "obj-73", 0 ],
					"disabled" : 0,
					"hidden" : 0,
					"source" : [ "obj-64", 0 ]
				}

			}
, 			{
				"patchline" : 				{
					"color" : [ 0.8, 0.8, 0.8, 0.9 ],
					"destination" : [ "obj-74", 0 ],
					"disabled" : 0,
					"hidden" : 0,
					"source" : [ "obj-65", 0 ]
				}

			}
, 			{
				"patchline" : 				{
					"color" : [ 0.8, 0.8, 0.8, 0.9 ],
					"destination" : [ "obj-81", 0 ],
					"disabled" : 0,
					"hidden" : 0,
					"source" : [ "obj-76", 0 ]
				}

			}
, 			{
				"patchline" : 				{
					"color" : [ 0.8, 0.8, 0.8, 0.9 ],
					"destination" : [ "obj-82", 0 ],
					"disabled" : 0,
					"hidden" : 0,
					"source" : [ "obj-77", 0 ]
				}

			}
, 			{
				"patchline" : 				{
					"color" : [ 0.8, 0.8, 0.8, 0.9 ],
					"destination" : [ "obj-30", 0 ],
					"disabled" : 0,
					"hidden" : 0,
					"source" : [ "obj-78", 0 ]
				}

			}
, 			{
				"patchline" : 				{
					"color" : [ 1.0, 0.568627, 0.376471, 0.7 ],
					"destination" : [ "obj-60", 0 ],
					"disabled" : 0,
					"hidden" : 0,
					"midpoints" : [ 470.750031, 452.612274, 234.666763, 452.612274 ],
					"source" : [ "obj-8", 0 ]
				}

			}
, 			{
				"patchline" : 				{
					"color" : [ 1.0, 0.568627, 0.376471, 0.7 ],
					"destination" : [ "obj-64", 0 ],
					"disabled" : 0,
					"hidden" : 0,
					"midpoints" : [ 527.75, 448.112274, 105.541748, 448.112274 ],
					"source" : [ "obj-8", 2 ]
				}

			}
, 			{
				"patchline" : 				{
					"color" : [ 1.0, 0.568627, 0.376471, 0.7 ],
					"destination" : [ "obj-65", 0 ],
					"disabled" : 0,
					"hidden" : 0,
					"midpoints" : [ 499.250031, 444.612274, 62.500076, 444.612274 ],
					"source" : [ "obj-8", 1 ]
				}

			}
, 			{
				"patchline" : 				{
					"color" : [ 0.8, 0.8, 0.8, 0.9 ],
					"destination" : [ "obj-87", 0 ],
					"disabled" : 0,
					"hidden" : 0,
					"source" : [ "obj-83", 0 ]
				}

			}
, 			{
				"patchline" : 				{
					"color" : [ 0.8, 0.8, 0.8, 0.9 ],
					"destination" : [ "obj-88", 0 ],
					"disabled" : 0,
					"hidden" : 0,
					"source" : [ "obj-84", 0 ]
				}

			}
, 			{
				"patchline" : 				{
					"color" : [ 0.8, 0.8, 0.8, 0.9 ],
					"destination" : [ "obj-26", 0 ],
					"disabled" : 0,
					"hidden" : 0,
					"source" : [ "obj-89", 0 ]
				}

			}
, 			{
				"patchline" : 				{
					"color" : [ 0.8, 0.8, 0.8, 0.9 ],
					"destination" : [ "obj-24", 0 ],
					"disabled" : 0,
					"hidden" : 0,
					"source" : [ "obj-9", 0 ]
				}

			}
, 			{
				"patchline" : 				{
					"color" : [ 0.8, 0.8, 0.8, 0.9 ],
					"destination" : [ "obj-27", 0 ],
					"disabled" : 0,
					"hidden" : 0,
					"source" : [ "obj-90", 0 ]
				}

			}
, 			{
				"patchline" : 				{
					"color" : [ 0.8, 0.8, 0.8, 0.9 ],
					"destination" : [ "obj-95", 0 ],
					"disabled" : 0,
					"hidden" : 0,
					"source" : [ "obj-91", 0 ]
				}

			}
, 			{
				"patchline" : 				{
					"color" : [ 0.8, 0.8, 0.8, 0.9 ],
					"destination" : [ "obj-98", 0 ],
					"disabled" : 0,
					"hidden" : 0,
					"source" : [ "obj-92", 0 ]
				}

			}
 ],
		"dependency_cache" : [ 			{
				"name" : "WacomOP_v4.maxpat",
				"bootpath" : "/Users/olivierperrotin/Documents/Max/Cantor_Digitartic/abstractions_CantorDigitalis2.0b19",
				"patcherrelativepath" : "",
				"type" : "JSON",
				"implicit" : 1
			}
, 			{
				"name" : "License.maxpat",
				"bootpath" : "/Users/olivierperrotin/Documents/Max/Cantor_Digitartic/abstractions_CantorDigitalis2.0b19",
				"patcherrelativepath" : "",
				"type" : "JSON",
				"implicit" : 1
			}
, 			{
				"name" : "recordData.maxpat",
				"bootpath" : "/Users/olivierperrotin/Documents/Max/Cantor_Digitartic/abstractions_CantorDigitalis2.0b19",
				"patcherrelativepath" : "",
				"type" : "JSON",
				"implicit" : 1
			}
, 			{
				"name" : "s2m.wacom.mxo",
				"type" : "iLaX"
			}
, 			{
				"name" : "s2m.wacomtouch.mxo",
				"type" : "iLaX"
			}
 ]
	}

}
