{
	"patcher" : 	{
		"fileversion" : 1,
		"appversion" : 		{
			"major" : 6,
			"minor" : 0,
			"revision" : 8
		}
,
		"rect" : [ 90.0, 335.0, 940.0, 614.0 ],
		"bgcolor" : [ 0.0, 0.0, 0.0, 1.0 ],
		"bglocked" : 1,
		"openinpresentation" : 1,
		"default_fontsize" : 11.0,
		"default_fontface" : 0,
		"default_fontname" : "Calibri",
		"gridonopen" : 2,
		"gridsize" : [ 15.0, 15.0 ],
		"gridsnaponopen" : 2,
		"statusbarvisible" : 2,
		"toolbarvisible" : 1,
		"boxanimatetime" : 200,
		"imprint" : 0,
		"enablehscroll" : 1,
		"enablevscroll" : 1,
		"devicewidth" : 0.0,
		"description" : "",
		"digest" : "",
		"tags" : "",
		"boxes" : [ 			{
				"box" : 				{
					"fontname" : "Calibri",
					"fontsize" : 11.0,
					"id" : "obj-10",
					"maxclass" : "newobj",
					"numinlets" : 0,
					"numoutlets" : 0,
					"patching_rect" : [ 1590.0, 510.0, 100.0, 17.0 ]
				}

			}
, 			{
				"box" : 				{
					"color" : [ 0.952941, 0.388235, 0.090196, 1.0 ],
					"fontname" : "Calibri",
					"fontsize" : 18.0,
					"id" : "obj-187",
					"maxclass" : "newobj",
					"numinlets" : 1,
					"numoutlets" : 0,
					"patching_rect" : [ 271.0, 32.0, 71.0, 24.0 ],
					"text" : "License"
				}

			}
, 			{
				"box" : 				{
					"fontname" : "Calibri",
					"fontsize" : 11.0,
					"id" : "obj-62",
					"maxclass" : "newobj",
					"numinlets" : 1,
					"numoutlets" : 2,
					"outlettype" : [ "float", "float" ],
					"patching_rect" : [ 836.763184, 297.151367, 102.0, 17.0 ],
					"text" : "unpack 0. 0."
				}

			}
, 			{
				"box" : 				{
					"fontname" : "Calibri",
					"fontsize" : 11.0,
					"id" : "obj-54",
					"maxclass" : "newobj",
					"numinlets" : 1,
					"numoutlets" : 2,
					"outlettype" : [ "float", "float" ],
					"patching_rect" : [ 694.763184, 297.151367, 102.0, 17.0 ],
					"text" : "unpack 0. 0."
				}

			}
, 			{
				"box" : 				{
					"color" : [ 0.894118, 0.894118, 0.894118, 1.0 ],
					"fontname" : "Calibri",
					"fontsize" : 11.0,
					"id" : "obj-41",
					"maxclass" : "newobj",
					"numinlets" : 1,
					"numoutlets" : 3,
					"outlettype" : [ "bang", "float", "bang" ],
					"patching_rect" : [ 694.763184, 339.151367, 43.0, 17.0 ],
					"text" : "t b f b"
				}

			}
, 			{
				"box" : 				{
					"comment" : "list: finger position",
					"id" : "obj-29",
					"maxclass" : "inlet",
					"numinlets" : 0,
					"numoutlets" : 1,
					"outlettype" : [ "" ],
					"patching_rect" : [ 853.908081, 225.0, 25.0, 25.0 ]
				}

			}
, 			{
				"box" : 				{
					"comment" : "float: stylus pressure",
					"id" : "obj-18",
					"maxclass" : "inlet",
					"numinlets" : 0,
					"numoutlets" : 1,
					"outlettype" : [ "float" ],
					"patching_rect" : [ 652.908081, 225.0, 25.0, 25.0 ]
				}

			}
, 			{
				"box" : 				{
					"fontname" : "Calibri",
					"fontsize" : 11.0,
					"id" : "obj-11",
					"maxclass" : "newobj",
					"numinlets" : 2,
					"numoutlets" : 1,
					"outlettype" : [ "" ],
					"patching_rect" : [ 836.763184, 268.0, 36.144897, 17.0 ],
					"text" : "gate"
				}

			}
, 			{
				"box" : 				{
					"fontname" : "Calibri",
					"fontsize" : 11.0,
					"id" : "obj-9",
					"maxclass" : "newobj",
					"numinlets" : 2,
					"numoutlets" : 1,
					"outlettype" : [ "" ],
					"patching_rect" : [ 694.763184, 268.0, 36.144897, 17.0 ],
					"text" : "gate"
				}

			}
, 			{
				"box" : 				{
					"fontname" : "Calibri",
					"fontsize" : 11.0,
					"id" : "obj-168",
					"maxclass" : "newobj",
					"numinlets" : 1,
					"numoutlets" : 1,
					"outlettype" : [ "" ],
					"patching_rect" : [ 1401.842896, 40.0, 65.0, 17.0 ],
					"text" : "loadmess 0"
				}

			}
, 			{
				"box" : 				{
					"fontname" : "Calibri",
					"fontsize" : 11.0,
					"id" : "obj-165",
					"maxclass" : "newobj",
					"numinlets" : 1,
					"numoutlets" : 2,
					"outlettype" : [ "signal", "signal" ],
					"patching_rect" : [ 1114.263184, 200.827148, 38.0, 17.0 ],
					"text" : "adc~"
				}

			}
, 			{
				"box" : 				{
					"fontname" : "Calibri",
					"fontsize" : 11.0,
					"id" : "obj-157",
					"maxclass" : "newobj",
					"numinlets" : 2,
					"numoutlets" : 1,
					"outlettype" : [ "" ],
					"patching_rect" : [ 1692.842896, 430.651367, 85.0, 17.0 ],
					"text" : "pack 0. 0."
				}

			}
, 			{
				"box" : 				{
					"fontname" : "Calibri",
					"fontsize" : 11.0,
					"id" : "obj-156",
					"maxclass" : "newobj",
					"numinlets" : 3,
					"numoutlets" : 1,
					"outlettype" : [ "" ],
					"patching_rect" : [ 1494.842896, 430.651367, 151.0, 17.0 ],
					"text" : "pack 0. 0. 0."
				}

			}
, 			{
				"box" : 				{
					"comment" : "list: finger data",
					"id" : "obj-146",
					"maxclass" : "outlet",
					"numinlets" : 1,
					"numoutlets" : 0,
					"patching_rect" : [ 1609.812744, 704.151367, 25.0, 25.0 ]
				}

			}
, 			{
				"box" : 				{
					"comment" : "list: stylus data",
					"id" : "obj-143",
					"maxclass" : "outlet",
					"numinlets" : 1,
					"numoutlets" : 0,
					"patching_rect" : [ 1347.842896, 704.151367, 25.0, 25.0 ]
				}

			}
, 			{
				"box" : 				{
					"fontname" : "Calibri",
					"fontsize" : 11.0,
					"id" : "obj-138",
					"maxclass" : "newobj",
					"numinlets" : 2,
					"numoutlets" : 1,
					"outlettype" : [ "" ],
					"patching_rect" : [ 1609.812744, 675.802734, 130.0, 17.0 ],
					"text" : "gate 0."
				}

			}
, 			{
				"box" : 				{
					"fontname" : "Calibri",
					"fontsize" : 11.0,
					"id" : "obj-137",
					"maxclass" : "newobj",
					"numinlets" : 2,
					"numoutlets" : 1,
					"outlettype" : [ "" ],
					"patching_rect" : [ 1347.842896, 675.802734, 127.328613, 17.0 ],
					"text" : "gate 0."
				}

			}
, 			{
				"box" : 				{
					"fontname" : "Calibri",
					"fontsize" : 11.0,
					"frgb" : 0.0,
					"id" : "obj-135",
					"maxclass" : "comment",
					"numinlets" : 1,
					"numoutlets" : 0,
					"patching_rect" : [ 1460.659058, 400.769409, 20.183838, 17.0 ],
					"text" : "T",
					"textcolor" : [ 1.0, 0.568627, 0.376471, 1.0 ]
				}

			}
, 			{
				"box" : 				{
					"fontname" : "Calibri",
					"fontsize" : 11.0,
					"frgb" : 0.0,
					"id" : "obj-58",
					"maxclass" : "comment",
					"numinlets" : 1,
					"numoutlets" : 0,
					"patching_rect" : [ 1768.290283, 400.769409, 25.144165, 17.0 ],
					"text" : "Yf",
					"textcolor" : [ 1.0, 0.568627, 0.376471, 1.0 ]
				}

			}
, 			{
				"box" : 				{
					"fontname" : "Calibri",
					"fontsize" : 11.0,
					"frgb" : 0.0,
					"id" : "obj-60",
					"maxclass" : "comment",
					"numinlets" : 1,
					"numoutlets" : 0,
					"patching_rect" : [ 1702.763184, 400.769409, 26.099182, 17.0 ],
					"text" : "Xf",
					"textcolor" : [ 1.0, 0.568627, 0.376471, 1.0 ]
				}

			}
, 			{
				"box" : 				{
					"fontname" : "Calibri",
					"fontsize" : 11.0,
					"frgb" : 0.0,
					"id" : "obj-80",
					"maxclass" : "comment",
					"numinlets" : 1,
					"numoutlets" : 0,
					"patching_rect" : [ 1637.070923, 400.769409, 25.144165, 17.0 ],
					"text" : "Ys",
					"textcolor" : [ 1.0, 0.568627, 0.376471, 1.0 ]
				}

			}
, 			{
				"box" : 				{
					"fontname" : "Calibri",
					"fontsize" : 11.0,
					"frgb" : 0.0,
					"id" : "obj-94",
					"maxclass" : "comment",
					"numinlets" : 1,
					"numoutlets" : 0,
					"patching_rect" : [ 1569.459595, 400.769409, 22.144165, 17.0 ],
					"text" : "Xs",
					"textcolor" : [ 1.0, 0.568627, 0.376471, 1.0 ]
				}

			}
, 			{
				"box" : 				{
					"fontname" : "Calibri",
					"fontsize" : 11.0,
					"frgb" : 0.0,
					"id" : "obj-133",
					"maxclass" : "comment",
					"numinlets" : 1,
					"numoutlets" : 0,
					"patching_rect" : [ 1503.816162, 400.769409, 20.183838, 17.0 ],
					"text" : "P",
					"textcolor" : [ 1.0, 0.568627, 0.376471, 1.0 ]
				}

			}
, 			{
				"box" : 				{
					"fontname" : "Calibri",
					"fontsize" : 11.0,
					"id" : "obj-134",
					"maxclass" : "message",
					"numinlets" : 2,
					"numoutlets" : 1,
					"outlettype" : [ "" ],
					"patching_rect" : [ 978.763184, 178.151367, 32.5, 15.0 ],
					"text" : "0"
				}

			}
, 			{
				"box" : 				{
					"fontname" : "Calibri",
					"fontsize" : 11.0,
					"id" : "obj-132",
					"maxclass" : "newobj",
					"numinlets" : 2,
					"numoutlets" : 2,
					"outlettype" : [ "bang", "" ],
					"patching_rect" : [ 978.763184, 147.0, 32.5, 17.0 ],
					"text" : "sel 0"
				}

			}
, 			{
				"box" : 				{
					"bgcolor" : [ 0.901961, 0.901961, 0.901961, 1.0 ],
					"bgoncolor" : [ 0.678431, 0.917647, 0.352941, 1.0 ],
					"bgovercolor" : [ 0.959213, 0.498012, 0.272024, 1.0 ],
					"bgoveroncolor" : [ 0.960784, 0.498039, 0.270588, 1.0 ],
					"border" : 0,
					"borderoncolor" : [ 0.364178, 0.899081, 0.0, 1.0 ],
					"fontname" : "Calibri",
					"fontsize" : 11.0,
					"id" : "obj-195",
					"maxclass" : "textbutton",
					"mode" : 1,
					"numinlets" : 1,
					"numoutlets" : 3,
					"outlettype" : [ "", "", "int" ],
					"parameter_enable" : 0,
					"patching_rect" : [ 978.763184, 202.827148, 123.0, 33.648438 ],
					"presentation" : 1,
					"presentation_rect" : [ 537.0, 236.175781, 123.0, 35.648438 ],
					"rounded" : 10.0,
					"text" : "   MICROPHONE OFF    (click to switch on)",
					"texton" : "  MICROPHONE ON    (click to switch off)",
					"textoncolor" : [ 0.0, 0.0, 0.0, 1.0 ],
					"truncate" : 0
				}

			}
, 			{
				"box" : 				{
					"fontname" : "Calibri",
					"fontsize" : 11.0,
					"id" : "obj-70",
					"maxclass" : "message",
					"numinlets" : 2,
					"numoutlets" : 1,
					"outlettype" : [ "" ],
					"patching_rect" : [ 1015.013184, 268.0, 32.5, 15.0 ],
					"text" : "start"
				}

			}
, 			{
				"box" : 				{
					"fontname" : "Calibri",
					"fontsize" : 11.0,
					"id" : "obj-53",
					"maxclass" : "newobj",
					"numinlets" : 2,
					"numoutlets" : 2,
					"outlettype" : [ "bang", "" ],
					"patching_rect" : [ 978.763184, 244.651367, 55.25, 17.0 ],
					"text" : "sel 0"
				}

			}
, 			{
				"box" : 				{
					"fontname" : "Calibri",
					"fontsize" : 11.0,
					"id" : "obj-42",
					"maxclass" : "message",
					"numinlets" : 2,
					"numoutlets" : 1,
					"outlettype" : [ "" ],
					"patching_rect" : [ 978.763184, 268.0, 32.5, 15.0 ],
					"text" : "stop"
				}

			}
, 			{
				"box" : 				{
					"fontname" : "Calibri",
					"fontsize" : 11.0,
					"id" : "obj-27",
					"maxclass" : "newobj",
					"numinlets" : 2,
					"numoutlets" : 1,
					"outlettype" : [ "signal" ],
					"patching_rect" : [ 1051.263184, 268.0, 82.0, 17.0 ],
					"text" : "gate~"
				}

			}
, 			{
				"box" : 				{
					"fontname" : "Calibri",
					"fontsize" : 11.0,
					"id" : "obj-6",
					"maxclass" : "newobj",
					"numinlets" : 1,
					"numoutlets" : 1,
					"outlettype" : [ "" ],
					"patching_rect" : [ 1114.263184, 178.151367, 65.0, 17.0 ],
					"text" : "loadmess 1"
				}

			}
, 			{
				"box" : 				{
					"fontname" : "Calibri",
					"fontsize" : 36.0,
					"frgb" : 0.0,
					"id" : "obj-131",
					"maxclass" : "comment",
					"numinlets" : 1,
					"numoutlets" : 0,
					"patching_rect" : [ 1675.010254, 30.0, 175.476318, 42.0 ],
					"presentation" : 1,
					"presentation_rect" : [ 714.5, 15.0, 206.0, 42.0 ],
					"text" : "Read data",
					"textcolor" : [ 0.952929, 0.387438, 0.091084, 1.0 ]
				}

			}
, 			{
				"box" : 				{
					"fontname" : "Calibri",
					"fontsize" : 11.0,
					"frgb" : 0.0,
					"id" : "obj-61",
					"linecount" : 7,
					"maxclass" : "comment",
					"numinlets" : 1,
					"numoutlets" : 0,
					"patching_rect" : [ 1719.238281, 465.769409, 133.248291, 83.0 ],
					"text" : "1. Put row values in messages box\n2. Compute dT since last value\n3. Send values in messages after the dT\n4. Send a bang to the coll",
					"textcolor" : [ 1.0, 0.568627, 0.376471, 1.0 ]
				}

			}
, 			{
				"box" : 				{
					"fontname" : "Calibri",
					"fontsize" : 11.0,
					"frgb" : 0.0,
					"id" : "obj-69",
					"maxclass" : "comment",
					"numinlets" : 1,
					"numoutlets" : 0,
					"patching_rect" : [ 1494.842896, 317.5, 125.248291, 17.0 ],
					"text" : "Send bangs to read coll",
					"textcolor" : [ 1.0, 0.568627, 0.376471, 1.0 ]
				}

			}
, 			{
				"box" : 				{
					"bgcolor" : [ 0.819176, 0.819176, 0.819176, 1.0 ],
					"bgoncolor" : [ 0.678431, 0.917647, 0.352941, 1.0 ],
					"bgovercolor" : [ 0.959213, 0.498012, 0.272024, 1.0 ],
					"bgoveroncolor" : [ 0.960784, 0.498039, 0.270588, 1.0 ],
					"border" : 0,
					"borderoncolor" : [ 0.364178, 0.899081, 0.0, 1.0 ],
					"fontname" : "Calibri",
					"fontsize" : 30.0,
					"id" : "obj-76",
					"maxclass" : "textbutton",
					"numinlets" : 1,
					"numoutlets" : 3,
					"outlettype" : [ "", "", "int" ],
					"parameter_enable" : 0,
					"patching_rect" : [ 1560.842896, 145.0, 157.288696, 34.5 ],
					"presentation" : 1,
					"presentation_rect" : [ 720.0, 75.0, 195.0, 45.0 ],
					"rounded" : 10.0,
					"text" : "LOAD DATA",
					"texton" : "Pause",
					"textoncolor" : [ 0.0, 0.0, 0.0, 1.0 ],
					"truncate" : 0,
					"varname" : "contactCorrection_button[6]"
				}

			}
, 			{
				"box" : 				{
					"bgcolor" : [ 0.819176, 0.819176, 0.819176, 1.0 ],
					"bgoncolor" : [ 0.678431, 0.917647, 0.352941, 1.0 ],
					"bgovercolor" : [ 0.959213, 0.498012, 0.272024, 1.0 ],
					"bgoveroncolor" : [ 0.960784, 0.498039, 0.270588, 1.0 ],
					"border" : 0,
					"borderoncolor" : [ 0.364178, 0.899081, 0.0, 1.0 ],
					"fontname" : "Calibri",
					"fontsize" : 20.0,
					"id" : "obj-72",
					"maxclass" : "textbutton",
					"numinlets" : 1,
					"numoutlets" : 3,
					"outlettype" : [ "", "", "int" ],
					"parameter_enable" : 0,
					"patching_rect" : [ 1469.342896, 145.0, 54.657104, 34.5 ],
					"presentation" : 1,
					"presentation_rect" : [ 825.11499, 159.875, 89.884979, 38.25 ],
					"rounded" : 10.0,
					"text" : "BACK",
					"texton" : "Pause",
					"textoncolor" : [ 0.0, 0.0, 0.0, 1.0 ],
					"truncate" : 0,
					"varname" : "contactCorrection_button[1]"
				}

			}
, 			{
				"box" : 				{
					"bgcolor" : [ 0.819176, 0.819176, 0.819176, 1.0 ],
					"bgoncolor" : [ 0.678431, 0.917647, 0.352941, 1.0 ],
					"bgovercolor" : [ 0.959213, 0.498012, 0.272024, 1.0 ],
					"bgoveroncolor" : [ 0.960784, 0.498039, 0.270588, 1.0 ],
					"border" : 0,
					"borderoncolor" : [ 0.364178, 0.899081, 0.0, 1.0 ],
					"fontname" : "Calibri",
					"fontsize" : 20.0,
					"id" : "obj-75",
					"maxclass" : "textbutton",
					"mode" : 1,
					"numinlets" : 1,
					"numoutlets" : 3,
					"outlettype" : [ "", "", "int" ],
					"parameter_enable" : 0,
					"patching_rect" : [ 1401.842896, 65.5, 124.263123, 39.0 ],
					"presentation" : 1,
					"presentation_rect" : [ 720.0, 159.875, 90.0, 38.25 ],
					"rounded" : 10.0,
					"text" : "PLAY",
					"texton" : "PAUSE",
					"textoncolor" : [ 0.0, 0.0, 0.0, 1.0 ],
					"truncate" : 0,
					"varname" : "contactCorrection_button[2]"
				}

			}
, 			{
				"box" : 				{
					"bgcolor" : [ 0.819176, 0.819176, 0.819176, 1.0 ],
					"bgoncolor" : [ 0.678431, 0.917647, 0.352941, 1.0 ],
					"bgovercolor" : [ 0.959213, 0.498012, 0.272024, 1.0 ],
					"bgoveroncolor" : [ 0.960784, 0.498039, 0.270588, 1.0 ],
					"border" : 0,
					"borderoncolor" : [ 0.364178, 0.899081, 0.0, 1.0 ],
					"fontname" : "Calibri",
					"fontsize" : 16.0,
					"id" : "obj-88",
					"maxclass" : "textbutton",
					"mode" : 1,
					"numinlets" : 1,
					"numoutlets" : 3,
					"outlettype" : [ "", "", "int" ],
					"parameter_enable" : 0,
					"patching_rect" : [ 1609.812744, 631.151367, 108.748291, 29.5 ],
					"presentation" : 1,
					"presentation_rect" : [ 720.0, 270.0, 195.0, 30.0 ],
					"rounded" : 10.0,
					"text" : "Finger (Off)",
					"texton" : "Finger (On)",
					"textoncolor" : [ 0.0, 0.0, 0.0, 1.0 ],
					"truncate" : 0,
					"varname" : "contactCorrection_button[7]"
				}

			}
, 			{
				"box" : 				{
					"bgcolor" : [ 0.819176, 0.819176, 0.819176, 1.0 ],
					"bgoncolor" : [ 0.678431, 0.917647, 0.352941, 1.0 ],
					"bgovercolor" : [ 0.959213, 0.498012, 0.272024, 1.0 ],
					"bgoveroncolor" : [ 0.960784, 0.498039, 0.270588, 1.0 ],
					"border" : 0,
					"borderoncolor" : [ 0.364178, 0.899081, 0.0, 1.0 ],
					"fontname" : "Calibri",
					"fontsize" : 16.0,
					"id" : "obj-89",
					"maxclass" : "textbutton",
					"mode" : 1,
					"numinlets" : 1,
					"numoutlets" : 3,
					"outlettype" : [ "", "", "int" ],
					"parameter_enable" : 0,
					"patching_rect" : [ 1347.842896, 631.151367, 101.485168, 29.5 ],
					"presentation" : 1,
					"presentation_rect" : [ 720.0, 225.0, 195.0, 30.0 ],
					"rounded" : 10.0,
					"text" : "Stylus (Off)",
					"texton" : "Stylus (On)",
					"textoncolor" : [ 0.0, 0.0, 0.0, 1.0 ],
					"truncate" : 0,
					"varname" : "contactCorrection_button[8]"
				}

			}
, 			{
				"box" : 				{
					"fontname" : "Calibri",
					"fontsize" : 11.0,
					"id" : "obj-91",
					"maxclass" : "newobj",
					"numinlets" : 1,
					"numoutlets" : 1,
					"outlettype" : [ "" ],
					"patching_rect" : [ 1758.842896, 585.0, 65.0, 17.0 ],
					"text" : "loadmess 1"
				}

			}
, 			{
				"box" : 				{
					"fontname" : "Calibri",
					"fontsize" : 11.0,
					"id" : "obj-96",
					"maxclass" : "message",
					"numinlets" : 2,
					"numoutlets" : 1,
					"outlettype" : [ "" ],
					"patching_rect" : [ 1403.342896, 351.5, 20.0, 15.0 ],
					"text" : "0"
				}

			}
, 			{
				"box" : 				{
					"fontname" : "Calibri",
					"fontsize" : 11.0,
					"id" : "obj-97",
					"maxclass" : "newobj",
					"numinlets" : 1,
					"numoutlets" : 2,
					"outlettype" : [ "bang", "float" ],
					"patching_rect" : [ 1401.842896, 154.5, 46.0, 17.0 ],
					"text" : "t b f"
				}

			}
, 			{
				"box" : 				{
					"id" : "obj-98",
					"maxclass" : "toggle",
					"numinlets" : 1,
					"numoutlets" : 1,
					"outlettype" : [ "int" ],
					"parameter_enable" : 0,
					"patching_rect" : [ 1401.842896, 126.5, 20.0, 20.0 ]
				}

			}
, 			{
				"box" : 				{
					"fontname" : "Calibri",
					"fontsize" : 11.0,
					"id" : "obj-99",
					"maxclass" : "newobj",
					"numinlets" : 2,
					"numoutlets" : 1,
					"outlettype" : [ "" ],
					"patching_rect" : [ 1428.842896, 219.5, 32.5, 17.0 ],
					"text" : "gate"
				}

			}
, 			{
				"box" : 				{
					"fontname" : "Calibri",
					"fontsize" : 11.0,
					"id" : "obj-102",
					"maxclass" : "message",
					"numinlets" : 2,
					"numoutlets" : 1,
					"outlettype" : [ "" ],
					"patching_rect" : [ 1609.812744, 585.0, 104.030151, 15.0 ],
					"text" : "0.414307 0.952393"
				}

			}
, 			{
				"box" : 				{
					"fontname" : "Calibri",
					"fontsize" : 11.0,
					"id" : "obj-103",
					"maxclass" : "flonum",
					"numinlets" : 1,
					"numoutlets" : 2,
					"outlettype" : [ "float", "bang" ],
					"parameter_enable" : 0,
					"patching_rect" : [ 1692.842896, 381.5, 66.0, 17.0 ]
				}

			}
, 			{
				"box" : 				{
					"fontname" : "Calibri",
					"fontsize" : 11.0,
					"id" : "obj-4",
					"maxclass" : "flonum",
					"numinlets" : 1,
					"numoutlets" : 2,
					"outlettype" : [ "float", "bang" ],
					"parameter_enable" : 0,
					"patching_rect" : [ 1758.842896, 381.5, 66.0, 17.0 ]
				}

			}
, 			{
				"box" : 				{
					"fontname" : "Calibri",
					"fontsize" : 11.0,
					"id" : "obj-104",
					"maxclass" : "message",
					"numinlets" : 2,
					"numoutlets" : 1,
					"outlettype" : [ "" ],
					"patching_rect" : [ 1598.591187, 274.5, 32.5, 15.0 ],
					"text" : "clear"
				}

			}
, 			{
				"box" : 				{
					"fontname" : "Calibri",
					"fontsize" : 11.0,
					"id" : "obj-105",
					"maxclass" : "newobj",
					"numinlets" : 2,
					"numoutlets" : 1,
					"outlettype" : [ "bang" ],
					"patching_rect" : [ 1428.842896, 544.190186, 45.0, 17.0 ],
					"text" : "delay 0"
				}

			}
, 			{
				"box" : 				{
					"fontname" : "Calibri",
					"fontsize" : 11.0,
					"id" : "obj-51",
					"maxclass" : "newobj",
					"numinlets" : 1,
					"numoutlets" : 2,
					"outlettype" : [ "bang", "float" ],
					"patching_rect" : [ 1428.842896, 491.651367, 43.0, 17.0 ],
					"text" : "t b f"
				}

			}
, 			{
				"box" : 				{
					"id" : "obj-106",
					"maxclass" : "button",
					"numinlets" : 1,
					"numoutlets" : 1,
					"outlettype" : [ "bang" ],
					"patching_rect" : [ 1428.842896, 517.651367, 20.0, 20.0 ]
				}

			}
, 			{
				"box" : 				{
					"fontname" : "Calibri",
					"fontsize" : 11.0,
					"id" : "obj-108",
					"maxclass" : "message",
					"numinlets" : 2,
					"numoutlets" : 1,
					"outlettype" : [ "" ],
					"patching_rect" : [ 1347.842896, 585.038818, 166.0, 15.0 ],
					"text" : "0. 0.296647 0.480547"
				}

			}
, 			{
				"box" : 				{
					"fontname" : "Calibri",
					"fontsize" : 11.0,
					"id" : "obj-110",
					"maxclass" : "flonum",
					"numinlets" : 1,
					"numoutlets" : 2,
					"outlettype" : [ "float", "bang" ],
					"parameter_enable" : 0,
					"patching_rect" : [ 1428.842896, 465.769409, 59.5, 17.0 ]
				}

			}
, 			{
				"box" : 				{
					"fontname" : "Calibri",
					"fontsize" : 11.0,
					"id" : "obj-111",
					"maxclass" : "newobj",
					"numinlets" : 2,
					"numoutlets" : 1,
					"outlettype" : [ "float" ],
					"patching_rect" : [ 1428.842896, 435.769409, 32.5, 17.0 ],
					"text" : "- 0."
				}

			}
, 			{
				"box" : 				{
					"fontname" : "Calibri",
					"fontsize" : 11.0,
					"id" : "obj-112",
					"maxclass" : "newobj",
					"numinlets" : 1,
					"numoutlets" : 2,
					"outlettype" : [ "float", "float" ],
					"patching_rect" : [ 1428.842896, 406.5, 32.5, 17.0 ],
					"text" : "t f f"
				}

			}
, 			{
				"box" : 				{
					"fontname" : "Calibri",
					"fontsize" : 11.0,
					"id" : "obj-113",
					"maxclass" : "flonum",
					"numinlets" : 1,
					"numoutlets" : 2,
					"outlettype" : [ "float", "bang" ],
					"parameter_enable" : 0,
					"patching_rect" : [ 1428.842896, 381.5, 66.0, 17.0 ]
				}

			}
, 			{
				"box" : 				{
					"fontname" : "Calibri",
					"fontsize" : 11.0,
					"id" : "obj-114",
					"maxclass" : "flonum",
					"numinlets" : 1,
					"numoutlets" : 2,
					"outlettype" : [ "float", "bang" ],
					"parameter_enable" : 0,
					"patching_rect" : [ 1494.842896, 381.5, 66.0, 17.0 ]
				}

			}
, 			{
				"box" : 				{
					"fontname" : "Calibri",
					"fontsize" : 11.0,
					"id" : "obj-115",
					"maxclass" : "flonum",
					"numinlets" : 1,
					"numoutlets" : 2,
					"outlettype" : [ "float", "bang" ],
					"parameter_enable" : 0,
					"patching_rect" : [ 1560.842896, 381.5, 66.0, 17.0 ]
				}

			}
, 			{
				"box" : 				{
					"fontname" : "Calibri",
					"fontsize" : 11.0,
					"id" : "obj-116",
					"maxclass" : "flonum",
					"numinlets" : 1,
					"numoutlets" : 2,
					"outlettype" : [ "float", "bang" ],
					"parameter_enable" : 0,
					"patching_rect" : [ 1626.842896, 381.5, 66.0, 17.0 ]
				}

			}
, 			{
				"box" : 				{
					"fontname" : "Calibri",
					"fontsize" : 11.0,
					"id" : "obj-117",
					"maxclass" : "newobj",
					"numinlets" : 1,
					"numoutlets" : 6,
					"outlettype" : [ "float", "float", "float", "float", "float", "float" ],
					"patching_rect" : [ 1428.842896, 351.5, 349.0, 17.0 ],
					"text" : "unpack f f f f f f"
				}

			}
, 			{
				"box" : 				{
					"id" : "obj-118",
					"maxclass" : "button",
					"numinlets" : 1,
					"numoutlets" : 1,
					"outlettype" : [ "bang" ],
					"patching_rect" : [ 1442.342896, 192.5, 20.0, 20.0 ]
				}

			}
, 			{
				"box" : 				{
					"id" : "obj-119",
					"maxclass" : "button",
					"numinlets" : 1,
					"numoutlets" : 1,
					"outlettype" : [ "bang" ],
					"patching_rect" : [ 1469.342896, 192.5, 20.0, 20.0 ]
				}

			}
, 			{
				"box" : 				{
					"fontname" : "Calibri",
					"fontsize" : 11.0,
					"id" : "obj-120",
					"maxclass" : "number",
					"numinlets" : 1,
					"numoutlets" : 2,
					"outlettype" : [ "int", "bang" ],
					"parameter_enable" : 0,
					"patching_rect" : [ 1428.842896, 274.5, 50.0, 17.0 ]
				}

			}
, 			{
				"box" : 				{
					"fontname" : "Calibri",
					"fontsize" : 11.0,
					"id" : "obj-121",
					"maxclass" : "newobj",
					"numinlets" : 5,
					"numoutlets" : 4,
					"outlettype" : [ "int", "", "", "int" ],
					"patching_rect" : [ 1428.842896, 246.5, 73.0, 17.0 ],
					"text" : "counter"
				}

			}
, 			{
				"box" : 				{
					"fontname" : "Calibri",
					"fontsize" : 11.0,
					"id" : "obj-122",
					"maxclass" : "message",
					"numinlets" : 2,
					"numoutlets" : 1,
					"outlettype" : [ "" ],
					"patching_rect" : [ 1560.842896, 274.5, 32.5, 15.0 ],
					"text" : "read"
				}

			}
, 			{
				"box" : 				{
					"fontname" : "Calibri",
					"fontsize" : 11.0,
					"id" : "obj-1",
					"maxclass" : "newobj",
					"numinlets" : 1,
					"numoutlets" : 4,
					"outlettype" : [ "", "", "", "" ],
					"patching_rect" : [ 1428.842896, 317.5, 59.5, 17.0 ],
					"saved_object_attributes" : 					{
						"embed" : 0
					}
,
					"text" : "coll"
				}

			}
, 			{
				"box" : 				{
					"fontname" : "Calibri",
					"fontsize" : 11.0,
					"frgb" : 0.0,
					"id" : "obj-57",
					"maxclass" : "comment",
					"numinlets" : 1,
					"numoutlets" : 0,
					"patching_rect" : [ 989.763184, 318.151367, 66.572021, 17.0 ],
					"text" : "Microphone",
					"textcolor" : [ 1.0, 0.568627, 0.376471, 1.0 ]
				}

			}
, 			{
				"box" : 				{
					"bgcolor" : [ 0.894118, 0.894118, 0.894118, 1.0 ],
					"fontname" : "Calibri",
					"fontsize" : 11.0,
					"id" : "obj-55",
					"maxclass" : "flonum",
					"numinlets" : 1,
					"numoutlets" : 2,
					"outlettype" : [ "float", "bang" ],
					"parameter_enable" : 0,
					"patching_rect" : [ 919.763184, 397.651367, 49.0, 17.0 ]
				}

			}
, 			{
				"box" : 				{
					"bgcolor" : [ 0.894118, 0.894118, 0.894118, 1.0 ],
					"fontname" : "Calibri",
					"fontsize" : 11.0,
					"id" : "obj-56",
					"maxclass" : "flonum",
					"numinlets" : 1,
					"numoutlets" : 2,
					"outlettype" : [ "float", "bang" ],
					"parameter_enable" : 0,
					"patching_rect" : [ 848.763184, 397.651367, 49.0, 17.0 ]
				}

			}
, 			{
				"box" : 				{
					"fontname" : "Calibri",
					"fontsize" : 11.0,
					"frgb" : 0.0,
					"id" : "obj-46",
					"maxclass" : "comment",
					"numinlets" : 1,
					"numoutlets" : 0,
					"patching_rect" : [ 902.763184, 317.151367, 25.144165, 17.0 ],
					"text" : "Yf",
					"textcolor" : [ 1.0, 0.568627, 0.376471, 1.0 ]
				}

			}
, 			{
				"box" : 				{
					"fontname" : "Calibri",
					"fontsize" : 11.0,
					"frgb" : 0.0,
					"id" : "obj-49",
					"maxclass" : "comment",
					"numinlets" : 1,
					"numoutlets" : 0,
					"patching_rect" : [ 847.908081, 317.151367, 26.099182, 17.0 ],
					"text" : "Xf",
					"textcolor" : [ 1.0, 0.568627, 0.376471, 1.0 ]
				}

			}
, 			{
				"box" : 				{
					"color" : [ 0.894118, 0.894118, 0.894118, 1.0 ],
					"fontname" : "Calibri",
					"fontsize" : 11.0,
					"id" : "obj-52",
					"maxclass" : "newobj",
					"numinlets" : 1,
					"numoutlets" : 3,
					"outlettype" : [ "bang", "float", "bang" ],
					"patching_rect" : [ 836.763184, 339.151367, 43.0, 17.0 ],
					"text" : "t b f b"
				}

			}
, 			{
				"box" : 				{
					"fontname" : "Calibri",
					"fontsize" : 11.0,
					"frgb" : 0.0,
					"id" : "obj-45",
					"maxclass" : "comment",
					"numinlets" : 1,
					"numoutlets" : 0,
					"patching_rect" : [ 760.763184, 317.151367, 25.144165, 17.0 ],
					"text" : "Ys",
					"textcolor" : [ 1.0, 0.568627, 0.376471, 1.0 ]
				}

			}
, 			{
				"box" : 				{
					"fontname" : "Calibri",
					"fontsize" : 11.0,
					"frgb" : 0.0,
					"id" : "obj-37",
					"maxclass" : "comment",
					"numinlets" : 1,
					"numoutlets" : 0,
					"patching_rect" : [ 705.908081, 317.151367, 22.144165, 17.0 ],
					"text" : "Xs",
					"textcolor" : [ 1.0, 0.568627, 0.376471, 1.0 ]
				}

			}
, 			{
				"box" : 				{
					"fontname" : "Calibri",
					"fontsize" : 11.0,
					"frgb" : 0.0,
					"id" : "obj-30",
					"maxclass" : "comment",
					"numinlets" : 1,
					"numoutlets" : 0,
					"patching_rect" : [ 646.908081, 288.0, 20.183838, 17.0 ],
					"text" : "P",
					"textcolor" : [ 1.0, 0.568627, 0.376471, 1.0 ]
				}

			}
, 			{
				"box" : 				{
					"fontname" : "Calibri",
					"fontsize" : 12.67015,
					"frgb" : 0.0,
					"id" : "obj-17",
					"linecount" : 4,
					"maxclass" : "comment",
					"numinlets" : 1,
					"numoutlets" : 0,
					"patching_rect" : [ 27.120728, 585.0, 446.0, 57.0 ],
					"presentation" : 1,
					"presentation_linecount" : 2,
					"presentation_rect" : [ 24.5, 104.149887, 545.5, 32.0 ],
					"text" : "1- Sample number;     2- CPU Time;     3- Stylus Pressure;     4- X Stylus coordinate;\n 5- Y Stylus coordinate;    6- X Finger coordinate;     7- Y Finger coordinate;     8- Microphone;",
					"textcolor" : [ 0.901961, 0.901961, 0.901961, 1.0 ]
				}

			}
, 			{
				"box" : 				{
					"fontname" : "Calibri",
					"fontsize" : 36.0,
					"frgb" : 0.0,
					"id" : "obj-3",
					"maxclass" : "comment",
					"numinlets" : 1,
					"numoutlets" : 0,
					"patching_rect" : [ 36.579346, 21.0, 211.511841, 42.0 ],
					"presentation" : 1,
					"presentation_rect" : [ 24.5, 15.0, 212.0, 42.0 ],
					"text" : "Record Data",
					"textcolor" : [ 0.952929, 0.387438, 0.091084, 1.0 ]
				}

			}
, 			{
				"box" : 				{
					"fontname" : "Calibri",
					"fontsize" : 15.208509,
					"frgb" : 0.0,
					"id" : "obj-2",
					"linecount" : 2,
					"maxclass" : "comment",
					"numinlets" : 1,
					"numoutlets" : 0,
					"patching_rect" : [ 27.120728, 525.651367, 274.0, 37.0 ],
					"presentation" : 1,
					"presentation_rect" : [ 24.5, 76.309761, 545.5, 22.0 ],
					"text" : "Save data on a text file. Each line is a new sample. The columns are:",
					"textcolor" : [ 0.901961, 0.901961, 0.901961, 1.0 ]
				}

			}
, 			{
				"box" : 				{
					"bgcolor" : [ 0.819176, 0.819176, 0.819176, 1.0 ],
					"bgoncolor" : [ 0.678431, 0.917647, 0.352941, 1.0 ],
					"bgovercolor" : [ 0.959213, 0.498012, 0.272024, 1.0 ],
					"bgoveroncolor" : [ 0.960784, 0.498039, 0.270588, 1.0 ],
					"border" : 0,
					"borderoncolor" : [ 0.364178, 0.899081, 0.0, 1.0 ],
					"fontname" : "Calibri",
					"fontsize" : 30.0,
					"id" : "obj-47",
					"maxclass" : "textbutton",
					"numinlets" : 1,
					"numoutlets" : 3,
					"outlettype" : [ "", "", "int" ],
					"parameter_enable" : 0,
					"patching_rect" : [ 516.763184, 261.5, 102.0, 96.019409 ],
					"presentation" : 1,
					"presentation_rect" : [ 480.0, 450.0, 195.0, 58.0 ],
					"rounded" : 10.0,
					"text" : "SAVE DATA",
					"texton" : "Recording (On)",
					"textoncolor" : [ 0.0, 0.0, 0.0, 1.0 ],
					"truncate" : 0,
					"varname" : "contactCorrection_button[5]"
				}

			}
, 			{
				"box" : 				{
					"bgcolor" : [ 0.894118, 0.894118, 0.894118, 1.0 ],
					"fontname" : "Calibri",
					"fontsize" : 12.0,
					"id" : "obj-48",
					"maxclass" : "message",
					"numinlets" : 2,
					"numoutlets" : 1,
					"outlettype" : [ "" ],
					"patching_rect" : [ 532.579346, 491.651367, 35.0, 16.0 ],
					"text" : "write"
				}

			}
, 			{
				"box" : 				{
					"bgcolor" : [ 0.819608, 0.819608, 0.819608, 1.0 ],
					"bgcolor2" : [ 0.819608, 0.819608, 0.819608, 1.0 ],
					"fontname" : "Calibri",
					"fontsize" : 12.0,
					"gradient" : 1,
					"id" : "obj-44",
					"maxclass" : "message",
					"numinlets" : 2,
					"numoutlets" : 1,
					"outlettype" : [ "" ],
					"patching_rect" : [ 583.079346, 491.651367, 413.683838, 16.0 ],
					"presentation" : 1,
					"presentation_rect" : [ 255.0, 397.0, 420.0, 16.0 ],
					"text" : "739 1213057.875 0. 0.296647 0.480547 0.414307 0.952393 0."
				}

			}
, 			{
				"box" : 				{
					"bgcolor" : [ 0.819176, 0.819176, 0.819176, 1.0 ],
					"bgoncolor" : [ 0.678431, 0.917647, 0.352941, 1.0 ],
					"bgovercolor" : [ 0.959213, 0.498012, 0.272024, 1.0 ],
					"bgoveroncolor" : [ 0.960784, 0.498039, 0.270588, 1.0 ],
					"border" : 0,
					"borderoncolor" : [ 0.364178, 0.899081, 0.0, 1.0 ],
					"fontname" : "Calibri",
					"fontsize" : 20.0,
					"id" : "obj-43",
					"maxclass" : "textbutton",
					"numinlets" : 1,
					"numoutlets" : 3,
					"outlettype" : [ "", "", "int" ],
					"parameter_enable" : 0,
					"patching_rect" : [ 1175.263184, 202.827148, 80.391357, 18.0 ],
					"presentation" : 1,
					"presentation_rect" : [ 480.0, 524.651367, 195.0, 58.0 ],
					"rounded" : 10.0,
					"text" : "RESET",
					"texton" : "Recording (On)",
					"textoncolor" : [ 0.0, 0.0, 0.0, 1.0 ],
					"truncate" : 0,
					"varname" : "contactCorrection_button[4]"
				}

			}
, 			{
				"box" : 				{
					"bgcolor" : [ 0.819176, 0.819176, 0.819176, 1.0 ],
					"bgoncolor" : [ 0.678431, 0.917647, 0.352941, 1.0 ],
					"bgovercolor" : [ 0.959213, 0.498012, 0.272024, 1.0 ],
					"bgoveroncolor" : [ 0.960784, 0.498039, 0.270588, 1.0 ],
					"border" : 0,
					"borderoncolor" : [ 0.364178, 0.899081, 0.0, 1.0 ],
					"fontname" : "Calibri",
					"fontsize" : 20.0,
					"id" : "obj-40",
					"maxclass" : "textbutton",
					"mode" : 1,
					"numinlets" : 1,
					"numoutlets" : 3,
					"outlettype" : [ "", "", "int" ],
					"parameter_enable" : 0,
					"patching_rect" : [ 635.763184, 94.0, 136.263123, 36.0 ],
					"presentation" : 1,
					"presentation_rect" : [ 570.0, 75.0, 105.0, 68.0 ],
					"rounded" : 10.0,
					"text" : "Recording (Off)",
					"texton" : "Recording (On)",
					"textoncolor" : [ 0.0, 0.0, 0.0, 1.0 ],
					"truncate" : 0,
					"varname" : "contactCorrection_button[3]"
				}

			}
, 			{
				"box" : 				{
					"fontname" : "Calibri",
					"fontsize" : 18.0,
					"frgb" : 0.0,
					"id" : "obj-13",
					"linecount" : 2,
					"maxclass" : "comment",
					"numinlets" : 1,
					"numoutlets" : 0,
					"patching_rect" : [ 36.579346, 90.0, 515.0, 42.0 ],
					"presentation" : 1,
					"presentation_linecount" : 2,
					"presentation_rect" : [ 45.0, 165.0, 616.0, 42.0 ],
					"text" : "PRELIMINARY STEPS FOR THE RECORDING OF SEVERAL CANTOR DIGITALIS PLAYERS IN PARALLEL (CHOIR)",
					"textcolor" : [ 0.901961, 0.901961, 0.901961, 1.0 ]
				}

			}
, 			{
				"box" : 				{
					"fontname" : "Calibri",
					"fontsize" : 14.0,
					"frgb" : 0.0,
					"id" : "obj-15",
					"linecount" : 3,
					"maxclass" : "comment",
					"numinlets" : 1,
					"numoutlets" : 0,
					"patching_rect" : [ 96.579346, 373.5, 308.0, 48.0 ],
					"presentation" : 1,
					"presentation_linecount" : 2,
					"presentation_rect" : [ 120.0, 533.151367, 364.0, 34.0 ],
					"text" : "Open the .txt and check if the saving worked. If so, click on RESET to empty the buffer and make new recordings.",
					"textcolor" : [ 0.901961, 0.901961, 0.901961, 1.0 ]
				}

			}
, 			{
				"box" : 				{
					"fontname" : "Calibri",
					"fontsize" : 14.0,
					"frgb" : 0.0,
					"id" : "obj-16",
					"linecount" : 2,
					"maxclass" : "comment",
					"numinlets" : 1,
					"numoutlets" : 0,
					"patching_rect" : [ 96.579346, 456.651367, 368.0, 34.0 ],
					"presentation" : 1,
					"presentation_linecount" : 2,
					"presentation_rect" : [ 120.0, 458.5, 352.0, 34.0 ],
					"text" : "Click on SAVE DATA and choose the name and place of the saved file (.txt)",
					"textcolor" : [ 0.901961, 0.901961, 0.901961, 1.0 ]
				}

			}
, 			{
				"box" : 				{
					"fontname" : "Calibri",
					"fontsize" : 14.0,
					"frgb" : 0.0,
					"id" : "obj-19",
					"linecount" : 3,
					"maxclass" : "comment",
					"numinlets" : 1,
					"numoutlets" : 0,
					"patching_rect" : [ 96.579346, 223.651367, 391.0, 48.0 ],
					"presentation" : 1,
					"presentation_linecount" : 3,
					"presentation_rect" : [ 120.0, 300.0, 391.0, 48.0 ],
					"text" : "Produce an impulse sond (e.g. hand clap) to have a common event in every tablet recording for post-synchronization.\nClick on the microphone to turn it off.",
					"textcolor" : [ 0.901961, 0.901961, 0.901961, 1.0 ]
				}

			}
, 			{
				"box" : 				{
					"fontname" : "Calibri",
					"fontsize" : 14.0,
					"frgb" : 0.0,
					"id" : "obj-20",
					"maxclass" : "comment",
					"numinlets" : 1,
					"numoutlets" : 0,
					"patching_rect" : [ 96.579346, 315.5, 113.0, 20.0 ],
					"presentation" : 1,
					"presentation_rect" : [ 120.0, 394.5, 113.0, 20.0 ],
					"text" : "Play",
					"textcolor" : [ 0.901961, 0.901961, 0.901961, 1.0 ]
				}

			}
, 			{
				"box" : 				{
					"fontname" : "Calibri",
					"fontsize" : 14.0,
					"frgb" : 0.0,
					"id" : "obj-22",
					"linecount" : 2,
					"maxclass" : "comment",
					"numinlets" : 1,
					"numoutlets" : 0,
					"patching_rect" : [ 96.579346, 158.5, 222.0, 34.0 ],
					"presentation" : 1,
					"presentation_rect" : [ 120.0, 242.0, 382.0, 20.0 ],
					"text" : "Click on the microphone (green color if on) and remain quiet",
					"textcolor" : [ 0.901961, 0.901961, 0.901961, 1.0 ]
				}

			}
, 			{
				"box" : 				{
					"bgcolor" : [ 0.952941, 0.388235, 0.090196, 1.0 ],
					"border" : 0,
					"bordercolor" : [ 0.0, 0.0, 0.0, 1.0 ],
					"fontface" : 1,
					"fontname" : "Calibri",
					"fontsize" : 36.0,
					"hint" : "",
					"id" : "obj-23",
					"ignoreclick" : 1,
					"maxclass" : "textbutton",
					"numinlets" : 1,
					"numoutlets" : 3,
					"outlettype" : [ "", "", "int" ],
					"parameter_enable" : 0,
					"patching_rect" : [ 36.579346, 448.151367, 57.0, 58.0 ],
					"presentation" : 1,
					"presentation_rect" : [ 45.0, 524.651367, 57.0, 58.0 ],
					"rounded" : 60.0,
					"text" : "5",
					"textcolor" : [ 1.0, 1.0, 1.0, 1.0 ],
					"textovercolor" : [ 0.2, 0.2, 0.2, 1.0 ]
				}

			}
, 			{
				"box" : 				{
					"bgcolor" : [ 0.952941, 0.388235, 0.090196, 1.0 ],
					"border" : 0,
					"bordercolor" : [ 0.0, 0.0, 0.0, 1.0 ],
					"fontface" : 1,
					"fontname" : "Calibri",
					"fontsize" : 36.0,
					"hint" : "",
					"id" : "obj-24",
					"ignoreclick" : 1,
					"maxclass" : "textbutton",
					"numinlets" : 1,
					"numoutlets" : 3,
					"outlettype" : [ "", "", "int" ],
					"parameter_enable" : 0,
					"patching_rect" : [ 36.579346, 223.651367, 57.0, 58.0 ],
					"presentation" : 1,
					"presentation_rect" : [ 45.0, 300.0, 57.0, 58.0 ],
					"rounded" : 60.0,
					"text" : "2",
					"textcolor" : [ 1.0, 1.0, 1.0, 1.0 ],
					"textovercolor" : [ 0.2, 0.2, 0.2, 1.0 ]
				}

			}
, 			{
				"box" : 				{
					"bgcolor" : [ 0.952941, 0.388235, 0.090196, 1.0 ],
					"border" : 0,
					"bordercolor" : [ 0.0, 0.0, 0.0, 1.0 ],
					"fontface" : 1,
					"fontname" : "Calibri",
					"fontsize" : 36.0,
					"hint" : "",
					"id" : "obj-25",
					"ignoreclick" : 1,
					"maxclass" : "textbutton",
					"numinlets" : 1,
					"numoutlets" : 3,
					"outlettype" : [ "", "", "int" ],
					"parameter_enable" : 0,
					"patching_rect" : [ 36.579346, 375.0, 57.0, 58.0 ],
					"presentation" : 1,
					"presentation_rect" : [ 45.0, 450.0, 57.0, 58.0 ],
					"rounded" : 60.0,
					"text" : "4",
					"textcolor" : [ 1.0, 1.0, 1.0, 1.0 ],
					"textovercolor" : [ 0.2, 0.2, 0.2, 1.0 ]
				}

			}
, 			{
				"box" : 				{
					"bgcolor" : [ 0.952941, 0.388235, 0.090196, 1.0 ],
					"border" : 0,
					"bordercolor" : [ 0.0, 0.0, 0.0, 1.0 ],
					"fontface" : 1,
					"fontname" : "Calibri",
					"fontsize" : 36.0,
					"hint" : "",
					"id" : "obj-26",
					"ignoreclick" : 1,
					"maxclass" : "textbutton",
					"numinlets" : 1,
					"numoutlets" : 3,
					"outlettype" : [ "", "", "int" ],
					"parameter_enable" : 0,
					"patching_rect" : [ 36.579346, 298.5, 57.0, 58.0 ],
					"presentation" : 1,
					"presentation_rect" : [ 45.0, 375.0, 57.0, 58.0 ],
					"rounded" : 60.0,
					"text" : "3",
					"textcolor" : [ 1.0, 1.0, 1.0, 1.0 ],
					"textovercolor" : [ 0.2, 0.2, 0.2, 1.0 ]
				}

			}
, 			{
				"box" : 				{
					"bgcolor" : [ 0.952941, 0.388235, 0.090196, 1.0 ],
					"border" : 0,
					"bordercolor" : [ 0.0, 0.0, 0.0, 1.0 ],
					"fontface" : 1,
					"fontname" : "Calibri",
					"fontsize" : 36.0,
					"hint" : "",
					"id" : "obj-33",
					"ignoreclick" : 1,
					"maxclass" : "textbutton",
					"numinlets" : 1,
					"numoutlets" : 3,
					"outlettype" : [ "", "", "int" ],
					"parameter_enable" : 0,
					"patching_rect" : [ 36.579346, 150.0, 57.0, 58.0 ],
					"presentation" : 1,
					"presentation_rect" : [ 45.0, 225.0, 57.0, 58.0 ],
					"rounded" : 60.0,
					"text" : "1",
					"textcolor" : [ 1.0, 1.0, 1.0, 1.0 ],
					"textovercolor" : [ 0.2, 0.2, 0.2, 1.0 ]
				}

			}
, 			{
				"box" : 				{
					"fontname" : "Calibri",
					"fontsize" : 11.0,
					"id" : "obj-5",
					"maxclass" : "newobj",
					"numinlets" : 0,
					"numoutlets" : 1,
					"outlettype" : [ "bang" ],
					"patching_rect" : [ 635.763184, 43.0, 59.0, 17.0 ],
					"text" : "closebang"
				}

			}
, 			{
				"box" : 				{
					"fontname" : "Calibri",
					"fontsize" : 11.0,
					"id" : "obj-21",
					"maxclass" : "newobj",
					"numinlets" : 1,
					"numoutlets" : 1,
					"outlettype" : [ "" ],
					"patching_rect" : [ 635.763184, 67.0, 66.0, 17.0 ],
					"text" : "loadmess 0"
				}

			}
, 			{
				"box" : 				{
					"fontname" : "Calibri",
					"fontsize" : 11.0,
					"id" : "obj-28",
					"maxclass" : "newobj",
					"numinlets" : 2,
					"numoutlets" : 1,
					"outlettype" : [ "" ],
					"patching_rect" : [ 635.763184, 268.0, 36.144897, 17.0 ],
					"text" : "gate"
				}

			}
, 			{
				"box" : 				{
					"fontname" : "Calibri",
					"fontsize" : 11.0,
					"id" : "obj-32",
					"maxclass" : "newobj",
					"numinlets" : 2,
					"numoutlets" : 1,
					"outlettype" : [ "signal" ],
					"patching_rect" : [ 1114.263184, 244.651367, 39.0, 17.0 ],
					"text" : "*~ 0.5"
				}

			}
, 			{
				"box" : 				{
					"fontname" : "Calibri",
					"fontsize" : 11.0,
					"id" : "obj-34",
					"maxclass" : "newobj",
					"numinlets" : 2,
					"numoutlets" : 1,
					"outlettype" : [ "signal" ],
					"patching_rect" : [ 1114.263184, 223.0, 38.0, 17.0 ],
					"text" : "+~"
				}

			}
, 			{
				"box" : 				{
					"fontname" : "Calibri",
					"fontsize" : 11.0,
					"id" : "obj-39",
					"maxclass" : "newobj",
					"numinlets" : 2,
					"numoutlets" : 1,
					"outlettype" : [ "float" ],
					"patching_rect" : [ 978.763184, 297.151367, 70.0, 17.0 ],
					"text" : "snapshot~ 5"
				}

			}
, 			{
				"box" : 				{
					"color" : [ 0.894118, 0.894118, 0.894118, 1.0 ],
					"fontname" : "Calibri",
					"fontsize" : 11.0,
					"id" : "obj-64",
					"maxclass" : "newobj",
					"numinlets" : 1,
					"numoutlets" : 1,
					"outlettype" : [ "bang" ],
					"patching_rect" : [ 1088.763184, 332.151367, 55.0, 17.0 ],
					"text" : "loadbang"
				}

			}
, 			{
				"box" : 				{
					"bgcolor" : [ 0.894118, 0.894118, 0.894118, 1.0 ],
					"fontname" : "Calibri",
					"fontsize" : 11.0,
					"id" : "obj-65",
					"maxclass" : "message",
					"numinlets" : 2,
					"numoutlets" : 1,
					"outlettype" : [ "" ],
					"patching_rect" : [ 1088.763184, 363.269409, 32.0, 15.0 ],
					"text" : "0"
				}

			}
, 			{
				"box" : 				{
					"color" : [ 0.894118, 0.894118, 0.894118, 1.0 ],
					"fontname" : "Calibri",
					"fontsize" : 11.0,
					"id" : "obj-66",
					"maxclass" : "newobj",
					"numinlets" : 2,
					"numoutlets" : 1,
					"outlettype" : [ "int" ],
					"patching_rect" : [ 1135.842529, 397.651367, 29.0, 17.0 ],
					"text" : "+ 1"
				}

			}
, 			{
				"box" : 				{
					"color" : [ 0.894118, 0.894118, 0.894118, 1.0 ],
					"fontname" : "Calibri",
					"fontsize" : 11.0,
					"id" : "obj-67",
					"maxclass" : "newobj",
					"numinlets" : 2,
					"numoutlets" : 1,
					"outlettype" : [ "int" ],
					"patching_rect" : [ 1061.763184, 397.651367, 46.0, 17.0 ],
					"text" : "i"
				}

			}
, 			{
				"box" : 				{
					"color" : [ 0.894118, 0.894118, 0.894118, 1.0 ],
					"fontname" : "Calibri",
					"fontsize" : 11.595187,
					"id" : "obj-68",
					"maxclass" : "newobj",
					"numinlets" : 2,
					"numoutlets" : 2,
					"outlettype" : [ "", "" ],
					"patching_rect" : [ 564.763184, 459.651367, 44.0, 18.0 ],
					"text" : "zl rot 1"
				}

			}
, 			{
				"box" : 				{
					"fontname" : "Calibri",
					"fontsize" : 11.0,
					"id" : "obj-71",
					"maxclass" : "newobj",
					"numinlets" : 1,
					"numoutlets" : 3,
					"outlettype" : [ "bang", "float", "bang" ],
					"patching_rect" : [ 978.763184, 339.151367, 43.0, 17.0 ],
					"text" : "t b f b"
				}

			}
, 			{
				"box" : 				{
					"id" : "obj-73",
					"maxclass" : "button",
					"numinlets" : 1,
					"numoutlets" : 1,
					"outlettype" : [ "bang" ],
					"patching_rect" : [ 564.763184, 374.269409, 20.0, 20.0 ]
				}

			}
, 			{
				"box" : 				{
					"bgcolor" : [ 0.894118, 0.894118, 0.894118, 1.0 ],
					"fontname" : "Calibri",
					"fontsize" : 11.0,
					"id" : "obj-74",
					"maxclass" : "flonum",
					"numinlets" : 1,
					"numoutlets" : 2,
					"outlettype" : [ "float", "bang" ],
					"parameter_enable" : 0,
					"patching_rect" : [ 990.763184, 397.651367, 49.0, 17.0 ]
				}

			}
, 			{
				"box" : 				{
					"bgcolor" : [ 0.894118, 0.894118, 0.894118, 1.0 ],
					"fontname" : "Calibri",
					"fontsize" : 11.0,
					"id" : "obj-77",
					"maxclass" : "flonum",
					"numinlets" : 1,
					"numoutlets" : 2,
					"outlettype" : [ "float", "bang" ],
					"parameter_enable" : 0,
					"patching_rect" : [ 777.763184, 397.651367, 49.0, 17.0 ]
				}

			}
, 			{
				"box" : 				{
					"color" : [ 0.894118, 0.894118, 0.894118, 1.0 ],
					"fontname" : "Calibri",
					"fontsize" : 11.0,
					"id" : "obj-79",
					"maxclass" : "newobj",
					"numinlets" : 1,
					"numoutlets" : 3,
					"outlettype" : [ "bang", "float", "bang" ],
					"patching_rect" : [ 622.763184, 339.151367, 43.0, 17.0 ],
					"text" : "t b f b"
				}

			}
, 			{
				"box" : 				{
					"color" : [ 0.894118, 0.894118, 0.894118, 1.0 ],
					"fontname" : "Calibri",
					"fontsize" : 12.0,
					"id" : "obj-81",
					"maxclass" : "newobj",
					"numinlets" : 8,
					"numoutlets" : 1,
					"outlettype" : [ "" ],
					"patching_rect" : [ 564.763184, 430.651367, 516.0, 18.0 ],
					"text" : "pack f f f f f f f i"
				}

			}
, 			{
				"box" : 				{
					"color" : [ 0.894118, 0.894118, 0.894118, 1.0 ],
					"fontname" : "Calibri",
					"fontsize" : 12.0,
					"id" : "obj-82",
					"maxclass" : "newobj",
					"numinlets" : 1,
					"numoutlets" : 1,
					"outlettype" : [ "float" ],
					"patching_rect" : [ 564.763184, 397.651367, 56.0, 18.0 ],
					"text" : "cpuclock"
				}

			}
, 			{
				"box" : 				{
					"bgcolor" : [ 0.894118, 0.894118, 0.894118, 1.0 ],
					"fontname" : "Calibri",
					"fontsize" : 11.0,
					"id" : "obj-83",
					"maxclass" : "message",
					"numinlets" : 2,
					"numoutlets" : 1,
					"outlettype" : [ "" ],
					"patching_rect" : [ 1164.842529, 397.651367, 33.0, 15.0 ],
					"text" : "clear"
				}

			}
, 			{
				"box" : 				{
					"color" : [ 0.894118, 0.894118, 0.894118, 1.0 ],
					"fontname" : "Calibri",
					"fontsize" : 12.0,
					"id" : "obj-84",
					"maxclass" : "newobj",
					"numinlets" : 1,
					"numoutlets" : 4,
					"outlettype" : [ "", "", "", "" ],
					"patching_rect" : [ 564.763184, 519.0, 57.0, 18.0 ],
					"saved_object_attributes" : 					{
						"embed" : 0
					}
,
					"text" : "coll"
				}

			}
, 			{
				"box" : 				{
					"bgcolor" : [ 0.894118, 0.894118, 0.894118, 1.0 ],
					"fontname" : "Calibri",
					"fontsize" : 11.0,
					"id" : "obj-85",
					"maxclass" : "flonum",
					"numinlets" : 1,
					"numoutlets" : 2,
					"outlettype" : [ "float", "bang" ],
					"parameter_enable" : 0,
					"patching_rect" : [ 706.763184, 397.651367, 49.0, 17.0 ]
				}

			}
, 			{
				"box" : 				{
					"bgcolor" : [ 0.894118, 0.894118, 0.894118, 1.0 ],
					"fontname" : "Calibri",
					"fontsize" : 11.0,
					"id" : "obj-86",
					"maxclass" : "flonum",
					"numinlets" : 1,
					"numoutlets" : 2,
					"outlettype" : [ "float", "bang" ],
					"parameter_enable" : 0,
					"patching_rect" : [ 635.763184, 397.651367, 49.0, 17.0 ]
				}

			}
, 			{
				"box" : 				{
					"bgcolor" : [ 0.407843, 0.407843, 0.407843, 1.0 ],
					"coldcolor" : [ 0.0, 0.658824, 0.0, 1.0 ],
					"id" : "obj-59",
					"maxclass" : "meter~",
					"numinlets" : 1,
					"numoutlets" : 1,
					"outlettype" : [ "float" ],
					"patching_rect" : [ 1051.763184, 297.151367, 15.0, 62.0 ],
					"presentation" : 1,
					"presentation_rect" : [ 603.0, 300.0, 26.0, 58.0 ],
					"tepidcolor" : [ 0.6, 0.729412, 0.0, 1.0 ],
					"warmcolor" : [ 0.85098, 0.85098, 0.0, 1.0 ]
				}

			}
, 			{
				"box" : 				{
					"comment" : "list: stylus position",
					"id" : "obj-224",
					"maxclass" : "inlet",
					"numinlets" : 0,
					"numoutlets" : 1,
					"outlettype" : [ "" ],
					"patching_rect" : [ 711.908081, 225.0, 25.0, 25.0 ]
				}

			}
, 			{
				"box" : 				{
					"background" : 1,
					"bgcolor" : [ 0.992157, 0.988235, 1.0, 0.95 ],
					"border" : 1,
					"grad1" : [ 0.154423, 0.154423, 0.154423, 1.0 ],
					"id" : "obj-8",
					"maxclass" : "panel",
					"numinlets" : 1,
					"numoutlets" : 0,
					"patching_rect" : [ 1306.91333, 31.0, 538.08667, 704.0 ],
					"rounded" : 16
				}

			}
, 			{
				"box" : 				{
					"background" : 1,
					"bgcolor" : [ 1.0, 1.0, 1.0, 0.25 ],
					"border" : 1,
					"bordercolor" : [ 0.952929, 0.387438, 0.091084, 1.0 ],
					"grad1" : [ 0.154423, 0.154423, 0.154423, 1.0 ],
					"id" : "obj-36",
					"maxclass" : "panel",
					"numinlets" : 1,
					"numoutlets" : 0,
					"patching_rect" : [ 36.579346, 150.0, 447.0, 141.0 ],
					"presentation" : 1,
					"presentation_rect" : [ 30.0, 165.0, 645.0, 204.0 ],
					"rounded" : 16
				}

			}
, 			{
				"box" : 				{
					"background" : 1,
					"bgcolor" : [ 0.992157, 0.988235, 1.0, 0.95 ],
					"border" : 1,
					"grad1" : [ 0.154423, 0.154423, 0.154423, 1.0 ],
					"id" : "obj-7",
					"maxclass" : "panel",
					"numinlets" : 1,
					"numoutlets" : 0,
					"patching_rect" : [ 495.0, 30.0, 765.0, 525.0 ],
					"rounded" : 16
				}

			}
, 			{
				"box" : 				{
					"background" : 1,
					"bgcolor" : [ 1.0, 1.0, 1.0, 0.25 ],
					"border" : 1,
					"bordercolor" : [ 0.952929, 0.387438, 0.091084, 1.0 ],
					"grad1" : [ 0.154423, 0.154423, 0.154423, 1.0 ],
					"id" : "obj-38",
					"maxclass" : "panel",
					"numinlets" : 1,
					"numoutlets" : 0,
					"patching_rect" : [ 15.0, 15.0, 1260.0, 645.0 ],
					"presentation" : 1,
					"presentation_rect" : [ 15.0, 15.0, 675.0, 585.0 ],
					"rounded" : 16
				}

			}
, 			{
				"box" : 				{
					"background" : 1,
					"bgcolor" : [ 1.0, 1.0, 1.0, 0.25 ],
					"border" : 1,
					"bordercolor" : [ 0.952929, 0.387438, 0.091084, 1.0 ],
					"grad1" : [ 0.154423, 0.154423, 0.154423, 1.0 ],
					"id" : "obj-130",
					"maxclass" : "panel",
					"numinlets" : 1,
					"numoutlets" : 0,
					"patching_rect" : [ 1287.506836, 15.0, 572.493164, 735.0 ],
					"presentation" : 1,
					"presentation_rect" : [ 705.0, 15.0, 225.0, 300.0 ],
					"rounded" : 16
				}

			}
 ],
		"lines" : [ 			{
				"patchline" : 				{
					"destination" : [ "obj-117", 0 ],
					"disabled" : 0,
					"hidden" : 0,
					"source" : [ "obj-1", 0 ]
				}

			}
, 			{
				"patchline" : 				{
					"destination" : [ "obj-138", 1 ],
					"disabled" : 0,
					"hidden" : 0,
					"midpoints" : [ 1619.312744, 609.920776, 1730.312744, 609.920776 ],
					"source" : [ "obj-102", 0 ]
				}

			}
, 			{
				"patchline" : 				{
					"destination" : [ "obj-157", 0 ],
					"disabled" : 0,
					"hidden" : 0,
					"source" : [ "obj-103", 0 ]
				}

			}
, 			{
				"patchline" : 				{
					"destination" : [ "obj-1", 0 ],
					"disabled" : 0,
					"hidden" : 0,
					"midpoints" : [ 1608.091187, 305.0, 1438.342896, 305.0 ],
					"source" : [ "obj-104", 0 ]
				}

			}
, 			{
				"patchline" : 				{
					"destination" : [ "obj-102", 0 ],
					"disabled" : 0,
					"hidden" : 0,
					"midpoints" : [ 1438.342896, 575.038818, 1619.312744, 575.038818 ],
					"source" : [ "obj-105", 0 ]
				}

			}
, 			{
				"patchline" : 				{
					"destination" : [ "obj-108", 0 ],
					"disabled" : 0,
					"hidden" : 0,
					"midpoints" : [ 1438.342896, 575.038818, 1357.342896, 575.038818 ],
					"source" : [ "obj-105", 0 ]
				}

			}
, 			{
				"patchline" : 				{
					"destination" : [ "obj-118", 0 ],
					"disabled" : 0,
					"hidden" : 0,
					"midpoints" : [ 1438.342896, 569.5, 1335.091187, 569.5, 1335.091187, 116.5, 1451.842896, 116.5 ],
					"source" : [ "obj-105", 0 ]
				}

			}
, 			{
				"patchline" : 				{
					"destination" : [ "obj-105", 0 ],
					"disabled" : 0,
					"hidden" : 0,
					"source" : [ "obj-106", 0 ]
				}

			}
, 			{
				"patchline" : 				{
					"destination" : [ "obj-137", 1 ],
					"disabled" : 0,
					"hidden" : 0,
					"midpoints" : [ 1357.342896, 609.920776, 1465.671509, 609.920776 ],
					"source" : [ "obj-108", 0 ]
				}

			}
, 			{
				"patchline" : 				{
					"destination" : [ "obj-62", 0 ],
					"disabled" : 0,
					"hidden" : 0,
					"source" : [ "obj-11", 0 ]
				}

			}
, 			{
				"patchline" : 				{
					"destination" : [ "obj-51", 0 ],
					"disabled" : 0,
					"hidden" : 0,
					"source" : [ "obj-110", 0 ]
				}

			}
, 			{
				"patchline" : 				{
					"destination" : [ "obj-110", 0 ],
					"disabled" : 0,
					"hidden" : 0,
					"source" : [ "obj-111", 0 ]
				}

			}
, 			{
				"patchline" : 				{
					"destination" : [ "obj-111", 0 ],
					"disabled" : 0,
					"hidden" : 0,
					"source" : [ "obj-112", 1 ]
				}

			}
, 			{
				"patchline" : 				{
					"destination" : [ "obj-111", 1 ],
					"disabled" : 0,
					"hidden" : 0,
					"source" : [ "obj-112", 0 ]
				}

			}
, 			{
				"patchline" : 				{
					"destination" : [ "obj-112", 0 ],
					"disabled" : 0,
					"hidden" : 0,
					"source" : [ "obj-113", 0 ]
				}

			}
, 			{
				"patchline" : 				{
					"destination" : [ "obj-156", 0 ],
					"disabled" : 0,
					"hidden" : 0,
					"source" : [ "obj-114", 0 ]
				}

			}
, 			{
				"patchline" : 				{
					"destination" : [ "obj-156", 1 ],
					"disabled" : 0,
					"hidden" : 0,
					"source" : [ "obj-115", 0 ]
				}

			}
, 			{
				"patchline" : 				{
					"destination" : [ "obj-156", 2 ],
					"disabled" : 0,
					"hidden" : 0,
					"source" : [ "obj-116", 0 ]
				}

			}
, 			{
				"patchline" : 				{
					"destination" : [ "obj-103", 0 ],
					"disabled" : 0,
					"hidden" : 0,
					"source" : [ "obj-117", 4 ]
				}

			}
, 			{
				"patchline" : 				{
					"destination" : [ "obj-113", 0 ],
					"disabled" : 0,
					"hidden" : 0,
					"source" : [ "obj-117", 0 ]
				}

			}
, 			{
				"patchline" : 				{
					"destination" : [ "obj-114", 0 ],
					"disabled" : 0,
					"hidden" : 0,
					"source" : [ "obj-117", 1 ]
				}

			}
, 			{
				"patchline" : 				{
					"destination" : [ "obj-115", 0 ],
					"disabled" : 0,
					"hidden" : 0,
					"source" : [ "obj-117", 2 ]
				}

			}
, 			{
				"patchline" : 				{
					"destination" : [ "obj-116", 0 ],
					"disabled" : 0,
					"hidden" : 0,
					"source" : [ "obj-117", 3 ]
				}

			}
, 			{
				"patchline" : 				{
					"destination" : [ "obj-4", 0 ],
					"disabled" : 0,
					"hidden" : 0,
					"source" : [ "obj-117", 5 ]
				}

			}
, 			{
				"patchline" : 				{
					"destination" : [ "obj-99", 1 ],
					"disabled" : 0,
					"hidden" : 0,
					"source" : [ "obj-118", 0 ]
				}

			}
, 			{
				"patchline" : 				{
					"destination" : [ "obj-121", 3 ],
					"disabled" : 0,
					"hidden" : 0,
					"source" : [ "obj-119", 0 ]
				}

			}
, 			{
				"patchline" : 				{
					"destination" : [ "obj-1", 0 ],
					"disabled" : 0,
					"hidden" : 0,
					"source" : [ "obj-120", 0 ]
				}

			}
, 			{
				"patchline" : 				{
					"destination" : [ "obj-120", 0 ],
					"disabled" : 0,
					"hidden" : 0,
					"source" : [ "obj-121", 0 ]
				}

			}
, 			{
				"patchline" : 				{
					"destination" : [ "obj-1", 0 ],
					"disabled" : 0,
					"hidden" : 0,
					"midpoints" : [ 1570.342896, 305.0, 1438.342896, 305.0 ],
					"source" : [ "obj-122", 0 ]
				}

			}
, 			{
				"patchline" : 				{
					"destination" : [ "obj-134", 0 ],
					"disabled" : 0,
					"hidden" : 0,
					"source" : [ "obj-132", 0 ]
				}

			}
, 			{
				"patchline" : 				{
					"destination" : [ "obj-43", 0 ],
					"disabled" : 0,
					"hidden" : 0,
					"midpoints" : [ 1001.763184, 170.425781, 1184.763184, 170.425781 ],
					"source" : [ "obj-132", 1 ]
				}

			}
, 			{
				"patchline" : 				{
					"destination" : [ "obj-195", 0 ],
					"disabled" : 0,
					"hidden" : 0,
					"source" : [ "obj-134", 0 ]
				}

			}
, 			{
				"patchline" : 				{
					"destination" : [ "obj-143", 0 ],
					"disabled" : 0,
					"hidden" : 0,
					"source" : [ "obj-137", 0 ]
				}

			}
, 			{
				"patchline" : 				{
					"destination" : [ "obj-146", 0 ],
					"disabled" : 0,
					"hidden" : 0,
					"source" : [ "obj-138", 0 ]
				}

			}
, 			{
				"patchline" : 				{
					"destination" : [ "obj-108", 1 ],
					"disabled" : 0,
					"hidden" : 0,
					"source" : [ "obj-156", 0 ]
				}

			}
, 			{
				"patchline" : 				{
					"destination" : [ "obj-102", 1 ],
					"disabled" : 0,
					"hidden" : 0,
					"source" : [ "obj-157", 0 ]
				}

			}
, 			{
				"patchline" : 				{
					"destination" : [ "obj-34", 1 ],
					"disabled" : 0,
					"hidden" : 0,
					"source" : [ "obj-165", 1 ]
				}

			}
, 			{
				"patchline" : 				{
					"destination" : [ "obj-34", 0 ],
					"disabled" : 0,
					"hidden" : 0,
					"source" : [ "obj-165", 0 ]
				}

			}
, 			{
				"patchline" : 				{
					"destination" : [ "obj-75", 0 ],
					"disabled" : 0,
					"hidden" : 0,
					"source" : [ "obj-168", 0 ]
				}

			}
, 			{
				"patchline" : 				{
					"destination" : [ "obj-28", 1 ],
					"disabled" : 0,
					"hidden" : 0,
					"source" : [ "obj-18", 0 ]
				}

			}
, 			{
				"patchline" : 				{
					"destination" : [ "obj-27", 0 ],
					"disabled" : 0,
					"hidden" : 0,
					"midpoints" : [ 988.263184, 240.825684, 1060.763184, 240.825684 ],
					"source" : [ "obj-195", 0 ]
				}

			}
, 			{
				"patchline" : 				{
					"destination" : [ "obj-53", 0 ],
					"disabled" : 0,
					"hidden" : 0,
					"source" : [ "obj-195", 0 ]
				}

			}
, 			{
				"patchline" : 				{
					"destination" : [ "obj-40", 0 ],
					"disabled" : 0,
					"hidden" : 0,
					"source" : [ "obj-21", 0 ]
				}

			}
, 			{
				"patchline" : 				{
					"destination" : [ "obj-9", 1 ],
					"disabled" : 0,
					"hidden" : 0,
					"source" : [ "obj-224", 0 ]
				}

			}
, 			{
				"patchline" : 				{
					"destination" : [ "obj-39", 0 ],
					"disabled" : 0,
					"hidden" : 0,
					"midpoints" : [ 1060.763184, 292.901367, 988.263184, 292.901367 ],
					"source" : [ "obj-27", 0 ]
				}

			}
, 			{
				"patchline" : 				{
					"destination" : [ "obj-59", 0 ],
					"disabled" : 0,
					"hidden" : 0,
					"source" : [ "obj-27", 0 ]
				}

			}
, 			{
				"patchline" : 				{
					"destination" : [ "obj-79", 0 ],
					"disabled" : 0,
					"hidden" : 0,
					"midpoints" : [ 645.263184, 328.151367, 632.263184, 328.151367 ],
					"source" : [ "obj-28", 0 ]
				}

			}
, 			{
				"patchline" : 				{
					"destination" : [ "obj-11", 1 ],
					"disabled" : 0,
					"hidden" : 0,
					"source" : [ "obj-29", 0 ]
				}

			}
, 			{
				"patchline" : 				{
					"destination" : [ "obj-27", 1 ],
					"disabled" : 0,
					"hidden" : 0,
					"source" : [ "obj-32", 0 ]
				}

			}
, 			{
				"patchline" : 				{
					"destination" : [ "obj-32", 0 ],
					"disabled" : 0,
					"hidden" : 0,
					"source" : [ "obj-34", 0 ]
				}

			}
, 			{
				"patchline" : 				{
					"destination" : [ "obj-71", 0 ],
					"disabled" : 0,
					"hidden" : 0,
					"source" : [ "obj-39", 0 ]
				}

			}
, 			{
				"patchline" : 				{
					"destination" : [ "obj-157", 1 ],
					"disabled" : 0,
					"hidden" : 0,
					"source" : [ "obj-4", 0 ]
				}

			}
, 			{
				"patchline" : 				{
					"destination" : [ "obj-11", 0 ],
					"disabled" : 0,
					"hidden" : 0,
					"midpoints" : [ 645.263184, 198.5, 846.263184, 198.5 ],
					"source" : [ "obj-40", 0 ]
				}

			}
, 			{
				"patchline" : 				{
					"destination" : [ "obj-132", 0 ],
					"disabled" : 0,
					"hidden" : 0,
					"midpoints" : [ 645.263184, 139.0, 988.263184, 139.0 ],
					"source" : [ "obj-40", 0 ]
				}

			}
, 			{
				"patchline" : 				{
					"destination" : [ "obj-28", 0 ],
					"disabled" : 0,
					"hidden" : 0,
					"source" : [ "obj-40", 0 ]
				}

			}
, 			{
				"patchline" : 				{
					"destination" : [ "obj-9", 0 ],
					"disabled" : 0,
					"hidden" : 0,
					"midpoints" : [ 645.263184, 198.5, 704.263184, 198.5 ],
					"source" : [ "obj-40", 0 ]
				}

			}
, 			{
				"patchline" : 				{
					"color" : [ 0.336957, 0.336957, 0.336957, 1.0 ],
					"destination" : [ "obj-67", 0 ],
					"disabled" : 0,
					"hidden" : 0,
					"midpoints" : [ 728.263184, 377.901367, 1071.263184, 377.901367 ],
					"source" : [ "obj-41", 2 ]
				}

			}
, 			{
				"patchline" : 				{
					"color" : [ 0.642345, 0.642345, 0.642345, 0.9 ],
					"destination" : [ "obj-73", 0 ],
					"disabled" : 0,
					"hidden" : 0,
					"midpoints" : [ 704.263184, 366.210388, 574.263184, 366.210388 ],
					"source" : [ "obj-41", 0 ]
				}

			}
, 			{
				"patchline" : 				{
					"destination" : [ "obj-85", 0 ],
					"disabled" : 0,
					"hidden" : 0,
					"source" : [ "obj-41", 1 ]
				}

			}
, 			{
				"patchline" : 				{
					"destination" : [ "obj-39", 0 ],
					"disabled" : 0,
					"hidden" : 0,
					"source" : [ "obj-42", 0 ]
				}

			}
, 			{
				"patchline" : 				{
					"destination" : [ "obj-64", 0 ],
					"disabled" : 0,
					"hidden" : 0,
					"midpoints" : [ 1184.763184, 317.313477, 1098.263184, 317.313477 ],
					"source" : [ "obj-43", 0 ]
				}

			}
, 			{
				"patchline" : 				{
					"destination" : [ "obj-48", 0 ],
					"disabled" : 0,
					"hidden" : 0,
					"midpoints" : [ 526.263184, 463.475586, 542.079346, 463.475586 ],
					"source" : [ "obj-47", 0 ]
				}

			}
, 			{
				"patchline" : 				{
					"destination" : [ "obj-84", 0 ],
					"disabled" : 0,
					"hidden" : 0,
					"midpoints" : [ 542.079346, 515.325684, 574.263184, 515.325684 ],
					"source" : [ "obj-48", 0 ]
				}

			}
, 			{
				"patchline" : 				{
					"destination" : [ "obj-21", 0 ],
					"disabled" : 0,
					"hidden" : 0,
					"source" : [ "obj-5", 0 ]
				}

			}
, 			{
				"patchline" : 				{
					"destination" : [ "obj-105", 1 ],
					"disabled" : 0,
					"hidden" : 0,
					"source" : [ "obj-51", 1 ]
				}

			}
, 			{
				"patchline" : 				{
					"destination" : [ "obj-106", 0 ],
					"disabled" : 0,
					"hidden" : 0,
					"source" : [ "obj-51", 0 ]
				}

			}
, 			{
				"patchline" : 				{
					"destination" : [ "obj-56", 0 ],
					"disabled" : 0,
					"hidden" : 0,
					"source" : [ "obj-52", 1 ]
				}

			}
, 			{
				"patchline" : 				{
					"color" : [ 0.336957, 0.336957, 0.336957, 1.0 ],
					"destination" : [ "obj-67", 0 ],
					"disabled" : 0,
					"hidden" : 0,
					"midpoints" : [ 870.263184, 377.901367, 1071.263184, 377.901367 ],
					"source" : [ "obj-52", 2 ]
				}

			}
, 			{
				"patchline" : 				{
					"color" : [ 0.642345, 0.642345, 0.642345, 0.9 ],
					"destination" : [ "obj-73", 0 ],
					"disabled" : 0,
					"hidden" : 0,
					"midpoints" : [ 846.263184, 366.210388, 574.263184, 366.210388 ],
					"source" : [ "obj-52", 0 ]
				}

			}
, 			{
				"patchline" : 				{
					"destination" : [ "obj-42", 0 ],
					"disabled" : 0,
					"hidden" : 0,
					"source" : [ "obj-53", 0 ]
				}

			}
, 			{
				"patchline" : 				{
					"destination" : [ "obj-70", 0 ],
					"disabled" : 0,
					"hidden" : 0,
					"source" : [ "obj-53", 1 ]
				}

			}
, 			{
				"patchline" : 				{
					"destination" : [ "obj-41", 0 ],
					"disabled" : 0,
					"hidden" : 0,
					"source" : [ "obj-54", 0 ]
				}

			}
, 			{
				"patchline" : 				{
					"destination" : [ "obj-77", 0 ],
					"disabled" : 0,
					"hidden" : 0,
					"source" : [ "obj-54", 1 ]
				}

			}
, 			{
				"patchline" : 				{
					"destination" : [ "obj-81", 5 ],
					"disabled" : 0,
					"hidden" : 0,
					"source" : [ "obj-55", 0 ]
				}

			}
, 			{
				"patchline" : 				{
					"destination" : [ "obj-81", 4 ],
					"disabled" : 0,
					"hidden" : 0,
					"source" : [ "obj-56", 0 ]
				}

			}
, 			{
				"patchline" : 				{
					"destination" : [ "obj-165", 0 ],
					"disabled" : 0,
					"hidden" : 0,
					"source" : [ "obj-6", 0 ]
				}

			}
, 			{
				"patchline" : 				{
					"destination" : [ "obj-52", 0 ],
					"disabled" : 0,
					"hidden" : 0,
					"source" : [ "obj-62", 0 ]
				}

			}
, 			{
				"patchline" : 				{
					"destination" : [ "obj-55", 0 ],
					"disabled" : 0,
					"hidden" : 0,
					"source" : [ "obj-62", 1 ]
				}

			}
, 			{
				"patchline" : 				{
					"destination" : [ "obj-65", 0 ],
					"disabled" : 0,
					"hidden" : 0,
					"source" : [ "obj-64", 0 ]
				}

			}
, 			{
				"patchline" : 				{
					"destination" : [ "obj-83", 0 ],
					"disabled" : 0,
					"hidden" : 0,
					"midpoints" : [ 1098.263184, 359.651367, 1174.342529, 359.651367 ],
					"source" : [ "obj-64", 0 ]
				}

			}
, 			{
				"patchline" : 				{
					"destination" : [ "obj-67", 1 ],
					"disabled" : 0,
					"hidden" : 0,
					"source" : [ "obj-65", 0 ]
				}

			}
, 			{
				"patchline" : 				{
					"destination" : [ "obj-67", 1 ],
					"disabled" : 0,
					"hidden" : 0,
					"midpoints" : [ 1145.342529, 417.0, 1114.842529, 417.0, 1114.842529, 393.0, 1098.263184, 393.0 ],
					"source" : [ "obj-66", 0 ]
				}

			}
, 			{
				"patchline" : 				{
					"destination" : [ "obj-66", 0 ],
					"disabled" : 0,
					"hidden" : 0,
					"midpoints" : [ 1071.263184, 421.0, 1129.842529, 421.0, 1129.842529, 393.0, 1145.342529, 393.0 ],
					"source" : [ "obj-67", 0 ]
				}

			}
, 			{
				"patchline" : 				{
					"destination" : [ "obj-81", 7 ],
					"disabled" : 0,
					"hidden" : 0,
					"source" : [ "obj-67", 0 ]
				}

			}
, 			{
				"patchline" : 				{
					"destination" : [ "obj-44", 1 ],
					"disabled" : 0,
					"hidden" : 0,
					"midpoints" : [ 574.263184, 482.651367, 987.263184, 482.651367 ],
					"source" : [ "obj-68", 0 ]
				}

			}
, 			{
				"patchline" : 				{
					"destination" : [ "obj-84", 0 ],
					"disabled" : 0,
					"hidden" : 0,
					"source" : [ "obj-68", 0 ]
				}

			}
, 			{
				"patchline" : 				{
					"destination" : [ "obj-39", 0 ],
					"disabled" : 0,
					"hidden" : 0,
					"midpoints" : [ 1024.513184, 288.901367, 988.263184, 288.901367 ],
					"source" : [ "obj-70", 0 ]
				}

			}
, 			{
				"patchline" : 				{
					"color" : [ 0.336957, 0.336957, 0.336957, 1.0 ],
					"destination" : [ "obj-67", 0 ],
					"disabled" : 0,
					"hidden" : 0,
					"midpoints" : [ 1012.263184, 377.901367, 1071.263184, 377.901367 ],
					"source" : [ "obj-71", 2 ]
				}

			}
, 			{
				"patchline" : 				{
					"color" : [ 0.642345, 0.642345, 0.642345, 0.9 ],
					"destination" : [ "obj-73", 0 ],
					"disabled" : 0,
					"hidden" : 0,
					"midpoints" : [ 988.263184, 366.210388, 574.263184, 366.210388 ],
					"source" : [ "obj-71", 0 ]
				}

			}
, 			{
				"patchline" : 				{
					"destination" : [ "obj-74", 0 ],
					"disabled" : 0,
					"hidden" : 0,
					"source" : [ "obj-71", 1 ]
				}

			}
, 			{
				"patchline" : 				{
					"destination" : [ "obj-119", 0 ],
					"disabled" : 0,
					"hidden" : 0,
					"source" : [ "obj-72", 0 ]
				}

			}
, 			{
				"patchline" : 				{
					"destination" : [ "obj-82", 0 ],
					"disabled" : 0,
					"hidden" : 0,
					"source" : [ "obj-73", 0 ]
				}

			}
, 			{
				"patchline" : 				{
					"destination" : [ "obj-81", 6 ],
					"disabled" : 0,
					"hidden" : 0,
					"source" : [ "obj-74", 0 ]
				}

			}
, 			{
				"patchline" : 				{
					"destination" : [ "obj-98", 0 ],
					"disabled" : 0,
					"hidden" : 0,
					"source" : [ "obj-75", 0 ]
				}

			}
, 			{
				"patchline" : 				{
					"destination" : [ "obj-119", 0 ],
					"disabled" : 0,
					"hidden" : 0,
					"midpoints" : [ 1570.342896, 185.5, 1478.842896, 185.5 ],
					"source" : [ "obj-76", 0 ]
				}

			}
, 			{
				"patchline" : 				{
					"destination" : [ "obj-122", 0 ],
					"disabled" : 0,
					"hidden" : 0,
					"source" : [ "obj-76", 0 ]
				}

			}
, 			{
				"patchline" : 				{
					"destination" : [ "obj-168", 0 ],
					"disabled" : 0,
					"hidden" : 0,
					"midpoints" : [ 1570.342896, 185.5, 1543.842896, 185.5, 1543.842896, 35.0, 1411.342896, 35.0 ],
					"source" : [ "obj-76", 0 ]
				}

			}
, 			{
				"patchline" : 				{
					"destination" : [ "obj-81", 3 ],
					"disabled" : 0,
					"hidden" : 0,
					"source" : [ "obj-77", 0 ]
				}

			}
, 			{
				"patchline" : 				{
					"color" : [ 0.336957, 0.336957, 0.336957, 1.0 ],
					"destination" : [ "obj-67", 0 ],
					"disabled" : 0,
					"hidden" : 0,
					"midpoints" : [ 656.263184, 377.901367, 1071.263184, 377.901367 ],
					"source" : [ "obj-79", 2 ]
				}

			}
, 			{
				"patchline" : 				{
					"color" : [ 0.642345, 0.642345, 0.642345, 0.9 ],
					"destination" : [ "obj-73", 0 ],
					"disabled" : 0,
					"hidden" : 0,
					"midpoints" : [ 632.263184, 366.210388, 574.263184, 366.210388 ],
					"source" : [ "obj-79", 0 ]
				}

			}
, 			{
				"patchline" : 				{
					"destination" : [ "obj-86", 0 ],
					"disabled" : 0,
					"hidden" : 0,
					"source" : [ "obj-79", 1 ]
				}

			}
, 			{
				"patchline" : 				{
					"destination" : [ "obj-68", 0 ],
					"disabled" : 0,
					"hidden" : 0,
					"source" : [ "obj-81", 0 ]
				}

			}
, 			{
				"patchline" : 				{
					"destination" : [ "obj-81", 0 ],
					"disabled" : 0,
					"hidden" : 0,
					"source" : [ "obj-82", 0 ]
				}

			}
, 			{
				"patchline" : 				{
					"destination" : [ "obj-84", 0 ],
					"disabled" : 0,
					"hidden" : 0,
					"midpoints" : [ 1174.342529, 514.151367, 574.263184, 514.151367 ],
					"source" : [ "obj-83", 0 ]
				}

			}
, 			{
				"patchline" : 				{
					"destination" : [ "obj-81", 2 ],
					"disabled" : 0,
					"hidden" : 0,
					"source" : [ "obj-85", 0 ]
				}

			}
, 			{
				"patchline" : 				{
					"destination" : [ "obj-81", 1 ],
					"disabled" : 0,
					"hidden" : 0,
					"source" : [ "obj-86", 0 ]
				}

			}
, 			{
				"patchline" : 				{
					"destination" : [ "obj-138", 0 ],
					"disabled" : 0,
					"hidden" : 0,
					"source" : [ "obj-88", 0 ]
				}

			}
, 			{
				"patchline" : 				{
					"destination" : [ "obj-137", 0 ],
					"disabled" : 0,
					"hidden" : 0,
					"source" : [ "obj-89", 0 ]
				}

			}
, 			{
				"patchline" : 				{
					"destination" : [ "obj-54", 0 ],
					"disabled" : 0,
					"hidden" : 0,
					"source" : [ "obj-9", 0 ]
				}

			}
, 			{
				"patchline" : 				{
					"destination" : [ "obj-88", 0 ],
					"disabled" : 0,
					"hidden" : 0,
					"midpoints" : [ 1768.342896, 623.095093, 1619.312744, 623.095093 ],
					"source" : [ "obj-91", 0 ]
				}

			}
, 			{
				"patchline" : 				{
					"destination" : [ "obj-89", 0 ],
					"disabled" : 0,
					"hidden" : 0,
					"midpoints" : [ 1768.342896, 623.095093, 1357.342896, 623.095093 ],
					"source" : [ "obj-91", 0 ]
				}

			}
, 			{
				"patchline" : 				{
					"destination" : [ "obj-114", 0 ],
					"disabled" : 0,
					"hidden" : 0,
					"midpoints" : [ 1412.842896, 375.0, 1504.342896, 375.0 ],
					"source" : [ "obj-96", 0 ]
				}

			}
, 			{
				"patchline" : 				{
					"destination" : [ "obj-118", 0 ],
					"disabled" : 0,
					"hidden" : 0,
					"midpoints" : [ 1411.342896, 183.0, 1451.842896, 183.0 ],
					"source" : [ "obj-97", 0 ]
				}

			}
, 			{
				"patchline" : 				{
					"destination" : [ "obj-96", 0 ],
					"disabled" : 0,
					"hidden" : 0,
					"source" : [ "obj-97", 0 ]
				}

			}
, 			{
				"patchline" : 				{
					"destination" : [ "obj-99", 0 ],
					"disabled" : 0,
					"hidden" : 0,
					"source" : [ "obj-97", 1 ]
				}

			}
, 			{
				"patchline" : 				{
					"destination" : [ "obj-97", 0 ],
					"disabled" : 0,
					"hidden" : 0,
					"source" : [ "obj-98", 0 ]
				}

			}
, 			{
				"patchline" : 				{
					"destination" : [ "obj-121", 0 ],
					"disabled" : 0,
					"hidden" : 0,
					"source" : [ "obj-99", 0 ]
				}

			}
 ]
	}

}
