{
	"patcher" : 	{
		"fileversion" : 1,
		"appversion" : 		{
			"major" : 6,
			"minor" : 0,
			"revision" : 8
		}
,
		"rect" : [ 383.0, 378.0, 524.0, 618.0 ],
		"bglocked" : 0,
		"openinpresentation" : 0,
		"default_fontsize" : 11.0,
		"default_fontface" : 0,
		"default_fontname" : "Calibri",
		"gridonopen" : 2,
		"gridsize" : [ 15.0, 15.0 ],
		"gridsnaponopen" : 2,
		"statusbarvisible" : 2,
		"toolbarvisible" : 1,
		"boxanimatetime" : 200,
		"imprint" : 0,
		"enablehscroll" : 1,
		"enablevscroll" : 1,
		"devicewidth" : 0.0,
		"description" : "",
		"digest" : "",
		"tags" : "",
		"title" : "Spectral Tilt Filter",
		"boxes" : [ 			{
				"box" : 				{
					"fontname" : "Calibri",
					"fontsize" : 11.0,
					"id" : "obj-5",
					"maxclass" : "message",
					"numinlets" : 2,
					"numoutlets" : 1,
					"outlettype" : [ "" ],
					"patching_rect" : [ 42.0, 505.0, 34.0, 18.0 ],
					"text" : "clear"
				}

			}
, 			{
				"box" : 				{
					"fontface" : 1,
					"fontname" : "Calibri",
					"fontsize" : 30.0,
					"frgb" : 0.0,
					"id" : "obj-9",
					"maxclass" : "comment",
					"numinlets" : 1,
					"numoutlets" : 0,
					"patching_rect" : [ 15.0, 14.0, 255.0, 43.0 ],
					"text" : "Spectral Tilt filter"
				}

			}
, 			{
				"box" : 				{
					"color" : [ 0.952941, 0.388235, 0.090196, 1.0 ],
					"fontname" : "Calibri",
					"fontsize" : 18.0,
					"id" : "obj-187",
					"maxclass" : "newobj",
					"numinlets" : 1,
					"numoutlets" : 0,
					"patching_rect" : [ 445.0, 21.5, 71.0, 28.0 ],
					"text" : "License"
				}

			}
, 			{
				"box" : 				{
					"fontname" : "Calibri",
					"fontsize" : 11.0,
					"frgb" : 0.0,
					"id" : "obj-3",
					"maxclass" : "comment",
					"numinlets" : 1,
					"numoutlets" : 0,
					"patching_rect" : [ 76.0, 488.0, 25.0, 20.0 ],
					"text" : "f_c"
				}

			}
, 			{
				"box" : 				{
					"fontname" : "Calibri",
					"fontsize" : 11.0,
					"id" : "obj-1",
					"maxclass" : "newobj",
					"numinlets" : 1,
					"numoutlets" : 1,
					"outlettype" : [ "" ],
					"patching_rect" : [ 105.0, 195.0, 145.0, 20.0 ],
					"text" : "if $f1 > 0.2 then $f1 else 0.2"
				}

			}
, 			{
				"box" : 				{
					"fontname" : "Calibri",
					"fontsize" : 11.0,
					"frgb" : 0.0,
					"id" : "obj-118",
					"maxclass" : "comment",
					"numinlets" : 1,
					"numoutlets" : 0,
					"patching_rect" : [ 15.0, 57.0, 517.0, 20.0 ],
					"text" : "Mapping between spectral tilt and cut-off frequency of the spectral tilt filter (from Doval et al., VOCAL'03)"
				}

			}
, 			{
				"box" : 				{
					"fontname" : "Calibri",
					"fontsize" : 11.0,
					"frgb" : 0.0,
					"id" : "obj-117",
					"linecount" : 2,
					"maxclass" : "comment",
					"numinlets" : 1,
					"numoutlets" : 0,
					"patching_rect" : [ 105.0, 98.0, 215.0, 33.0 ],
					"text" : "Spectral tilt in dB \n(attenuation at 3000Hz of a low pass filter)"
				}

			}
, 			{
				"box" : 				{
					"fontname" : "Calibri",
					"fontsize" : 11.0,
					"frgb" : 0.0,
					"hidden" : 1,
					"id" : "obj-101",
					"linecount" : 4,
					"maxclass" : "comment",
					"numinlets" : 1,
					"numoutlets" : 0,
					"patching_rect" : [ 240.0, 255.0, 155.0, 60.0 ],
					"text" : "Attention, erreur (différente) dans formule dans thèse Sylvain L. B. et Nicolas d'A., et NIME06 de Nicolas"
				}

			}
, 			{
				"box" : 				{
					"fontname" : "Calibri",
					"fontsize" : 11.0,
					"id" : "obj-83",
					"maxclass" : "flonum",
					"numinlets" : 1,
					"numoutlets" : 2,
					"outlettype" : [ "float", "bang" ],
					"parameter_enable" : 0,
					"patching_rect" : [ 105.0, 435.0, 69.0, 20.0 ]
				}

			}
, 			{
				"box" : 				{
					"fontname" : "Calibri",
					"fontsize" : 11.0,
					"frgb" : 0.0,
					"id" : "obj-114",
					"maxclass" : "comment",
					"numinlets" : 1,
					"numoutlets" : 0,
					"patching_rect" : [ 76.0, 435.0, 34.0, 20.0 ],
					"text" : "b_TL"
				}

			}
, 			{
				"box" : 				{
					"fontname" : "Calibri",
					"fontsize" : 11.0,
					"id" : "obj-113",
					"maxclass" : "newobj",
					"numinlets" : 1,
					"numoutlets" : 1,
					"outlettype" : [ "" ],
					"patching_rect" : [ 105.0, 415.0, 62.0, 20.0 ],
					"text" : "expr 1.-$f1"
				}

			}
, 			{
				"box" : 				{
					"fontname" : "Calibri",
					"fontsize" : 11.0,
					"frgb" : 0.0,
					"id" : "obj-110",
					"linecount" : 2,
					"maxclass" : "comment",
					"numinlets" : 1,
					"numoutlets" : 0,
					"patching_rect" : [ 180.333344, 488.0, 203.0, 33.0 ],
					"text" : "Relation between cut frequency (-3dB) and coefficient of x(n)"
				}

			}
, 			{
				"box" : 				{
					"fontname" : "Calibri",
					"fontsize" : 11.0,
					"frgb" : 0.0,
					"id" : "obj-109",
					"maxclass" : "comment",
					"numinlets" : 1,
					"numoutlets" : 0,
					"patching_rect" : [ 76.0, 380.0, 34.0, 20.0 ],
					"text" : "a_TL"
				}

			}
, 			{
				"box" : 				{
					"fontname" : "Calibri",
					"fontsize" : 11.0,
					"id" : "obj-108",
					"maxclass" : "flonum",
					"numinlets" : 1,
					"numoutlets" : 2,
					"outlettype" : [ "float", "bang" ],
					"parameter_enable" : 0,
					"patching_rect" : [ 372.0, 195.0, 70.0, 20.0 ]
				}

			}
, 			{
				"box" : 				{
					"fontname" : "Calibri",
					"fontsize" : 11.0,
					"id" : "obj-4",
					"maxclass" : "newobj",
					"numinlets" : 2,
					"numoutlets" : 1,
					"outlettype" : [ "" ],
					"patching_rect" : [ 105.0, 468.0, 244.0, 20.0 ],
					"text" : "expr $f2/2./3.141593*acos(1+$f1*$f1/(2.*$f1-2.))"
				}

			}
, 			{
				"box" : 				{
					"fontname" : "Calibri",
					"fontsize" : 11.0,
					"id" : "obj-11",
					"maxclass" : "flonum",
					"numinlets" : 1,
					"numoutlets" : 2,
					"outlettype" : [ "float", "bang" ],
					"parameter_enable" : 0,
					"patching_rect" : [ 105.0, 488.0, 69.0, 20.0 ]
				}

			}
, 			{
				"box" : 				{
					"fontname" : "Calibri",
					"fontsize" : 11.0,
					"id" : "obj-94",
					"maxclass" : "newobj",
					"numinlets" : 1,
					"numoutlets" : 1,
					"outlettype" : [ "" ],
					"patching_rect" : [ 105.0, 280.0, 91.0, 20.0 ],
					"text" : "if $f1<0. then $f1"
				}

			}
, 			{
				"box" : 				{
					"fontname" : "Calibri",
					"fontsize" : 11.0,
					"id" : "obj-95",
					"maxclass" : "flonum",
					"numinlets" : 1,
					"numoutlets" : 2,
					"outlettype" : [ "float", "bang" ],
					"parameter_enable" : 0,
					"patching_rect" : [ 105.0, 380.0, 69.0, 20.0 ]
				}

			}
, 			{
				"box" : 				{
					"fontname" : "Calibri",
					"fontsize" : 11.0,
					"id" : "obj-96",
					"maxclass" : "flonum",
					"numinlets" : 1,
					"numoutlets" : 2,
					"outlettype" : [ "float", "bang" ],
					"parameter_enable" : 0,
					"patching_rect" : [ 105.0, 327.0, 74.0, 20.0 ]
				}

			}
, 			{
				"box" : 				{
					"fontname" : "Calibri",
					"fontsize" : 11.0,
					"id" : "obj-97",
					"maxclass" : "flonum",
					"numinlets" : 1,
					"numoutlets" : 2,
					"outlettype" : [ "float", "bang" ],
					"parameter_enable" : 0,
					"patching_rect" : [ 105.0, 245.0, 69.0, 20.0 ]
				}

			}
, 			{
				"box" : 				{
					"fontname" : "Calibri",
					"fontsize" : 11.0,
					"id" : "obj-102",
					"maxclass" : "newobj",
					"numinlets" : 1,
					"numoutlets" : 1,
					"outlettype" : [ "" ],
					"patching_rect" : [ 105.0, 360.0, 159.0, 20.0 ],
					"text" : "expr $f1 - pow( $f1*$f1 -1.\\,0.5)"
				}

			}
, 			{
				"box" : 				{
					"fontname" : "Calibri",
					"fontsize" : 11.0,
					"frgb" : 0.0,
					"id" : "obj-103",
					"maxclass" : "comment",
					"numinlets" : 1,
					"numoutlets" : 0,
					"patching_rect" : [ 76.0, 327.0, 29.0, 20.0 ],
					"text" : "nu"
				}

			}
, 			{
				"box" : 				{
					"fontname" : "Calibri",
					"fontsize" : 11.0,
					"id" : "obj-104",
					"maxclass" : "newobj",
					"numinlets" : 1,
					"numoutlets" : 1,
					"outlettype" : [ "" ],
					"patching_rect" : [ 105.0, 307.0, 80.0, 20.0 ],
					"text" : "expr 1. - 1./$f1"
				}

			}
, 			{
				"box" : 				{
					"fontname" : "Calibri",
					"fontsize" : 11.0,
					"frgb" : 0.0,
					"id" : "obj-105",
					"maxclass" : "comment",
					"numinlets" : 1,
					"numoutlets" : 0,
					"patching_rect" : [ 76.0, 245.0, 29.0, 20.0 ],
					"text" : "eta"
				}

			}
, 			{
				"box" : 				{
					"fontname" : "Calibri",
					"fontsize" : 11.0,
					"id" : "obj-107",
					"maxclass" : "newobj",
					"numinlets" : 2,
					"numoutlets" : 1,
					"outlettype" : [ "" ],
					"patching_rect" : [ 105.0, 225.0, 302.0, 20.0 ],
					"text" : "expr (pow(10\\,$f1/10.) -1.) / (cos(2.*3.1415926*3000./$f2)-1.)"
				}

			}
, 			{
				"box" : 				{
					"hidden" : 1,
					"id" : "obj-100",
					"maxclass" : "button",
					"numinlets" : 1,
					"numoutlets" : 1,
					"outlettype" : [ "bang" ],
					"patching_rect" : [ 359.0, 135.0, 20.0, 20.0 ]
				}

			}
, 			{
				"box" : 				{
					"bgcolor" : [ 0.831622, 0.572642, 0.241017, 1.0 ],
					"fontname" : "Calibri",
					"fontsize" : 11.0,
					"id" : "obj-99",
					"maxclass" : "flonum",
					"numinlets" : 1,
					"numoutlets" : 2,
					"outlettype" : [ "float", "bang" ],
					"parameter_enable" : 0,
					"patching_rect" : [ 105.0, 165.0, 72.0, 20.0 ]
				}

			}
, 			{
				"box" : 				{
					"fontname" : "Calibri",
					"fontsize" : 11.0,
					"id" : "obj-93",
					"maxclass" : "newobj",
					"numinlets" : 1,
					"numoutlets" : 4,
					"outlettype" : [ "int", "float", "int", "int" ],
					"patching_rect" : [ 359.0, 165.0, 58.0, 20.0 ],
					"text" : "dspstate~"
				}

			}
, 			{
				"box" : 				{
					"fontname" : "Calibri",
					"fontsize" : 11.0,
					"frgb" : 0.0,
					"id" : "obj-74",
					"maxclass" : "comment",
					"numinlets" : 1,
					"numoutlets" : 0,
					"patching_rect" : [ 24.449951, 105.0, 42.0, 20.0 ],
					"text" : "Signal"
				}

			}
, 			{
				"box" : 				{
					"comment" : "",
					"id" : "obj-73",
					"maxclass" : "outlet",
					"numinlets" : 1,
					"numoutlets" : 0,
					"patching_rect" : [ 24.449951, 555.0, 25.0, 25.0 ]
				}

			}
, 			{
				"box" : 				{
					"comment" : "",
					"id" : "obj-70",
					"maxclass" : "inlet",
					"numinlets" : 0,
					"numoutlets" : 1,
					"outlettype" : [ "float" ],
					"patching_rect" : [ 105.0, 135.0, 25.0, 25.0 ]
				}

			}
, 			{
				"box" : 				{
					"comment" : "",
					"id" : "obj-69",
					"maxclass" : "inlet",
					"numinlets" : 0,
					"numoutlets" : 1,
					"outlettype" : [ "signal" ],
					"patching_rect" : [ 24.449951, 135.0, 25.0, 25.0 ]
				}

			}
, 			{
				"box" : 				{
					"fontname" : "Calibri",
					"fontsize" : 11.0,
					"id" : "obj-13",
					"maxclass" : "newobj",
					"numinlets" : 2,
					"numoutlets" : 1,
					"outlettype" : [ "signal" ],
					"patching_rect" : [ 24.449951, 529.5, 99.550049, 20.0 ],
					"text" : "onepole~"
				}

			}
, 			{
				"box" : 				{
					"background" : 1,
					"bgcolor" : [ 0.992157, 0.988235, 1.0, 0.95 ],
					"border" : 1,
					"grad1" : [ 0.154423, 0.154423, 0.154423, 1.0 ],
					"id" : "obj-12",
					"maxclass" : "panel",
					"numinlets" : 1,
					"numoutlets" : 0,
					"patching_rect" : [ 15.0, 90.0, 495.0, 510.0 ],
					"rounded" : 16
				}

			}
 ],
		"lines" : [ 			{
				"patchline" : 				{
					"destination" : [ "obj-107", 0 ],
					"disabled" : 0,
					"hidden" : 0,
					"source" : [ "obj-1", 0 ]
				}

			}
, 			{
				"patchline" : 				{
					"destination" : [ "obj-93", 0 ],
					"disabled" : 0,
					"hidden" : 1,
					"source" : [ "obj-100", 0 ]
				}

			}
, 			{
				"patchline" : 				{
					"destination" : [ "obj-95", 0 ],
					"disabled" : 0,
					"hidden" : 1,
					"source" : [ "obj-102", 0 ]
				}

			}
, 			{
				"patchline" : 				{
					"destination" : [ "obj-96", 0 ],
					"disabled" : 0,
					"hidden" : 0,
					"source" : [ "obj-104", 0 ]
				}

			}
, 			{
				"patchline" : 				{
					"destination" : [ "obj-97", 0 ],
					"disabled" : 0,
					"hidden" : 0,
					"source" : [ "obj-107", 0 ]
				}

			}
, 			{
				"patchline" : 				{
					"destination" : [ "obj-107", 1 ],
					"disabled" : 0,
					"hidden" : 0,
					"source" : [ "obj-108", 0 ]
				}

			}
, 			{
				"patchline" : 				{
					"destination" : [ "obj-4", 1 ],
					"disabled" : 0,
					"hidden" : 0,
					"midpoints" : [ 381.5, 220.0, 416.449951, 220.0, 416.449951, 424.0, 339.5, 424.0 ],
					"source" : [ "obj-108", 0 ]
				}

			}
, 			{
				"patchline" : 				{
					"destination" : [ "obj-13", 1 ],
					"disabled" : 0,
					"hidden" : 0,
					"source" : [ "obj-11", 0 ]
				}

			}
, 			{
				"patchline" : 				{
					"destination" : [ "obj-83", 0 ],
					"disabled" : 0,
					"hidden" : 1,
					"source" : [ "obj-113", 0 ]
				}

			}
, 			{
				"patchline" : 				{
					"destination" : [ "obj-73", 0 ],
					"disabled" : 0,
					"hidden" : 0,
					"source" : [ "obj-13", 0 ]
				}

			}
, 			{
				"patchline" : 				{
					"destination" : [ "obj-11", 0 ],
					"disabled" : 0,
					"hidden" : 0,
					"source" : [ "obj-4", 0 ]
				}

			}
, 			{
				"patchline" : 				{
					"destination" : [ "obj-13", 0 ],
					"disabled" : 0,
					"hidden" : 0,
					"source" : [ "obj-5", 0 ]
				}

			}
, 			{
				"patchline" : 				{
					"destination" : [ "obj-13", 0 ],
					"disabled" : 0,
					"hidden" : 0,
					"source" : [ "obj-69", 0 ]
				}

			}
, 			{
				"patchline" : 				{
					"destination" : [ "obj-99", 0 ],
					"disabled" : 0,
					"hidden" : 0,
					"source" : [ "obj-70", 0 ]
				}

			}
, 			{
				"patchline" : 				{
					"destination" : [ "obj-4", 0 ],
					"disabled" : 0,
					"hidden" : 0,
					"source" : [ "obj-83", 0 ]
				}

			}
, 			{
				"patchline" : 				{
					"destination" : [ "obj-108", 0 ],
					"disabled" : 0,
					"hidden" : 0,
					"source" : [ "obj-93", 1 ]
				}

			}
, 			{
				"patchline" : 				{
					"destination" : [ "obj-104", 0 ],
					"disabled" : 0,
					"hidden" : 0,
					"source" : [ "obj-94", 0 ]
				}

			}
, 			{
				"patchline" : 				{
					"destination" : [ "obj-113", 0 ],
					"disabled" : 0,
					"hidden" : 0,
					"source" : [ "obj-95", 0 ]
				}

			}
, 			{
				"patchline" : 				{
					"destination" : [ "obj-102", 0 ],
					"disabled" : 0,
					"hidden" : 0,
					"source" : [ "obj-96", 0 ]
				}

			}
, 			{
				"patchline" : 				{
					"destination" : [ "obj-94", 0 ],
					"disabled" : 0,
					"hidden" : 0,
					"source" : [ "obj-97", 0 ]
				}

			}
, 			{
				"patchline" : 				{
					"destination" : [ "obj-1", 0 ],
					"disabled" : 0,
					"hidden" : 0,
					"source" : [ "obj-99", 0 ]
				}

			}
 ]
	}

}
