{
	"patcher" : 	{
		"fileversion" : 1,
		"appversion" : 		{
			"major" : 8,
			"minor" : 5,
			"revision" : 3,
			"architecture" : "x64",
			"modernui" : 1
		}
,
		"classnamespace" : "box",
		"rect" : [ 133.0, 180.0, 1198.0, 526.0 ],
		"bglocked" : 0,
		"openinpresentation" : 0,
		"default_fontsize" : 11.0,
		"default_fontface" : 0,
		"default_fontname" : "Calibri",
		"gridonopen" : 2,
		"gridsize" : [ 15.0, 15.0 ],
		"gridsnaponopen" : 2,
		"objectsnaponopen" : 1,
		"statusbarvisible" : 2,
		"toolbarvisible" : 1,
		"lefttoolbarpinned" : 0,
		"toptoolbarpinned" : 0,
		"righttoolbarpinned" : 0,
		"bottomtoolbarpinned" : 0,
		"toolbars_unpinned_last_save" : 0,
		"tallnewobj" : 0,
		"boxanimatetime" : 200,
		"enablehscroll" : 1,
		"enablevscroll" : 1,
		"devicewidth" : 0.0,
		"description" : "",
		"digest" : "",
		"tags" : "",
		"style" : "",
		"subpatcher_template" : "",
		"assistshowspatchername" : 0,
		"title" : "Licence Print",
		"boxes" : [ 			{
				"box" : 				{
					"fontname" : "Calibri",
					"fontsize" : 11.0,
					"id" : "obj-3",
					"maxclass" : "message",
					"numinlets" : 2,
					"numoutlets" : 1,
					"outlettype" : [ "" ],
					"patching_rect" : [ 176.749996800000019, 195.0, 303.0, 19.0 ],
					"text" : "Copyright (c) 2023 Christophe d'Alessandro\\, Thomas Lucas"
				}

			}
, 			{
				"box" : 				{
					"fontname" : "Calibri",
					"fontsize" : 11.0,
					"id" : "obj-11",
					"maxclass" : "message",
					"numinlets" : 2,
					"numoutlets" : 1,
					"outlettype" : [ "" ],
					"patching_rect" : [ 150.068175999999994, 240.0, 542.0, 19.0 ],
					"text" : "Copyright (c) 2014 Christophe d'Alessandro\\, Boris Doval\\, Lionel Feugère\\, Sylvain Le Beux\\, Olivier Perrotin"
				}

			}
, 			{
				"box" : 				{
					"fontname" : "Calibri",
					"fontsize" : 11.0,
					"id" : "obj-5",
					"maxclass" : "comment",
					"numinlets" : 1,
					"numoutlets" : 0,
					"patching_rect" : [ 15.27272, 59.0, 150.0, 17.0 ],
					"text" : "Print license in max window"
				}

			}
, 			{
				"box" : 				{
					"fontface" : 1,
					"fontname" : "Calibri",
					"fontsize" : 30.0,
					"id" : "obj-16",
					"maxclass" : "comment",
					"numinlets" : 1,
					"numoutlets" : 0,
					"patching_rect" : [ 15.27272, 16.0, 195.0, 36.0 ],
					"text" : "License print"
				}

			}
, 			{
				"box" : 				{
					"fontname" : "Calibri",
					"fontsize" : 11.0,
					"id" : "obj-27",
					"maxclass" : "message",
					"numinlets" : 2,
					"numoutlets" : 1,
					"outlettype" : [ "" ],
					"patching_rect" : [ 203.431814400000007, 150.0, 985.0, 19.0 ],
					"text" : "*********************************************************************************************************************************************************************************"
				}

			}
, 			{
				"box" : 				{
					"color" : [ 0.0, 0.0, 0.0, 1.0 ],
					"fontname" : "Calibri",
					"fontsize" : 11.0,
					"id" : "obj-24",
					"maxclass" : "newobj",
					"numinlets" : 1,
					"numoutlets" : 0,
					"patching_rect" : [ 43.340904000000002, 473.0, 104.0, 19.0 ],
					"text" : "print CantorDigitalis"
				}

			}
, 			{
				"box" : 				{
					"fontname" : "Calibri",
					"fontsize" : 11.0,
					"id" : "obj-25",
					"maxclass" : "message",
					"numinlets" : 2,
					"numoutlets" : 1,
					"outlettype" : [ "" ],
					"patching_rect" : [ 43.340904000000002, 446.0, 985.0, 19.0 ],
					"text" : "*********************************************************************************************************************************************************************************"
				}

			}
, 			{
				"box" : 				{
					"fontname" : "Calibri",
					"fontsize" : 11.0,
					"id" : "obj-19",
					"maxclass" : "message",
					"numinlets" : 2,
					"numoutlets" : 1,
					"outlettype" : [ "" ],
					"patching_rect" : [ 110.045456000000001, 316.0, 760.0, 19.0 ],
					"text" : "You can use\\, modify and/ or redistribute the software under the terms of the CeCILL license as circulated by CEA\\, CNRS and INRIA at the following URL:"
				}

			}
, 			{
				"box" : 				{
					"fontname" : "Calibri",
					"fontsize" : 11.0,
					"id" : "obj-14",
					"maxclass" : "message",
					"numinlets" : 2,
					"numoutlets" : 1,
					"outlettype" : [ "" ],
					"patching_rect" : [ 96.704543999999999, 343.0, 109.0, 19.0 ],
					"text" : "http://www.cecill.info"
				}

			}
, 			{
				"box" : 				{
					"fontname" : "Calibri",
					"fontsize" : 11.0,
					"id" : "obj-9",
					"maxclass" : "newobj",
					"numinlets" : 1,
					"numoutlets" : 14,
					"outlettype" : [ "bang", "bang", "bang", "bang", "bang", "bang", "bang", "bang", "bang", "bang", "bang", "bang", "bang", "bang" ],
					"patching_rect" : [ 30.0, 129.0, 192.431814400000007, 19.0 ],
					"text" : "t b b b b b b b b b b b b b b"
				}

			}
, 			{
				"box" : 				{
					"fontname" : "Calibri",
					"fontsize" : 11.0,
					"id" : "obj-10",
					"maxclass" : "newobj",
					"numinlets" : 1,
					"numoutlets" : 1,
					"outlettype" : [ "bang" ],
					"patching_rect" : [ 30.0, 105.0, 54.0, 19.0 ],
					"text" : "loadbang"
				}

			}
, 			{
				"box" : 				{
					"fontname" : "Calibri",
					"fontsize" : 11.0,
					"id" : "obj-8",
					"maxclass" : "message",
					"numinlets" : 2,
					"numoutlets" : 1,
					"outlettype" : [ "" ],
					"patching_rect" : [ 163.409087999999997, 219.0, 454.0, 19.0 ],
					"text" : "Copyright (c) 2016 Christophe d'Alessandro\\, Boris Doval\\, Lionel Feugère\\, Olivier Perrotin"
				}

			}
, 			{
				"box" : 				{
					"fontname" : "Calibri",
					"fontsize" : 11.0,
					"id" : "obj-6",
					"maxclass" : "message",
					"numinlets" : 2,
					"numoutlets" : 1,
					"outlettype" : [ "" ],
					"patching_rect" : [ 190.090905600000013, 171.0, 201.0, 19.0 ],
					"text" : "Copyright (c) 2014\\, 2023 LIMSI-CNRS"
				}

			}
, 			{
				"box" : 				{
					"fontname" : "Calibri",
					"fontsize" : 11.0,
					"id" : "obj-4",
					"maxclass" : "message",
					"numinlets" : 2,
					"numoutlets" : 1,
					"outlettype" : [ "" ],
					"patching_rect" : [ 136.727263999999991, 264.0, 411.0, 19.0 ],
					"text" : "The software can be downloaded at the following URL: http://cantordigitalis.limsi.fr/"
				}

			}
, 			{
				"box" : 				{
					"fontname" : "Calibri",
					"fontsize" : 11.0,
					"id" : "obj-2",
					"maxclass" : "message",
					"numinlets" : 2,
					"numoutlets" : 1,
					"outlettype" : [ "" ],
					"patching_rect" : [ 123.386353, 290.0, 603.0, 19.0 ],
					"text" : "This software is governed by the CeCILL license under French law and abiding by the rules of distribution of free software."
				}

			}
, 			{
				"box" : 				{
					"fontname" : "Calibri",
					"fontsize" : 11.0,
					"id" : "obj-59",
					"maxclass" : "message",
					"numinlets" : 2,
					"numoutlets" : 1,
					"outlettype" : [ "" ],
					"patching_rect" : [ 56.681815999999998, 421.0, 166.0, 19.0 ],
					"text" : "Contact : cantordigitalis@limsi.fr"
				}

			}
, 			{
				"box" : 				{
					"fontname" : "Calibri",
					"fontsize" : 11.0,
					"id" : "obj-57",
					"maxclass" : "message",
					"numinlets" : 2,
					"numoutlets" : 1,
					"outlettype" : [ "" ],
					"patching_rect" : [ 83.363631999999996, 369.0, 203.0, 19.0 ],
					"text" : "See the full license in the license.txt file."
				}

			}
, 			{
				"box" : 				{
					"fontname" : "Calibri",
					"fontsize" : 11.0,
					"id" : "obj-47",
					"maxclass" : "message",
					"numinlets" : 2,
					"numoutlets" : 1,
					"outlettype" : [ "" ],
					"patching_rect" : [ 70.022728000000001, 390.0, 116.0, 19.0 ],
					"text" : "v. '2.1' - April 5th 2023"
				}

			}
, 			{
				"box" : 				{
					"angle" : 0.0,
					"background" : 1,
					"bgcolor" : [ 0.992157, 0.988235, 1.0, 0.95 ],
					"border" : 1,
					"id" : "obj-1",
					"maxclass" : "panel",
					"mode" : 0,
					"numinlets" : 1,
					"numoutlets" : 0,
					"patching_rect" : [ 15.27272, 90.0, 1169.727294999999913, 420.0 ],
					"rounded" : 16
				}

			}
 ],
		"lines" : [ 			{
				"patchline" : 				{
					"destination" : [ "obj-9", 0 ],
					"source" : [ "obj-10", 0 ]
				}

			}
, 			{
				"patchline" : 				{
					"destination" : [ "obj-24", 0 ],
					"source" : [ "obj-11", 0 ]
				}

			}
, 			{
				"patchline" : 				{
					"destination" : [ "obj-24", 0 ],
					"source" : [ "obj-14", 0 ]
				}

			}
, 			{
				"patchline" : 				{
					"destination" : [ "obj-24", 0 ],
					"source" : [ "obj-19", 0 ]
				}

			}
, 			{
				"patchline" : 				{
					"destination" : [ "obj-24", 0 ],
					"source" : [ "obj-2", 0 ]
				}

			}
, 			{
				"patchline" : 				{
					"destination" : [ "obj-24", 0 ],
					"source" : [ "obj-25", 0 ]
				}

			}
, 			{
				"patchline" : 				{
					"destination" : [ "obj-24", 0 ],
					"source" : [ "obj-27", 0 ]
				}

			}
, 			{
				"patchline" : 				{
					"destination" : [ "obj-24", 0 ],
					"source" : [ "obj-3", 0 ]
				}

			}
, 			{
				"patchline" : 				{
					"destination" : [ "obj-24", 0 ],
					"source" : [ "obj-4", 0 ]
				}

			}
, 			{
				"patchline" : 				{
					"destination" : [ "obj-24", 0 ],
					"source" : [ "obj-47", 0 ]
				}

			}
, 			{
				"patchline" : 				{
					"destination" : [ "obj-24", 0 ],
					"source" : [ "obj-57", 0 ]
				}

			}
, 			{
				"patchline" : 				{
					"destination" : [ "obj-24", 0 ],
					"source" : [ "obj-59", 0 ]
				}

			}
, 			{
				"patchline" : 				{
					"destination" : [ "obj-24", 0 ],
					"source" : [ "obj-6", 0 ]
				}

			}
, 			{
				"patchline" : 				{
					"destination" : [ "obj-24", 0 ],
					"source" : [ "obj-8", 0 ]
				}

			}
, 			{
				"patchline" : 				{
					"destination" : [ "obj-11", 0 ],
					"source" : [ "obj-9", 9 ]
				}

			}
, 			{
				"patchline" : 				{
					"destination" : [ "obj-14", 0 ],
					"source" : [ "obj-9", 5 ]
				}

			}
, 			{
				"patchline" : 				{
					"destination" : [ "obj-19", 0 ],
					"source" : [ "obj-9", 6 ]
				}

			}
, 			{
				"patchline" : 				{
					"destination" : [ "obj-2", 0 ],
					"source" : [ "obj-9", 7 ]
				}

			}
, 			{
				"patchline" : 				{
					"destination" : [ "obj-25", 0 ],
					"source" : [ "obj-9", 1 ]
				}

			}
, 			{
				"patchline" : 				{
					"destination" : [ "obj-27", 0 ],
					"source" : [ "obj-9", 13 ]
				}

			}
, 			{
				"patchline" : 				{
					"destination" : [ "obj-3", 0 ],
					"source" : [ "obj-9", 11 ]
				}

			}
, 			{
				"patchline" : 				{
					"destination" : [ "obj-4", 0 ],
					"source" : [ "obj-9", 8 ]
				}

			}
, 			{
				"patchline" : 				{
					"destination" : [ "obj-47", 0 ],
					"source" : [ "obj-9", 3 ]
				}

			}
, 			{
				"patchline" : 				{
					"destination" : [ "obj-57", 0 ],
					"source" : [ "obj-9", 4 ]
				}

			}
, 			{
				"patchline" : 				{
					"destination" : [ "obj-59", 0 ],
					"source" : [ "obj-9", 2 ]
				}

			}
, 			{
				"patchline" : 				{
					"destination" : [ "obj-6", 0 ],
					"source" : [ "obj-9", 12 ]
				}

			}
, 			{
				"patchline" : 				{
					"destination" : [ "obj-8", 0 ],
					"source" : [ "obj-9", 10 ]
				}

			}
 ]
	}

}
