{
	"patcher" : 	{
		"fileversion" : 1,
		"appversion" : 		{
			"major" : 6,
			"minor" : 0,
			"revision" : 8
		}
,
		"rect" : [ 68.0, 204.0, 457.0, 359.0 ],
		"bgcolor" : [ 0.14902, 0.14902, 0.14902, 1.0 ],
		"bglocked" : 1,
		"openinpresentation" : 1,
		"default_fontsize" : 11.0,
		"default_fontface" : 0,
		"default_fontname" : "Calibri",
		"gridonopen" : 2,
		"gridsize" : [ 15.0, 15.0 ],
		"gridsnaponopen" : 2,
		"statusbarvisible" : 2,
		"toolbarvisible" : 1,
		"boxanimatetime" : 200,
		"imprint" : 0,
		"enablehscroll" : 1,
		"enablevscroll" : 1,
		"devicewidth" : 0.0,
		"description" : "",
		"digest" : "",
		"tags" : "",
		"title" : "Pitch Tuning",
		"boxes" : [ 			{
				"box" : 				{
					"fontname" : "Calibri",
					"fontsize" : 14.0,
					"frgb" : 0.0,
					"hidden" : 1,
					"id" : "obj-15",
					"linecount" : 2,
					"maxclass" : "comment",
					"numinlets" : 1,
					"numoutlets" : 0,
					"patching_rect" : [ 388.0, 198.0, 62.0, 41.0 ],
					"presentation" : 1,
					"presentation_rect" : [ 339.259583, 200.0, 72.0, 24.0 ],
					"text" : "semi-tones",
					"textcolor" : [ 1.0, 0.611765, 0.376471, 1.0 ],
					"varname" : "pitchTuning_ST"
				}

			}
, 			{
				"box" : 				{
					"fontname" : "Calibri",
					"fontsize" : 14.0,
					"frgb" : 0.0,
					"id" : "obj-14",
					"linecount" : 2,
					"maxclass" : "comment",
					"numinlets" : 1,
					"numoutlets" : 0,
					"patching_rect" : [ 152.259583, 197.876953, 62.0, 41.0 ],
					"presentation" : 1,
					"presentation_rect" : [ 146.0, 200.0, 72.0, 24.0 ],
					"text" : "semi-tones",
					"textcolor" : [ 1.0, 0.611765, 0.376471, 1.0 ],
					"varname" : "HighestPitch[2]"
				}

			}
, 			{
				"box" : 				{
					"fontname" : "Calibri",
					"fontsize" : 14.0,
					"frgb" : 0.0,
					"id" : "obj-13",
					"maxclass" : "comment",
					"numinlets" : 1,
					"numoutlets" : 0,
					"patching_rect" : [ 404.0, 108.0, 62.0, 24.0 ],
					"presentation" : 1,
					"presentation_rect" : [ 390.259583, 110.876953, 31.0, 24.0 ],
					"text" : "Hz",
					"textcolor" : [ 1.0, 0.611765, 0.376471, 1.0 ],
					"varname" : "HighestPitch[1]"
				}

			}
, 			{
				"box" : 				{
					"fontname" : "Calibri",
					"fontsize" : 11.0,
					"frgb" : 0.0,
					"id" : "obj-12",
					"linecount" : 3,
					"maxclass" : "comment",
					"numinlets" : 1,
					"numoutlets" : 0,
					"patching_rect" : [ 634.0, 411.0, 147.5, 47.0 ],
					"text" : "Switch between lowest value (linked) or highest value (not linked)",
					"textcolor" : [ 1.0, 0.611765, 0.376471, 1.0 ]
				}

			}
, 			{
				"box" : 				{
					"fontname" : "Calibri",
					"fontsize" : 11.0,
					"id" : "obj-23",
					"maxclass" : "message",
					"numinlets" : 2,
					"numoutlets" : 1,
					"outlettype" : [ "" ],
					"patching_rect" : [ 420.0, 120.0, 32.5, 18.0 ],
					"text" : "0"
				}

			}
, 			{
				"box" : 				{
					"bgcolor" : [ 0.901961, 0.901961, 0.901961, 1.0 ],
					"bgoncolor" : [ 0.678431, 0.917647, 0.352941, 1.0 ],
					"bgovercolor" : [ 1.0, 0.611765, 0.376471, 1.0 ],
					"bgoveroncolor" : [ 0.952941, 0.388235, 0.090196, 1.0 ],
					"border" : 0,
					"borderoncolor" : [ 0.364178, 0.899081, 0.0, 1.0 ],
					"fontname" : "Calibri",
					"fontsize" : 12.0,
					"id" : "obj-21",
					"maxclass" : "textbutton",
					"numinlets" : 1,
					"numoutlets" : 3,
					"outlettype" : [ "", "", "int" ],
					"parameter_enable" : 0,
					"patching_rect" : [ 300.0, 30.0, 120.0, 25.0 ],
					"rounded" : 10.0,
					"text" : "Default values ",
					"texton" : "",
					"textoncolor" : [ 0.0, 0.0, 0.0, 1.0 ],
					"textoveroncolor" : [ 0.901961, 0.901961, 0.901961, 1.0 ],
					"truncate" : 0
				}

			}
, 			{
				"box" : 				{
					"fontname" : "Calibri",
					"fontsize" : 11.0,
					"id" : "obj-17",
					"maxclass" : "newobj",
					"numinlets" : 1,
					"numoutlets" : 2,
					"outlettype" : [ "", "" ],
					"patching_rect" : [ 713.5, 255.0, 64.0, 20.0 ],
					"save" : [ "#N", "thispatcher", ";", "#Q", "end", ";" ],
					"text" : "thispatcher"
				}

			}
, 			{
				"box" : 				{
					"fontname" : "Calibri",
					"fontsize" : 11.0,
					"id" : "obj-16",
					"maxclass" : "newobj",
					"numinlets" : 1,
					"numoutlets" : 1,
					"outlettype" : [ "" ],
					"patcher" : 					{
						"fileversion" : 1,
						"appversion" : 						{
							"major" : 6,
							"minor" : 0,
							"revision" : 8
						}
,
						"rect" : [ 51.0, 45.0, 349.0, 358.0 ],
						"bgcolor" : [ 1.0, 1.0, 1.0, 0.0 ],
						"bglocked" : 0,
						"openinpresentation" : 0,
						"default_fontsize" : 11.0,
						"default_fontface" : 0,
						"default_fontname" : "Calibri",
						"gridonopen" : 2,
						"gridsize" : [ 15.0, 15.0 ],
						"gridsnaponopen" : 2,
						"statusbarvisible" : 2,
						"toolbarvisible" : 1,
						"boxanimatetime" : 200,
						"imprint" : 0,
						"enablehscroll" : 1,
						"enablevscroll" : 1,
						"devicewidth" : 0.0,
						"description" : "",
						"digest" : "",
						"tags" : "",
						"boxes" : [ 							{
								"box" : 								{
									"fontname" : "Calibri",
									"fontsize" : 11.0,
									"id" : "obj-3",
									"maxclass" : "message",
									"numinlets" : 2,
									"numoutlets" : 1,
									"outlettype" : [ "" ],
									"patching_rect" : [ 27.0, 270.0, 128.0, 18.0 ],
									"text" : "script hide pitchTuning_ST"
								}

							}
, 							{
								"box" : 								{
									"fontname" : "Calibri",
									"fontsize" : 11.0,
									"id" : "obj-2",
									"maxclass" : "message",
									"numinlets" : 2,
									"numoutlets" : 1,
									"outlettype" : [ "" ],
									"patching_rect" : [ 105.0, 210.0, 132.0, 18.0 ],
									"text" : "script show pitchTuning_ST"
								}

							}
, 							{
								"box" : 								{
									"fontface" : 1,
									"fontname" : "Calibri",
									"fontsize" : 30.0,
									"frgb" : 0.0,
									"id" : "obj-8",
									"maxclass" : "comment",
									"numinlets" : 1,
									"numoutlets" : 0,
									"patching_rect" : [ 16.0, 15.0, 164.0, 43.0 ],
									"text" : "Show/Hide"
								}

							}
, 							{
								"box" : 								{
									"color" : [ 0.952941, 0.388235, 0.090196, 1.0 ],
									"fontname" : "Calibri",
									"fontsize" : 18.0,
									"id" : "obj-187",
									"maxclass" : "newobj",
									"numinlets" : 1,
									"numoutlets" : 0,
									"patching_rect" : [ 255.0, 22.5, 75.0, 28.0 ],
									"text" : "License"
								}

							}
, 							{
								"box" : 								{
									"fontname" : "Calibri",
									"fontsize" : 11.0,
									"frgb" : 0.0,
									"id" : "obj-34",
									"maxclass" : "comment",
									"numinlets" : 1,
									"numoutlets" : 0,
									"patching_rect" : [ 16.0, 58.0, 314.0, 20.0 ],
									"text" : "Show / Hide the highest value if / if not linked to the lowest value"
								}

							}
, 							{
								"box" : 								{
									"fontname" : "Calibri",
									"fontsize" : 11.0,
									"id" : "obj-6",
									"maxclass" : "message",
									"numinlets" : 2,
									"numoutlets" : 1,
									"outlettype" : [ "" ],
									"patching_rect" : [ 116.0, 193.0, 130.0, 18.0 ],
									"text" : "script show HighestPitch"
								}

							}
, 							{
								"box" : 								{
									"fontname" : "Calibri",
									"fontsize" : 11.0,
									"id" : "obj-7",
									"maxclass" : "message",
									"numinlets" : 2,
									"numoutlets" : 1,
									"outlettype" : [ "" ],
									"patching_rect" : [ 128.0, 175.0, 158.0, 18.0 ],
									"text" : "script show HighestPitchValue"
								}

							}
, 							{
								"box" : 								{
									"fontname" : "Calibri",
									"fontsize" : 11.0,
									"id" : "obj-5",
									"maxclass" : "message",
									"numinlets" : 2,
									"numoutlets" : 1,
									"outlettype" : [ "" ],
									"patching_rect" : [ 38.0, 250.0, 125.0, 18.0 ],
									"text" : "script hide HighestPitch"
								}

							}
, 							{
								"box" : 								{
									"comment" : "",
									"id" : "obj-4",
									"maxclass" : "outlet",
									"numinlets" : 1,
									"numoutlets" : 0,
									"patching_rect" : [ 27.0, 304.0, 25.0, 25.0 ]
								}

							}
, 							{
								"box" : 								{
									"fontname" : "Calibri",
									"fontsize" : 11.0,
									"id" : "obj-15",
									"maxclass" : "newobj",
									"numinlets" : 3,
									"numoutlets" : 3,
									"outlettype" : [ "bang", "bang", "" ],
									"patching_rect" : [ 27.0, 146.0, 175.0, 20.0 ],
									"text" : "sel 1 0"
								}

							}
, 							{
								"box" : 								{
									"fontname" : "Calibri",
									"fontsize" : 11.0,
									"id" : "obj-14",
									"maxclass" : "message",
									"numinlets" : 2,
									"numoutlets" : 1,
									"outlettype" : [ "" ],
									"patching_rect" : [ 60.0, 232.0, 153.0, 18.0 ],
									"text" : "script hide HighestPitchValue"
								}

							}
, 							{
								"box" : 								{
									"comment" : "",
									"id" : "obj-1",
									"maxclass" : "inlet",
									"numinlets" : 0,
									"numoutlets" : 1,
									"outlettype" : [ "" ],
									"patching_rect" : [ 27.0, 107.0, 25.0, 25.0 ]
								}

							}
, 							{
								"box" : 								{
									"background" : 1,
									"bgcolor" : [ 0.992157, 0.988235, 1.0, 0.95 ],
									"border" : 1,
									"grad1" : [ 0.154423, 0.154423, 0.154423, 1.0 ],
									"id" : "obj-11",
									"maxclass" : "panel",
									"numinlets" : 1,
									"numoutlets" : 0,
									"patching_rect" : [ 16.0, 90.0, 314.0, 255.0 ],
									"rounded" : 16
								}

							}
 ],
						"lines" : [ 							{
								"patchline" : 								{
									"destination" : [ "obj-15", 0 ],
									"disabled" : 0,
									"hidden" : 0,
									"source" : [ "obj-1", 0 ]
								}

							}
, 							{
								"patchline" : 								{
									"destination" : [ "obj-4", 0 ],
									"disabled" : 0,
									"hidden" : 0,
									"midpoints" : [ 69.5, 275.5, 36.5, 275.5 ],
									"source" : [ "obj-14", 0 ]
								}

							}
, 							{
								"patchline" : 								{
									"destination" : [ "obj-14", 0 ],
									"disabled" : 0,
									"hidden" : 0,
									"midpoints" : [ 36.5, 185.5, 69.5, 185.5 ],
									"source" : [ "obj-15", 0 ]
								}

							}
, 							{
								"patchline" : 								{
									"destination" : [ "obj-2", 0 ],
									"disabled" : 0,
									"hidden" : 0,
									"source" : [ "obj-15", 1 ]
								}

							}
, 							{
								"patchline" : 								{
									"destination" : [ "obj-3", 0 ],
									"disabled" : 0,
									"hidden" : 0,
									"source" : [ "obj-15", 0 ]
								}

							}
, 							{
								"patchline" : 								{
									"destination" : [ "obj-5", 0 ],
									"disabled" : 0,
									"hidden" : 0,
									"source" : [ "obj-15", 0 ]
								}

							}
, 							{
								"patchline" : 								{
									"destination" : [ "obj-6", 0 ],
									"disabled" : 0,
									"hidden" : 0,
									"source" : [ "obj-15", 1 ]
								}

							}
, 							{
								"patchline" : 								{
									"destination" : [ "obj-7", 0 ],
									"disabled" : 0,
									"hidden" : 0,
									"source" : [ "obj-15", 1 ]
								}

							}
, 							{
								"patchline" : 								{
									"destination" : [ "obj-4", 0 ],
									"disabled" : 0,
									"hidden" : 0,
									"source" : [ "obj-2", 0 ]
								}

							}
, 							{
								"patchline" : 								{
									"destination" : [ "obj-4", 0 ],
									"disabled" : 0,
									"hidden" : 0,
									"source" : [ "obj-3", 0 ]
								}

							}
, 							{
								"patchline" : 								{
									"destination" : [ "obj-4", 0 ],
									"disabled" : 0,
									"hidden" : 0,
									"source" : [ "obj-5", 0 ]
								}

							}
, 							{
								"patchline" : 								{
									"destination" : [ "obj-4", 0 ],
									"disabled" : 0,
									"hidden" : 0,
									"midpoints" : [ 125.5, 295.5, 36.5, 295.5 ],
									"source" : [ "obj-6", 0 ]
								}

							}
, 							{
								"patchline" : 								{
									"destination" : [ "obj-4", 0 ],
									"disabled" : 0,
									"hidden" : 0,
									"midpoints" : [ 137.5, 295.0, 36.5, 295.0 ],
									"source" : [ "obj-7", 0 ]
								}

							}
 ]
					}
,
					"patching_rect" : [ 713.5, 230.0, 68.0, 20.0 ],
					"saved_object_attributes" : 					{
						"default_fontface" : 0,
						"default_fontname" : "Calibri",
						"default_fontsize" : 11.0,
						"description" : "",
						"digest" : "",
						"fontface" : 0,
						"fontname" : "Calibri",
						"fontsize" : 11.0,
						"globalpatchername" : "",
						"tags" : ""
					}
,
					"text" : "p showHide"
				}

			}
, 			{
				"box" : 				{
					"fontname" : "Calibri",
					"fontsize" : 15.841608,
					"frgb" : 0.0,
					"id" : "obj-201",
					"maxclass" : "comment",
					"numinlets" : 1,
					"numoutlets" : 0,
					"patching_rect" : [ 306.900024, 555.0, 190.0, 26.0 ],
					"presentation" : 1,
					"presentation_rect" : [ 30.0, 308.0, 180.0, 26.0 ],
					"text" : "... with the vocal effort:",
					"textcolor" : [ 1.0, 0.611765, 0.376471, 1.0 ]
				}

			}
, 			{
				"box" : 				{
					"bgcolor" : [ 0.901961, 0.901961, 0.901961, 1.0 ],
					"bordercolor" : [ 0.501961, 0.501961, 0.501961, 0.0 ],
					"id" : "obj-193",
					"knobcolor" : [ 0.694118, 0.278431, 0.0, 1.0 ],
					"maxclass" : "slider",
					"numinlets" : 1,
					"numoutlets" : 1,
					"outlettype" : [ "" ],
					"parameter_enable" : 0,
					"patching_rect" : [ 306.900024, 585.0, 144.0, 22.0 ],
					"presentation" : 1,
					"presentation_rect" : [ 195.0, 313.0, 124.0, 16.0 ]
				}

			}
, 			{
				"box" : 				{
					"fontname" : "Calibri",
					"fontsize" : 15.839905,
					"frgb" : 0.0,
					"id" : "obj-191",
					"maxclass" : "comment",
					"numinlets" : 1,
					"numoutlets" : 0,
					"patching_rect" : [ 45.0, 555.0, 210.0, 26.0 ],
					"presentation" : 1,
					"presentation_rect" : [ 30.0, 285.0, 150.0, 26.0 ],
					"text" : "Try the pitch range:",
					"textcolor" : [ 1.0, 0.611765, 0.376471, 1.0 ]
				}

			}
, 			{
				"box" : 				{
					"fontname" : "Calibri",
					"fontsize" : 11.0,
					"id" : "obj-67",
					"maxclass" : "newobj",
					"numinlets" : 3,
					"numoutlets" : 2,
					"outlettype" : [ "", "" ],
					"patching_rect" : [ 306.900024, 664.0, 44.0, 20.0 ],
					"text" : "line 0. @compatmode 1"
				}

			}
, 			{
				"box" : 				{
					"fontname" : "Calibri",
					"fontsize" : 11.0,
					"id" : "obj-80",
					"maxclass" : "message",
					"numinlets" : 2,
					"numoutlets" : 1,
					"outlettype" : [ "" ],
					"patching_rect" : [ 306.900024, 640.0, 50.0, 18.0 ],
					"text" : "$1 50"
				}

			}
, 			{
				"box" : 				{
					"fontname" : "Calibri",
					"fontsize" : 11.0,
					"id" : "obj-63",
					"maxclass" : "newobj",
					"numinlets" : 3,
					"numoutlets" : 2,
					"outlettype" : [ "", "" ],
					"patching_rect" : [ 45.0, 664.0, 44.0, 20.0 ],
					"text" : "line 0. @compatmode 1"
				}

			}
, 			{
				"box" : 				{
					"fontname" : "Calibri",
					"fontsize" : 11.0,
					"id" : "obj-60",
					"maxclass" : "message",
					"numinlets" : 2,
					"numoutlets" : 1,
					"outlettype" : [ "" ],
					"patching_rect" : [ 45.0, 640.0, 50.0, 18.0 ],
					"text" : "$1 50"
				}

			}
, 			{
				"box" : 				{
					"fontname" : "Calibri",
					"fontsize" : 14.168015,
					"frgb" : 0.0,
					"id" : "obj-148",
					"maxclass" : "comment",
					"numinlets" : 1,
					"numoutlets" : 0,
					"patching_rect" : [ 221.975952, 685.0, 37.0, 24.0 ],
					"presentation" : 1,
					"presentation_rect" : [ 382.519165, 299.0, 36.480835, 24.0 ],
					"text" : "(Hz)",
					"textcolor" : [ 1.0, 0.611765, 0.376471, 1.0 ]
				}

			}
, 			{
				"box" : 				{
					"color" : [ 0.801141, 0.178251, 0.96466, 1.0 ],
					"fontname" : "Calibri",
					"fontsize" : 11.0,
					"id" : "obj-171",
					"maxclass" : "newobj",
					"numinlets" : 0,
					"numoutlets" : 1,
					"outlettype" : [ "" ],
					"patching_rect" : [ 139.956787, 659.0, 49.0, 20.0 ],
					"text" : "r CD-F0"
				}

			}
, 			{
				"box" : 				{
					"bgcolor" : [ 0.901961, 0.901961, 0.901961, 1.0 ],
					"bordercolor" : [ 0.501961, 0.501961, 0.501961, 0.0 ],
					"cantchange" : 1,
					"fontname" : "Calibri",
					"fontsize" : 14.0,
					"id" : "obj-172",
					"maxclass" : "flonum",
					"numinlets" : 1,
					"numoutlets" : 2,
					"outlettype" : [ "float", "bang" ],
					"parameter_enable" : 0,
					"patching_rect" : [ 139.956787, 685.0, 81.0, 24.0 ],
					"presentation" : 1,
					"presentation_rect" : [ 330.0, 299.0, 50.0, 24.0 ]
				}

			}
, 			{
				"box" : 				{
					"fontname" : "Calibri",
					"fontsize" : 11.0,
					"id" : "obj-192",
					"maxclass" : "newobj",
					"numinlets" : 6,
					"numoutlets" : 1,
					"outlettype" : [ "" ],
					"patching_rect" : [ 306.900024, 615.0, 90.0, 20.0 ],
					"text" : "scale 0 127 0. 1."
				}

			}
, 			{
				"box" : 				{
					"fontname" : "Calibri",
					"fontsize" : 11.0,
					"id" : "obj-194",
					"maxclass" : "newobj",
					"numinlets" : 6,
					"numoutlets" : 1,
					"outlettype" : [ "" ],
					"patching_rect" : [ 45.0, 615.0, 90.0, 20.0 ],
					"text" : "scale 0 127 0. 1."
				}

			}
, 			{
				"box" : 				{
					"bgcolor" : [ 0.901961, 0.901961, 0.901961, 1.0 ],
					"bordercolor" : [ 0.501961, 0.501961, 0.501961, 0.0 ],
					"id" : "obj-195",
					"knobcolor" : [ 0.694118, 0.278431, 0.0, 1.0 ],
					"maxclass" : "slider",
					"numinlets" : 1,
					"numoutlets" : 1,
					"outlettype" : [ "" ],
					"parameter_enable" : 0,
					"patching_rect" : [ 45.0, 585.0, 144.0, 22.0 ],
					"presentation" : 1,
					"presentation_rect" : [ 195.0, 290.5, 124.0, 15.0 ]
				}

			}
, 			{
				"box" : 				{
					"color" : [ 0.801141, 0.178251, 0.96466, 1.0 ],
					"fontname" : "Calibri",
					"fontsize" : 11.0,
					"id" : "obj-279",
					"maxclass" : "newobj",
					"numinlets" : 1,
					"numoutlets" : 0,
					"patching_rect" : [ 306.900024, 690.0, 62.0, 20.0 ],
					"text" : "s CD-E_mm"
				}

			}
, 			{
				"box" : 				{
					"color" : [ 0.801141, 0.178251, 0.96466, 1.0 ],
					"fontname" : "Calibri",
					"fontsize" : 11.0,
					"id" : "obj-280",
					"maxclass" : "newobj",
					"numinlets" : 1,
					"numoutlets" : 0,
					"patching_rect" : [ 45.0, 690.0, 62.0, 20.0 ],
					"text" : "s CD-P_mm"
				}

			}
, 			{
				"box" : 				{
					"color" : [ 0.952941, 0.388235, 0.090196, 1.0 ],
					"fontname" : "Calibri",
					"fontsize" : 18.0,
					"id" : "obj-187",
					"maxclass" : "newobj",
					"numinlets" : 1,
					"numoutlets" : 0,
					"patching_rect" : [ 700.0, 26.0, 71.0, 28.0 ],
					"text" : "License"
				}

			}
, 			{
				"box" : 				{
					"fontname" : "Calibri",
					"fontsize" : 14.0,
					"frgb" : 0.0,
					"hidden" : 1,
					"id" : "obj-10",
					"maxclass" : "comment",
					"numinlets" : 1,
					"numoutlets" : 0,
					"patching_rect" : [ 576.0, 189.0, 62.0, 24.0 ],
					"presentation" : 1,
					"presentation_rect" : [ 240.0, 200.0, 59.0, 24.0 ],
					"text" : "Highest",
					"textcolor" : [ 1.0, 0.613028, 0.375287, 1.0 ],
					"varname" : "HighestPitch"
				}

			}
, 			{
				"box" : 				{
					"fontname" : "Calibri",
					"fontsize" : 14.0,
					"frgb" : 0.0,
					"id" : "obj-9",
					"maxclass" : "comment",
					"numinlets" : 1,
					"numoutlets" : 0,
					"patching_rect" : [ 472.5, 189.0, 53.0, 24.0 ],
					"presentation" : 1,
					"presentation_rect" : [ 45.0, 200.0, 53.0, 24.0 ],
					"text" : "Lowest",
					"textcolor" : [ 1.0, 0.613028, 0.375287, 1.0 ],
					"varname" : "LowestPitch"
				}

			}
, 			{
				"box" : 				{
					"bgcolor" : [ 0.901961, 0.901961, 0.901961, 1.0 ],
					"bgoncolor" : [ 0.678431, 0.917647, 0.352941, 1.0 ],
					"bgovercolor" : [ 1.0, 0.611765, 0.376471, 1.0 ],
					"bgoveroncolor" : [ 0.952941, 0.388235, 0.090196, 1.0 ],
					"border" : 0,
					"borderoncolor" : [ 0.364178, 0.899081, 0.0, 1.0 ],
					"fontname" : "Calibri",
					"fontsize" : 12.0,
					"id" : "obj-8",
					"maxclass" : "textbutton",
					"mode" : 1,
					"numinlets" : 1,
					"numoutlets" : 3,
					"outlettype" : [ "", "", "int" ],
					"parameter_enable" : 0,
					"patching_rect" : [ 668.5, 165.0, 112.0, 44.0 ],
					"presentation" : 1,
					"presentation_rect" : [ 45.0, 235.0, 357.0, 20.0 ],
					"rounded" : 10.0,
					"text" : "Links lowest and highest values (Off)",
					"texton" : "Links lowest and highest values (On)",
					"textoncolor" : [ 0.0, 0.0, 0.0, 1.0 ],
					"textoveroncolor" : [ 0.901961, 0.901961, 0.901961, 1.0 ],
					"truncate" : 0,
					"varname" : "perturbationOnOff"
				}

			}
, 			{
				"box" : 				{
					"fontname" : "Calibri",
					"fontsize" : 11.0,
					"id" : "obj-7",
					"maxclass" : "message",
					"numinlets" : 2,
					"numoutlets" : 1,
					"outlettype" : [ "" ],
					"patching_rect" : [ 51.5, 120.0, 18.0, 18.0 ],
					"text" : "7"
				}

			}
, 			{
				"box" : 				{
					"comment" : "",
					"id" : "obj-4",
					"maxclass" : "outlet",
					"numinlets" : 1,
					"numoutlets" : 0,
					"patching_rect" : [ 75.0, 493.0, 25.0, 25.0 ]
				}

			}
, 			{
				"box" : 				{
					"fontname" : "Calibri",
					"fontsize" : 11.0,
					"id" : "obj-159",
					"maxclass" : "newobj",
					"numinlets" : 1,
					"numoutlets" : 1,
					"outlettype" : [ "" ],
					"patching_rect" : [ 75.0, 120.0, 65.0, 20.0 ],
					"text" : "loadmess 4"
				}

			}
, 			{
				"box" : 				{
					"clicktabcolor" : [ 0.952941, 0.388235, 0.090196, 1.0 ],
					"clicktextcolor" : [ 0.901961, 0.901961, 0.901961, 1.0 ],
					"fadetime" : 100.0,
					"fadeunselect" : 1,
					"fontname" : "Calibri",
					"fontsize" : 14.0,
					"hovertabcolor" : [ 1.0, 0.611765, 0.376471, 1.0 ],
					"hovertextcolor" : [ 0.101961, 0.101961, 0.101961, 1.0 ],
					"htabcolor" : [ 0.678143, 0.916175, 0.353492, 1.0 ],
					"htextcolor" : [ 0.101961, 0.101961, 0.101961, 1.0 ],
					"id" : "obj-158",
					"maxclass" : "tab",
					"numinlets" : 1,
					"numoutlets" : 3,
					"outlettype" : [ "int", "", "" ],
					"parameter_enable" : 0,
					"patching_rect" : [ 75.0, 147.522034, 273.5, 29.253906 ],
					"presentation" : 1,
					"presentation_rect" : [ 45.0, 109.0, 295.0, 27.753906 ],
					"rounded" : 10.0,
					"segmented" : 1,
					"tabcolor" : [ 0.901961, 0.901961, 0.901961, 1.0 ],
					"tabs" : [ "27Hz", "55Hz", "110Hz", "220Hz", "440Hz", "880Hz" ],
					"truncate" : 0
				}

			}
, 			{
				"box" : 				{
					"fontname" : "Calibri",
					"fontsize" : 11.0,
					"id" : "obj-6",
					"maxclass" : "newobj",
					"numinlets" : 1,
					"numoutlets" : 1,
					"outlettype" : [ "" ],
					"patching_rect" : [ 75.0, 179.27594, 111.0, 20.0 ],
					"text" : "expr 27.5*pow(2\\,$f1)"
				}

			}
, 			{
				"box" : 				{
					"fontname" : "Calibri",
					"fontsize" : 11.0,
					"id" : "obj-3",
					"maxclass" : "newobj",
					"numinlets" : 1,
					"numoutlets" : 1,
					"outlettype" : [ "" ],
					"patching_rect" : [ 187.0, 179.27594, 89.0, 20.0 ],
					"text" : "loadmess min 1."
				}

			}
, 			{
				"box" : 				{
					"fontname" : "Calibri",
					"fontsize" : 11.0,
					"id" : "obj-103",
					"maxclass" : "newobj",
					"numinlets" : 1,
					"numoutlets" : 1,
					"outlettype" : [ "" ],
					"patching_rect" : [ 462.0, 120.0, 98.0, 20.0 ],
					"text" : "loadmess min -80."
				}

			}
, 			{
				"box" : 				{
					"fontname" : "Calibri",
					"fontsize" : 11.0,
					"id" : "obj-114",
					"maxclass" : "newobj",
					"numinlets" : 1,
					"numoutlets" : 1,
					"outlettype" : [ "" ],
					"patching_rect" : [ 565.25, 120.0, 98.0, 20.0 ],
					"text" : "loadmess max 35."
				}

			}
, 			{
				"box" : 				{
					"fontname" : "Calibri",
					"fontsize" : 16.293379,
					"frgb" : 0.0,
					"id" : "obj-115",
					"maxclass" : "comment",
					"numinlets" : 1,
					"numoutlets" : 0,
					"patching_rect" : [ 390.0, 77.5, 370.0, 26.0 ],
					"presentation" : 1,
					"presentation_rect" : [ 45.0, 166.485031, 390.0, 26.0 ],
					"text" : "Shift of lowest and/or highest values of the pitch range",
					"textcolor" : [ 1.0, 0.613028, 0.375287, 1.0 ]
				}

			}
, 			{
				"box" : 				{
					"fontname" : "Calibri",
					"fontsize" : 11.0,
					"id" : "obj-117",
					"maxclass" : "newobj",
					"numinlets" : 1,
					"numoutlets" : 1,
					"outlettype" : [ "" ],
					"patching_rect" : [ 668.5, 120.0, 65.0, 20.0 ],
					"text" : "loadmess 1"
				}

			}
, 			{
				"box" : 				{
					"fontname" : "Calibri",
					"fontsize" : 11.0,
					"id" : "obj-120",
					"maxclass" : "newobj",
					"numinlets" : 2,
					"numoutlets" : 1,
					"outlettype" : [ "" ],
					"patching_rect" : [ 668.5, 230.0, 30.0, 20.0 ],
					"text" : "gate"
				}

			}
, 			{
				"box" : 				{
					"fontname" : "Calibri",
					"fontsize" : 11.0,
					"id" : "obj-131",
					"maxclass" : "newobj",
					"numinlets" : 3,
					"numoutlets" : 1,
					"outlettype" : [ "" ],
					"patching_rect" : [ 462.0, 230.0, 169.529053, 20.0 ],
					"text" : "pak f f i"
				}

			}
, 			{
				"box" : 				{
					"bgcolor" : [ 0.901961, 0.901961, 0.901961, 1.0 ],
					"bordercolor" : [ 0.501961, 0.501961, 0.501961, 0.0 ],
					"fontname" : "Calibri",
					"fontsize" : 14.0,
					"hbgcolor" : [ 0.14902, 0.14902, 0.14902, 1.0 ],
					"hidden" : 1,
					"htextcolor" : [ 0.901961, 0.901961, 0.901961, 1.0 ],
					"htricolor" : [ 0.694118, 0.278431, 0.0, 1.0 ],
					"id" : "obj-139",
					"maxclass" : "flonum",
					"maximum" : 35.0,
					"minimum" : -80.0,
					"numinlets" : 1,
					"numoutlets" : 2,
					"outlettype" : [ "float", "bang" ],
					"parameter_enable" : 0,
					"patching_rect" : [ 565.25, 165.0, 53.0, 24.0 ],
					"presentation" : 1,
					"presentation_rect" : [ 292.0, 200.0, 48.0, 24.0 ],
					"textcolor" : [ 0.14902, 0.14902, 0.14902, 1.0 ],
					"tricolor" : [ 0.74902, 0.74902, 0.74902, 1.0 ],
					"varname" : "HighestPitchValue"
				}

			}
, 			{
				"box" : 				{
					"bgcolor" : [ 0.901961, 0.901961, 0.901961, 1.0 ],
					"bordercolor" : [ 0.501961, 0.501961, 0.501961, 0.0 ],
					"fontname" : "Calibri",
					"fontsize" : 14.0,
					"hbgcolor" : [ 0.14902, 0.14902, 0.14902, 1.0 ],
					"htextcolor" : [ 0.901961, 0.901961, 0.901961, 1.0 ],
					"htricolor" : [ 0.694118, 0.278431, 0.0, 1.0 ],
					"id" : "obj-140",
					"maxclass" : "flonum",
					"maximum" : 35.0,
					"minimum" : -80.0,
					"numinlets" : 1,
					"numoutlets" : 2,
					"outlettype" : [ "float", "bang" ],
					"parameter_enable" : 0,
					"patching_rect" : [ 462.0, 165.0, 53.0, 24.0 ],
					"presentation" : 1,
					"presentation_rect" : [ 96.0, 200.0, 48.0, 24.0 ],
					"textcolor" : [ 0.14902, 0.14902, 0.14902, 1.0 ],
					"tricolor" : [ 0.74902, 0.74902, 0.74902, 1.0 ],
					"varname" : "LowestPitchValue"
				}

			}
, 			{
				"box" : 				{
					"fontname" : "Calibri",
					"fontsize" : 11.0,
					"id" : "obj-88",
					"maxclass" : "newobj",
					"numinlets" : 1,
					"numoutlets" : 1,
					"outlettype" : [ "" ],
					"patching_rect" : [ 390.0, 290.0, 68.0, 20.0 ],
					"text" : "loadmess 0."
				}

			}
, 			{
				"box" : 				{
					"fontname" : "Calibri",
					"fontsize" : 11.0,
					"id" : "obj-111",
					"maxclass" : "newobj",
					"numinlets" : 1,
					"numoutlets" : 2,
					"outlettype" : [ "bang", "float" ],
					"patching_rect" : [ 503.0, 433.0, 32.0, 20.0 ],
					"text" : "t b f"
				}

			}
, 			{
				"box" : 				{
					"fontname" : "Calibri",
					"fontsize" : 11.0,
					"id" : "obj-109",
					"maxclass" : "newobj",
					"numinlets" : 2,
					"numoutlets" : 1,
					"outlettype" : [ "" ],
					"patching_rect" : [ 672.5, 378.0, 46.0, 20.0 ],
					"text" : "gate"
				}

			}
, 			{
				"box" : 				{
					"fontname" : "Calibri",
					"fontsize" : 11.0,
					"id" : "obj-108",
					"maxclass" : "newobj",
					"numinlets" : 2,
					"numoutlets" : 1,
					"outlettype" : [ "int" ],
					"patching_rect" : [ 672.5, 352.0, 32.0, 20.0 ],
					"text" : "== 0"
				}

			}
, 			{
				"box" : 				{
					"fontname" : "Calibri",
					"fontsize" : 11.0,
					"id" : "obj-107",
					"maxclass" : "newobj",
					"numinlets" : 2,
					"numoutlets" : 1,
					"outlettype" : [ "" ],
					"patching_rect" : [ 583.0, 378.0, 30.0, 20.0 ],
					"text" : "gate"
				}

			}
, 			{
				"box" : 				{
					"fontname" : "Calibri",
					"fontsize" : 11.0,
					"id" : "obj-101",
					"maxclass" : "newobj",
					"numinlets" : 1,
					"numoutlets" : 1,
					"outlettype" : [ "" ],
					"patching_rect" : [ 598.25, 290.0, 65.0, 20.0 ],
					"text" : "loadmess 1"
				}

			}
, 			{
				"box" : 				{
					"id" : "obj-99",
					"maxclass" : "toggle",
					"numinlets" : 1,
					"numoutlets" : 1,
					"outlettype" : [ "int" ],
					"parameter_enable" : 0,
					"patching_rect" : [ 583.0, 330.0, 20.0, 20.0 ]
				}

			}
, 			{
				"box" : 				{
					"fontname" : "Calibri",
					"fontsize" : 11.0,
					"id" : "obj-98",
					"maxclass" : "newobj",
					"numinlets" : 1,
					"numoutlets" : 3,
					"outlettype" : [ "float", "float", "int" ],
					"patching_rect" : [ 462.0, 255.0, 140.0, 20.0 ],
					"text" : "unpack f f i"
				}

			}
, 			{
				"box" : 				{
					"fontname" : "Calibri",
					"fontsize" : 11.0,
					"id" : "obj-97",
					"maxclass" : "newobj",
					"numinlets" : 2,
					"numoutlets" : 1,
					"outlettype" : [ "" ],
					"patching_rect" : [ 462.0, 465.5, 73.0, 20.0 ],
					"text" : "pack f f"
				}

			}
, 			{
				"box" : 				{
					"fontname" : "Calibri",
					"fontsize" : 11.0,
					"id" : "obj-91",
					"maxclass" : "flonum",
					"numinlets" : 1,
					"numoutlets" : 2,
					"outlettype" : [ "float", "bang" ],
					"parameter_enable" : 0,
					"patching_rect" : [ 583.0, 411.0, 48.0, 20.0 ]
				}

			}
, 			{
				"box" : 				{
					"fontname" : "Calibri",
					"fontsize" : 11.0,
					"id" : "obj-90",
					"maxclass" : "flonum",
					"numinlets" : 1,
					"numoutlets" : 2,
					"outlettype" : [ "float", "bang" ],
					"parameter_enable" : 0,
					"patching_rect" : [ 462.0, 330.0, 48.0, 20.0 ]
				}

			}
, 			{
				"box" : 				{
					"fontname" : "Calibri",
					"fontsize" : 11.0,
					"frgb" : 0.0,
					"id" : "obj-86",
					"maxclass" : "comment",
					"numinlets" : 1,
					"numoutlets" : 0,
					"patching_rect" : [ 493.5, 493.0, 227.0, 20.0 ],
					"text" : "Pitch shift (list : midi min shift, midi max shift)",
					"textcolor" : [ 1.0, 0.611765, 0.376471, 1.0 ]
				}

			}
, 			{
				"box" : 				{
					"fontname" : "Calibri",
					"fontsize" : 18.0,
					"frgb" : 0.0,
					"id" : "obj-293",
					"maxclass" : "comment",
					"numinlets" : 1,
					"numoutlets" : 0,
					"patching_rect" : [ 45.0, 77.5, 203.0, 28.0 ],
					"presentation" : 1,
					"presentation_rect" : [ 45.0, 75.0, 237.0, 28.0 ],
					"text" : "Tuner (Frequency of A4)",
					"textcolor" : [ 1.0, 0.613028, 0.375287, 1.0 ],
					"varname" : "autotunePreset_text[1]"
				}

			}
, 			{
				"box" : 				{
					"bgcolor" : [ 0.901961, 0.901961, 0.901961, 1.0 ],
					"bordercolor" : [ 0.501961, 0.501961, 0.501961, 0.0 ],
					"fontname" : "Calibri",
					"fontsize" : 14.0,
					"hbgcolor" : [ 0.14902, 0.14902, 0.14902, 1.0 ],
					"htextcolor" : [ 0.901961, 0.901961, 0.901961, 1.0 ],
					"htricolor" : [ 0.694118, 0.278431, 0.0, 1.0 ],
					"id" : "obj-284",
					"maxclass" : "flonum",
					"maximum" : 2000.0,
					"minimum" : 1.0,
					"numinlets" : 1,
					"numoutlets" : 2,
					"outlettype" : [ "float", "bang" ],
					"parameter_enable" : 0,
					"patching_rect" : [ 75.0, 205.27594, 58.0, 24.0 ],
					"presentation" : 1,
					"presentation_rect" : [ 345.0, 110.876953, 47.0, 24.0 ],
					"textcolor" : [ 0.14902, 0.14902, 0.14902, 1.0 ],
					"varname" : "tuner"
				}

			}
, 			{
				"box" : 				{
					"comment" : "",
					"id" : "obj-2",
					"maxclass" : "inlet",
					"numinlets" : 0,
					"numoutlets" : 1,
					"outlettype" : [ "" ],
					"patching_rect" : [ 251.0, 30.0, 25.0, 25.0 ]
				}

			}
, 			{
				"box" : 				{
					"fontname" : "Calibri",
					"fontsize" : 36.0,
					"frgb" : 0.0,
					"id" : "obj-162",
					"maxclass" : "comment",
					"numinlets" : 1,
					"numoutlets" : 0,
					"patching_rect" : [ 30.0, 17.5, 210.0, 50.0 ],
					"presentation" : 1,
					"presentation_rect" : [ 30.0, 17.5, 240.0, 50.0 ],
					"text" : "Pitch Tuning",
					"textcolor" : [ 0.952929, 0.387438, 0.091084, 1.0 ]
				}

			}
, 			{
				"box" : 				{
					"comment" : "",
					"id" : "obj-1",
					"maxclass" : "outlet",
					"numinlets" : 1,
					"numoutlets" : 0,
					"patching_rect" : [ 462.0, 493.0, 25.0, 25.0 ]
				}

			}
, 			{
				"box" : 				{
					"background" : 1,
					"bgcolor" : [ 0.304093, 0.304093, 0.304093, 1.0 ],
					"id" : "obj-190",
					"maxclass" : "panel",
					"numinlets" : 1,
					"numoutlets" : 0,
					"patching_rect" : [ 240.0, 460.0, 99.0, 50.0 ],
					"presentation" : 1,
					"presentation_rect" : [ 30.0, 165.0, 390.0, 105.0 ],
					"varname" : "autotunePreset_panel[4]"
				}

			}
, 			{
				"box" : 				{
					"background" : 1,
					"bgcolor" : [ 0.304093, 0.304093, 0.304093, 1.0 ],
					"id" : "obj-189",
					"maxclass" : "panel",
					"numinlets" : 1,
					"numoutlets" : 0,
					"patching_rect" : [ 240.0, 396.0, 99.0, 50.0 ],
					"presentation" : 1,
					"presentation_rect" : [ 30.0, 75.0, 390.0, 75.0 ],
					"varname" : "autotunePreset_panel[3]"
				}

			}
, 			{
				"box" : 				{
					"background" : 1,
					"bgcolor" : [ 0.992157, 0.988235, 1.0, 0.95 ],
					"border" : 1,
					"grad1" : [ 0.154423, 0.154423, 0.154423, 1.0 ],
					"id" : "obj-182",
					"maxclass" : "panel",
					"numinlets" : 1,
					"numoutlets" : 0,
					"patching_rect" : [ 30.0, 540.0, 495.149963, 180.0 ],
					"rounded" : 16
				}

			}
, 			{
				"box" : 				{
					"background" : 1,
					"bgcolor" : [ 0.992157, 0.988235, 1.0, 0.95 ],
					"border" : 1,
					"grad1" : [ 0.154423, 0.154423, 0.154423, 1.0 ],
					"id" : "obj-11",
					"maxclass" : "panel",
					"numinlets" : 1,
					"numoutlets" : 0,
					"patching_rect" : [ 375.0, 75.0, 420.0, 450.0 ],
					"rounded" : 16
				}

			}
, 			{
				"box" : 				{
					"background" : 1,
					"bgcolor" : [ 0.992157, 0.988235, 1.0, 0.95 ],
					"border" : 1,
					"grad1" : [ 0.154423, 0.154423, 0.154423, 1.0 ],
					"id" : "obj-32",
					"maxclass" : "panel",
					"numinlets" : 1,
					"numoutlets" : 0,
					"patching_rect" : [ 30.0, 75.0, 330.0, 450.0 ],
					"rounded" : 16
				}

			}
, 			{
				"box" : 				{
					"background" : 1,
					"bgcolor" : [ 1.0, 0.968627, 0.968627, 0.25 ],
					"border" : 1,
					"bordercolor" : [ 0.952929, 0.387438, 0.091084, 1.0 ],
					"grad1" : [ 0.154423, 0.154423, 0.154423, 1.0 ],
					"id" : "obj-5",
					"maxclass" : "panel",
					"numinlets" : 1,
					"numoutlets" : 0,
					"patching_rect" : [ 15.0, 15.0, 795.0, 720.0 ],
					"presentation" : 1,
					"presentation_rect" : [ 15.0, 15.0, 420.0, 330.0 ],
					"rounded" : 16
				}

			}
 ],
		"lines" : [ 			{
				"patchline" : 				{
					"destination" : [ "obj-99", 0 ],
					"disabled" : 0,
					"hidden" : 0,
					"midpoints" : [ 607.75, 318.5, 592.5, 318.5 ],
					"source" : [ "obj-101", 0 ]
				}

			}
, 			{
				"patchline" : 				{
					"destination" : [ "obj-139", 0 ],
					"disabled" : 0,
					"hidden" : 0,
					"midpoints" : [ 471.5, 157.5, 574.75, 157.5 ],
					"source" : [ "obj-103", 0 ]
				}

			}
, 			{
				"patchline" : 				{
					"destination" : [ "obj-140", 0 ],
					"disabled" : 0,
					"hidden" : 0,
					"source" : [ "obj-103", 0 ]
				}

			}
, 			{
				"patchline" : 				{
					"destination" : [ "obj-91", 0 ],
					"disabled" : 0,
					"hidden" : 0,
					"midpoints" : [ 592.5, 403.5, 592.5, 403.5 ],
					"source" : [ "obj-107", 0 ]
				}

			}
, 			{
				"patchline" : 				{
					"destination" : [ "obj-109", 0 ],
					"disabled" : 0,
					"hidden" : 0,
					"source" : [ "obj-108", 0 ]
				}

			}
, 			{
				"patchline" : 				{
					"destination" : [ "obj-91", 0 ],
					"disabled" : 0,
					"hidden" : 0,
					"midpoints" : [ 682.0, 402.5, 592.5, 402.5 ],
					"source" : [ "obj-109", 0 ]
				}

			}
, 			{
				"patchline" : 				{
					"destination" : [ "obj-97", 1 ],
					"disabled" : 0,
					"hidden" : 0,
					"source" : [ "obj-111", 1 ]
				}

			}
, 			{
				"patchline" : 				{
					"destination" : [ "obj-97", 0 ],
					"disabled" : 0,
					"hidden" : 0,
					"midpoints" : [ 512.5, 453.5, 471.5, 453.5 ],
					"source" : [ "obj-111", 0 ]
				}

			}
, 			{
				"patchline" : 				{
					"destination" : [ "obj-139", 0 ],
					"disabled" : 0,
					"hidden" : 0,
					"source" : [ "obj-114", 0 ]
				}

			}
, 			{
				"patchline" : 				{
					"destination" : [ "obj-140", 0 ],
					"disabled" : 0,
					"hidden" : 0,
					"midpoints" : [ 574.75, 151.5, 471.5, 151.5 ],
					"source" : [ "obj-114", 0 ]
				}

			}
, 			{
				"patchline" : 				{
					"destination" : [ "obj-8", 0 ],
					"disabled" : 0,
					"hidden" : 0,
					"source" : [ "obj-117", 0 ]
				}

			}
, 			{
				"patchline" : 				{
					"destination" : [ "obj-139", 0 ],
					"disabled" : 0,
					"hidden" : 0,
					"midpoints" : [ 678.0, 255.0, 659.5, 255.0, 659.5, 157.0, 574.75, 157.0 ],
					"source" : [ "obj-120", 0 ]
				}

			}
, 			{
				"patchline" : 				{
					"destination" : [ "obj-98", 0 ],
					"disabled" : 0,
					"hidden" : 0,
					"source" : [ "obj-131", 0 ]
				}

			}
, 			{
				"patchline" : 				{
					"destination" : [ "obj-131", 1 ],
					"disabled" : 0,
					"hidden" : 0,
					"midpoints" : [ 574.75, 227.0, 546.764526, 227.0 ],
					"source" : [ "obj-139", 0 ]
				}

			}
, 			{
				"patchline" : 				{
					"destination" : [ "obj-120", 1 ],
					"disabled" : 0,
					"hidden" : 0,
					"midpoints" : [ 471.5, 220.0, 689.0, 220.0 ],
					"source" : [ "obj-140", 0 ]
				}

			}
, 			{
				"patchline" : 				{
					"destination" : [ "obj-131", 0 ],
					"disabled" : 0,
					"hidden" : 0,
					"source" : [ "obj-140", 0 ]
				}

			}
, 			{
				"patchline" : 				{
					"destination" : [ "obj-6", 0 ],
					"disabled" : 0,
					"hidden" : 0,
					"source" : [ "obj-158", 0 ]
				}

			}
, 			{
				"patchline" : 				{
					"destination" : [ "obj-158", 0 ],
					"disabled" : 0,
					"hidden" : 0,
					"source" : [ "obj-159", 0 ]
				}

			}
, 			{
				"patchline" : 				{
					"destination" : [ "obj-17", 0 ],
					"disabled" : 0,
					"hidden" : 0,
					"source" : [ "obj-16", 0 ]
				}

			}
, 			{
				"patchline" : 				{
					"destination" : [ "obj-172", 0 ],
					"disabled" : 0,
					"hidden" : 0,
					"source" : [ "obj-171", 0 ]
				}

			}
, 			{
				"patchline" : 				{
					"destination" : [ "obj-80", 0 ],
					"disabled" : 0,
					"hidden" : 0,
					"source" : [ "obj-192", 0 ]
				}

			}
, 			{
				"patchline" : 				{
					"destination" : [ "obj-192", 0 ],
					"disabled" : 0,
					"hidden" : 0,
					"source" : [ "obj-193", 0 ]
				}

			}
, 			{
				"patchline" : 				{
					"destination" : [ "obj-60", 0 ],
					"disabled" : 0,
					"hidden" : 0,
					"source" : [ "obj-194", 0 ]
				}

			}
, 			{
				"patchline" : 				{
					"destination" : [ "obj-194", 0 ],
					"disabled" : 0,
					"hidden" : 0,
					"source" : [ "obj-195", 0 ]
				}

			}
, 			{
				"patchline" : 				{
					"destination" : [ "obj-117", 0 ],
					"disabled" : 0,
					"hidden" : 0,
					"midpoints" : [ 309.5, 111.75, 678.0, 111.75 ],
					"source" : [ "obj-21", 0 ]
				}

			}
, 			{
				"patchline" : 				{
					"destination" : [ "obj-159", 0 ],
					"disabled" : 0,
					"hidden" : 0,
					"midpoints" : [ 309.5, 110.5, 84.5, 110.5 ],
					"source" : [ "obj-21", 0 ]
				}

			}
, 			{
				"patchline" : 				{
					"destination" : [ "obj-23", 0 ],
					"disabled" : 0,
					"hidden" : 0,
					"midpoints" : [ 309.5, 111.0, 429.5, 111.0 ],
					"source" : [ "obj-21", 0 ]
				}

			}
, 			{
				"patchline" : 				{
					"destination" : [ "obj-139", 0 ],
					"disabled" : 0,
					"hidden" : 0,
					"midpoints" : [ 429.5, 158.5, 574.75, 158.5 ],
					"source" : [ "obj-23", 0 ]
				}

			}
, 			{
				"patchline" : 				{
					"destination" : [ "obj-140", 0 ],
					"disabled" : 0,
					"hidden" : 0,
					"midpoints" : [ 429.5, 158.5, 471.5, 158.5 ],
					"source" : [ "obj-23", 0 ]
				}

			}
, 			{
				"patchline" : 				{
					"destination" : [ "obj-4", 0 ],
					"disabled" : 0,
					"hidden" : 0,
					"source" : [ "obj-284", 0 ]
				}

			}
, 			{
				"patchline" : 				{
					"destination" : [ "obj-7", 0 ],
					"disabled" : 0,
					"hidden" : 0,
					"midpoints" : [ 84.5, 234.648987, 44.5, 234.648987, 44.5, 114.648987, 58.5, 114.648987 ],
					"source" : [ "obj-284", 0 ]
				}

			}
, 			{
				"patchline" : 				{
					"destination" : [ "obj-284", 0 ],
					"disabled" : 0,
					"hidden" : 0,
					"midpoints" : [ 196.5, 201.77594, 84.5, 201.77594 ],
					"source" : [ "obj-3", 0 ]
				}

			}
, 			{
				"patchline" : 				{
					"destination" : [ "obj-284", 0 ],
					"disabled" : 0,
					"hidden" : 0,
					"source" : [ "obj-6", 0 ]
				}

			}
, 			{
				"patchline" : 				{
					"destination" : [ "obj-63", 0 ],
					"disabled" : 0,
					"hidden" : 0,
					"source" : [ "obj-60", 0 ]
				}

			}
, 			{
				"patchline" : 				{
					"destination" : [ "obj-280", 0 ],
					"disabled" : 0,
					"hidden" : 0,
					"source" : [ "obj-63", 0 ]
				}

			}
, 			{
				"patchline" : 				{
					"destination" : [ "obj-279", 0 ],
					"disabled" : 0,
					"hidden" : 0,
					"source" : [ "obj-67", 0 ]
				}

			}
, 			{
				"patchline" : 				{
					"destination" : [ "obj-158", 0 ],
					"disabled" : 0,
					"hidden" : 0,
					"midpoints" : [ 61.0, 142.261017, 84.5, 142.261017 ],
					"source" : [ "obj-7", 0 ]
				}

			}
, 			{
				"patchline" : 				{
					"destination" : [ "obj-120", 0 ],
					"disabled" : 0,
					"hidden" : 0,
					"source" : [ "obj-8", 0 ]
				}

			}
, 			{
				"patchline" : 				{
					"destination" : [ "obj-131", 2 ],
					"disabled" : 0,
					"hidden" : 0,
					"midpoints" : [ 678.0, 226.0, 622.029053, 226.0 ],
					"source" : [ "obj-8", 0 ]
				}

			}
, 			{
				"patchline" : 				{
					"destination" : [ "obj-16", 0 ],
					"disabled" : 0,
					"hidden" : 0,
					"midpoints" : [ 678.0, 219.0, 723.0, 219.0 ],
					"source" : [ "obj-8", 0 ]
				}

			}
, 			{
				"patchline" : 				{
					"destination" : [ "obj-67", 0 ],
					"disabled" : 0,
					"hidden" : 0,
					"source" : [ "obj-80", 0 ]
				}

			}
, 			{
				"patchline" : 				{
					"destination" : [ "obj-90", 0 ],
					"disabled" : 0,
					"hidden" : 0,
					"midpoints" : [ 399.5, 317.0, 471.5, 317.0 ],
					"source" : [ "obj-88", 0 ]
				}

			}
, 			{
				"patchline" : 				{
					"destination" : [ "obj-91", 0 ],
					"disabled" : 0,
					"hidden" : 0,
					"midpoints" : [ 399.5, 403.5, 592.5, 403.5 ],
					"source" : [ "obj-88", 0 ]
				}

			}
, 			{
				"patchline" : 				{
					"destination" : [ "obj-107", 1 ],
					"disabled" : 0,
					"hidden" : 0,
					"midpoints" : [ 471.5, 363.5, 603.5, 363.5 ],
					"source" : [ "obj-90", 0 ]
				}

			}
, 			{
				"patchline" : 				{
					"destination" : [ "obj-97", 0 ],
					"disabled" : 0,
					"hidden" : 0,
					"source" : [ "obj-90", 0 ]
				}

			}
, 			{
				"patchline" : 				{
					"destination" : [ "obj-111", 0 ],
					"disabled" : 0,
					"hidden" : 0,
					"midpoints" : [ 592.5, 431.5, 512.5, 431.5 ],
					"source" : [ "obj-91", 0 ]
				}

			}
, 			{
				"patchline" : 				{
					"destination" : [ "obj-1", 0 ],
					"disabled" : 0,
					"hidden" : 0,
					"source" : [ "obj-97", 0 ]
				}

			}
, 			{
				"patchline" : 				{
					"destination" : [ "obj-109", 1 ],
					"disabled" : 0,
					"hidden" : 0,
					"midpoints" : [ 532.0, 283.25, 709.0, 283.25 ],
					"source" : [ "obj-98", 1 ]
				}

			}
, 			{
				"patchline" : 				{
					"destination" : [ "obj-90", 0 ],
					"disabled" : 0,
					"hidden" : 0,
					"source" : [ "obj-98", 0 ]
				}

			}
, 			{
				"patchline" : 				{
					"destination" : [ "obj-99", 0 ],
					"disabled" : 0,
					"hidden" : 0,
					"source" : [ "obj-98", 2 ]
				}

			}
, 			{
				"patchline" : 				{
					"destination" : [ "obj-107", 0 ],
					"disabled" : 0,
					"hidden" : 0,
					"source" : [ "obj-99", 0 ]
				}

			}
, 			{
				"patchline" : 				{
					"destination" : [ "obj-108", 0 ],
					"disabled" : 0,
					"hidden" : 0,
					"midpoints" : [ 592.5, 350.5, 682.0, 350.5 ],
					"source" : [ "obj-99", 0 ]
				}

			}
 ]
	}

}
